<?xml version="1.0" encoding="utf-8"?>
<!-- Generator: Adobe Illustrator 27.5.0, SVG Export Plug-In . SVG Version: 6.00 Build 0)  -->
<svg version="1.1" xmlns="http://www.w3.org/2000/svg" xmlns:xlink="http://www.w3.org/1999/xlink" x="0px" y="0px"
	 viewBox="0 0 3710 3710" style="enable-background:new 0 0 3710 3710;" xml:space="preserve">
<g id="Background">
	<g>
		<g>
			<rect style="fill:#FFFFFF;" width="3710" height="3710"/>
		</g>
	</g>
</g>
<g id="Illustration">
	<g>
		<path style="fill:#F4F7FA;" d="M1622.777,3112.896C925.619,3007.317,359.059,2348.169,461.991,1615.541
			c87.812-624.814,635.608-1111.056,1292.521-1156.972c47.567-3.334,95.682-4.365,144.244-2.956
			c366.468,10.585,692.073,157.166,932.891,378.979c239.685,220.747,395.406,516.005,423.76,825.765
			C3330.912,2484.508,2489.889,3244.217,1622.777,3112.896z"/>
		<g>
			<g>
				
					<linearGradient id="SVGID_1_" gradientUnits="userSpaceOnUse" x1="-566.6431" y1="1873.7201" x2="-886.3055" y2="4348.5112" gradientTransform="matrix(-0.996 -0.0892 -0.0892 0.996 509.2159 18.7124)">
					<stop  offset="0" style="stop-color:#FFC444"/>
					<stop  offset="0.9964" style="stop-color:#F36F56"/>
				</linearGradient>
				<path style="fill:url(#SVGID_1_);" d="M997.049,2987.211c40.795,0.414,93.627-6.201,146.281-34.266
					c56.969-30.364,133.539-96.394,119.323-143.594c-5.307-17.622-23.669-33.948-41.08-34.109
					c-25.722-0.237-31.873,34.971-79.677,69.585c-8.834,6.397-54.511,39.47-74.464,25.161c-9.92-7.114-11.484-24.506-8.611-37.365
					c8.401-37.598,55.376-39.28,103.721-76.467c49.014-37.702,93.279-107.165,76.116-158.343
					c-9.862-29.411-40.653-54.698-62.771-50.346c-9.452,1.86-15.967,8.866-49.348,66.786c-27.398,47.539-33.799,61.539-49.02,64.916
					c-15.668,3.476-38.81-4.719-46.467-20.534c-19.945-41.189,86.556-89.829,105.556-198.4
					c8.514-48.654,1.759-122.501-41.241-142.051c-29.069-13.216-73.266-0.965-91.188,25.183
					c-16.157,23.572-0.902,43.763-16.526,98.569c-4.741,16.631-14.497,50.855-28.669,51.427
					c-16.638,0.672-31.063-45.372-34.347-56.565c-24.727-84.267,15.734-122.837-10.916-165.056
					c-20.782-32.921-70.897-49.885-112.869-37.955c-36.728,10.439-68.307,43.311-73.491,79.844
					c-5.275,37.17,22.804,77.158,78.961,157.133c26.631,37.926,48.199,63.87,43.712,98.794
					c-2.187,17.025-11.113,40.448-23.546,41.547c-27.44,2.426-30.994-107.515-93.496-130.042
					c-31.992-11.531-74.217,1.719-94.752,29.648c-25.16,34.22-15.068,86.82,10.055,116.254
					c32.778,38.403,72.019,14.963,136.238,58.812c28.489,19.452,72.427,59.338,62.884,88.213
					c-4.154,12.572-18.74,23.942-33.662,24.296c-33.447,0.793-39.523-54.449-90.618-83.07c-36.812-20.62-90.01-23.511-104.544-3.011
					c-20.518,28.942,36.435,103.92,67.273,137.559C723.144,2890.428,812.594,2969.222,997.049,2987.211z"/>
				<g style="opacity:0.5;">
					<path style="fill:#FFFFFF;" d="M982.435,2968.49c13.53-90.605-30.114-281.361-66.105-372.877
						c-35.069-89.176-63.86-227.965-64.147-229.356l-6.732,1.387c0.287,1.397,29.194,140.754,64.482,230.483
						c35.716,90.82,79.067,279.853,65.703,369.347L982.435,2968.49z"/>
				</g>
			</g>
			
				<linearGradient id="SVGID_00000068666276103839980910000004040071766475027359_" gradientUnits="userSpaceOnUse" x1="-608.2893" y1="2554.2346" x2="-1008.5972" y2="3034.1213" gradientTransform="matrix(-0.996 -0.0892 -0.0892 0.996 509.2159 18.7124)">
				<stop  offset="0.0036" style="stop-color:#E38DDD"/>
				<stop  offset="1" style="stop-color:#9571F6"/>
			</linearGradient>
			<path style="fill:url(#SVGID_00000068666276103839980910000004040071766475027359_);" d="M1091.468,3007.596
				c34.294-39.616,85.881-112.017,103.059-213.524c7.079-41.826,20.904-123.519-23.07-198.994
				c-21.917-37.618-70.43-94.694-107.726-82.823c-23.998,7.639-41.663,43.286-37.651,71.956
				c4.045,28.908,27.744,33.675,49.505,84.066c8.052,18.646,17.201,40.507,7.68,51.542c-7.951,9.215-27.534,9.268-41.566,2.058
				c-28.987-14.895-16.234-51.502-46.346-81.275c-21.412-21.171-59.154-33.602-77.189-19.447
				c-15.659,12.29-15.985,44.248-5.118,66.543c17.402,35.701,54.936,29.047,75.509,68.216c9.127,17.377,14.439,42.865,4.285,51.845
				c-11.571,10.232-41.81-2.221-60.638-16.364c-24.859-18.673-24.276-36.12-41.415-39.849c-19.117-4.159-44.938,12.089-50.542,32.12
				c-7.849,28.056,24.397,61.961,50.917,77.812c33.951,20.292,61.216,12.609,76.452,37.543c5.592,9.151,10.164,23.679,4.187,31.712
				c-8.527,11.46-35.064,5.048-52.683,0.79c-42.881-10.361-53.435-27.194-69.694-20.931c-16.461,6.341-26.939,31.8-21.766,50.78
				c2.875,10.549,12.842,27.381,68.364,42.335C934.885,3014.172,1000.783,3024.989,1091.468,3007.596z"/>
		</g>
		<g>
			<g>
				
					<linearGradient id="SVGID_00000099641643957140844890000004302628874427954347_" gradientUnits="userSpaceOnUse" x1="2559.3828" y1="2808.8191" x2="2561.5435" y2="2949.2678" gradientTransform="matrix(-1 0 0 1 4283.5015 0)">
					<stop  offset="0" style="stop-color:#444B8C"/>
					<stop  offset="0.9964" style="stop-color:#26264F"/>
				</linearGradient>
				<path style="fill:url(#SVGID_00000099641643957140844890000004302628874427954347_);" d="M2863.566,3025.901l-1425.55-98.445
					c-1.715-0.162-3.44-0.167-5.156-0.017L583.89,2965.9c-20.308,1.846-19.385,55.021,3.666,57.924l1333.948,178.617
					c5.461,0.674,10.984,0.658,16.44-0.047l922.997-129.693C2873.259,3070.555,2877.759,3026.939,2863.566,3025.901z"/>
				
					<linearGradient id="SVGID_00000172412649157409750040000005171114457251611834_" gradientUnits="userSpaceOnUse" x1="2534.9983" y1="3087.5359" x2="2759.2966" y2="2408.4099" gradientTransform="matrix(-1 0 0 1 4283.5015 0)">
					<stop  offset="0" style="stop-color:#444B8C"/>
					<stop  offset="0.9964" style="stop-color:#26264F"/>
				</linearGradient>
				<path style="fill:url(#SVGID_00000172412649157409750040000005171114457251611834_);" d="M2860.752,3024.331l-1422.736-134.258
					c-1.715-0.162-3.44-0.167-5.156-0.017l-844.85,74.173c-15.513,1.362-15.909,23.899-0.455,25.806l1333.948,164.615
					c5.461,0.674,10.984,0.658,16.44-0.047l922.997-119.286C2867.479,3034.473,2867.315,3024.951,2860.752,3024.331z"/>
				
					<linearGradient id="SVGID_00000090987582882357414820000015748862076582794943_" gradientUnits="userSpaceOnUse" x1="1540.6926" y1="3022.5564" x2="3625.4285" y2="3022.5564" gradientTransform="matrix(-1 0 0 1 4283.5015 0)">
					<stop  offset="0" style="stop-color:#FF9085"/>
					<stop  offset="1" style="stop-color:#FB6FBB"/>
				</linearGradient>
				<path style="fill:url(#SVGID_00000090987582882357414820000015748862076582794943_);" d="M1907.399,3138.573
					c1.973,0,3.966-0.128,5.924-0.381l827.264-106.913c3.015-0.39,2.939-4.78-0.087-5.066l-1270.362-119.632
					c-0.284-0.027-0.569-0.041-0.851-0.041c-0.262,0-0.522,0.011-0.784,0.034l-807.568,70.9c-3.748,0.329-3.844,5.774-0.11,6.235
					l1240.914,154.516C1903.609,3138.455,1905.513,3138.573,1907.399,3138.573z"/>
				
					<linearGradient id="SVGID_00000168097854748723744670000015042984809517513373_" gradientUnits="userSpaceOnUse" x1="2317.6013" y1="2788.7429" x2="2351.5242" y2="2788.7429" gradientTransform="matrix(-0.9927 0.1207 0.1207 0.9927 4375.7886 34.9268)">
					<stop  offset="0" style="stop-color:#FF9085"/>
					<stop  offset="1" style="stop-color:#FB6FBB"/>
				</linearGradient>
				<path style="fill:url(#SVGID_00000168097854748723744670000015042984809517513373_);" d="M2378.032,3087.141
					c0.3,2.467,8.081,3.551,17.381,2.42c9.299-1.13,16.595-4.047,16.295-6.514s-8.082-3.551-17.381-2.42
					C2385.027,3081.757,2377.732,3084.673,2378.032,3087.141z"/>
				<g>
					
						<linearGradient id="SVGID_00000134213510465172629480000003993532844461488789_" gradientUnits="userSpaceOnUse" x1="2512.5627" y1="3153.8074" x2="2514.8706" y2="3213.3464" gradientTransform="matrix(-1 0 0 1 4283.5015 0)">
						<stop  offset="0" style="stop-color:#444B8C"/>
						<stop  offset="0.9964" style="stop-color:#26264F"/>
					</linearGradient>
					<path style="fill:url(#SVGID_00000134213510465172629480000003993532844461488789_);" d="M1705.299,3163.306l128.051,16.822
						c9.355,1.229,17.015-3.344,17.015-10.226l0,0c0-6.882-7.66-13.356-17.015-14.449l-128.051-14.959
						c-7.911-0.924-14.267,3.394-14.267,9.636l0,0C1691.032,3156.372,1697.387,3162.267,1705.299,3163.306z"/>
					
						<linearGradient id="SVGID_00000106841720000646267110000017555919837531871662_" gradientUnits="userSpaceOnUse" x1="2664.5825" y1="3147.915" x2="2666.8901" y2="3207.4534" gradientTransform="matrix(-1 0 0 1 4283.5015 0)">
						<stop  offset="0" style="stop-color:#444B8C"/>
						<stop  offset="0.9964" style="stop-color:#26264F"/>
					</linearGradient>
					<path style="fill:url(#SVGID_00000106841720000646267110000017555919837531871662_);" d="M1565.427,3144.931l105.45,13.853
						c7.644,1.004,13.897-3.214,13.897-9.431l0,0c0-6.217-6.253-11.987-13.897-12.88l-105.45-12.319
						c-6.565-0.767-11.844,3.229-11.844,8.918l0,0C1553.583,3138.762,1558.861,3144.069,1565.427,3144.931z"/>
					
						<linearGradient id="SVGID_00000054974625031006731480000000891101215066831017_" gradientUnits="userSpaceOnUse" x1="2854.9011" y1="3140.5386" x2="2857.209" y2="3200.0779" gradientTransform="matrix(-1 0 0 1 4283.5015 0)">
						<stop  offset="0" style="stop-color:#444B8C"/>
						<stop  offset="0.9964" style="stop-color:#26264F"/>
					</linearGradient>
					<path style="fill:url(#SVGID_00000054974625031006731480000000891101215066831017_);" d="M1388.693,3121.713l80.226,10.54
						c5.759,0.756,10.464-2.996,10.464-8.387l0,0c0-5.392-4.705-10.312-10.464-10.985l-80.226-9.372
						c-5.044-0.589-9.102,2.982-9.102,7.973l0,0C1379.59,3116.472,1383.649,3121.05,1388.693,3121.713z"/>
				</g>
				<path style="opacity:0.6;fill:#FFFFFF;" d="M1240.216,2972.904c123.973,22.072,206.309,67.015,384.216,70.612
					c154.112,3.117,155.255-32.395,334.371-43.614c234.658-14.697,295.821,42.299,535.825,37.383
					c62.583-1.282,144.5-6.931,241.42-24.722l124.705,11.768c6.563,0.62,6.728,10.141,0.189,10.986l-922.997,119.286
					c-5.456,0.705-10.98,0.721-16.44,0.047L792.425,3015.317C986.162,2950.72,1134.508,2954.083,1240.216,2972.904z"/>
			</g>
			<g>
				<path style="fill:#FFFFFF;" d="M1534.068,3037.027c-81.118,0-163.232-14.362-163.232-41.811
					c0-27.448,82.115-41.81,163.232-41.81c81.118,0,163.232,14.362,163.232,41.81
					C1697.3,3022.666,1615.186,3037.027,1534.068,3037.027z M1534.068,2963.717c-108.918,0-152.922,22.229-152.922,31.5
					s44.004,31.5,152.922,31.5s152.922-22.23,152.922-31.5S1642.986,2963.717,1534.068,2963.717z"/>
				<ellipse style="opacity:0.6;fill:#FFFFFF;" cx="1534.067" cy="2995.217" rx="71.853" ry="16.661"/>
				<defs>
					
						<filter id="Adobe_OpacityMaskFilter" filterUnits="userSpaceOnUse" x="635.969" y="1238.386" width="1912.523" height="1783.488">
						<feColorMatrix  type="matrix" values="1 0 0 0 0  0 1 0 0 0  0 0 1 0 0  0 0 0 1 0"/>
					</filter>
				</defs>
				
					<mask maskUnits="userSpaceOnUse" x="635.969" y="1238.386" width="1912.523" height="1783.488" id="SVGID_00000031921211022133876300000008880535152212230319_">
					<g style="filter:url(#Adobe_OpacityMaskFilter);">
						
							<linearGradient id="SVGID_00000170987604890337260870000011546996508697075625_" gradientUnits="userSpaceOnUse" x1="1649.9209" y1="2914.9116" x2="1590.0538" y2="1498.0536">
							<stop  offset="0" style="stop-color:#FFFFFF"/>
							<stop  offset="1" style="stop-color:#000000"/>
						</linearGradient>
						<path style="fill:url(#SVGID_00000170987604890337260870000011546996508697075625_);" d="M2548.491,1524.587
							l-850.167,1390.057l-7.766,12.682l-10.31,16.875l-18.079,29.557l-13.128,21.445c0,14.298-48.322,25.914-109.05,26.635
							c-1.958,0.035-3.918,0.035-5.912,0.035c-63.512,0-114.961-11.927-114.961-26.671l-12.029-21.824l-24.093-43.682l-8.213-14.915
							l-10.31-18.696l-50.591-91.797l-87.157-158.06l-98.191-178.129l-9.794-17.803l-108.502-196.86l-68.976-125.102
							l-305.293-553.808c70.661-54.13,235.56-171.326,475.931-251.954c35.709-11.995,73.066-23.165,112.074-33.2
							c9.005-2.338,18.112-4.605,27.323-6.805c6.907-1.65,13.85-3.266,20.828-4.811c5.498-1.272,11.066-2.475,16.634-3.678
							c0.033,0,0.033,0,0.069,0c83.137-17.802,172.838-30.141,268.554-34.195c11.512-0.515,23.13-0.895,34.848-1.134
							c182.771-3.85,345.574,23.507,483.974,63.581c4.674,1.306,9.313,2.68,13.885,4.056c1.339,0.411,2.68,0.79,3.987,1.202
							c14.742,4.434,29.213,9.04,43.372,13.747c38.733,12.854,75.266,26.567,109.497,40.658
							C2391.361,1421.413,2494.774,1487.676,2548.491,1524.587z"/>
					</g>
				</mask>
				
					<linearGradient id="SVGID_00000067920860445923947520000014789697451891587212_" gradientUnits="userSpaceOnUse" x1="635.9685" y1="2130.1294" x2="2548.4915" y2="2130.1294">
					<stop  offset="0.0036" style="stop-color:#E38DDD"/>
					<stop  offset="1" style="stop-color:#9571F6"/>
				</linearGradient>
				
					<path style="opacity:0.29;mask:url(#SVGID_00000031921211022133876300000008880535152212230319_);fill:url(#SVGID_00000067920860445923947520000014789697451891587212_);" d="
					M2548.491,1524.587l-850.167,1390.057l-7.766,12.682l-10.31,16.875l-18.079,29.557l-13.128,21.445
					c0,14.298-48.322,25.914-109.05,26.635c-1.958,0.035-3.918,0.035-5.912,0.035c-63.512,0-114.961-11.927-114.961-26.671
					l-12.029-21.824l-24.093-43.682l-8.213-14.915l-10.31-18.696l-50.591-91.797l-87.157-158.06l-98.191-178.129l-9.794-17.803
					l-108.502-196.86l-68.976-125.102l-305.293-553.808c70.661-54.13,235.56-171.326,475.931-251.954
					c35.709-11.995,73.066-23.165,112.074-33.2c9.005-2.338,18.112-4.605,27.323-6.805c6.907-1.65,13.85-3.266,20.828-4.811
					c5.498-1.272,11.066-2.475,16.634-3.678c0.033,0,0.033,0,0.069,0c83.137-17.802,172.838-30.141,268.554-34.195
					c11.512-0.515,23.13-0.895,34.848-1.134c182.771-3.85,345.574,23.507,483.974,63.581c4.674,1.306,9.313,2.68,13.885,4.056
					c1.339,0.411,2.68,0.79,3.987,1.202c14.742,4.434,29.213,9.04,43.372,13.747c38.733,12.854,75.266,26.567,109.497,40.658
					C2391.361,1421.413,2494.774,1487.676,2548.491,1524.587z"/>
			</g>
		</g>
		<g>
			<path style="fill:#D8DEE8;" d="M1661.979,2077.98h-211.751c-18.716,0-33.889-15.173-33.889-33.889v-165.163
				c0-18.716,15.173-33.889,33.889-33.889h211.751c18.716,0,33.889,15.173,33.889,33.889v165.163
				C1695.868,2062.808,1680.696,2077.98,1661.979,2077.98z"/>
			<g>
				<ellipse style="fill:#FFFFFF;" cx="1547.691" cy="1522.328" rx="531.045" ry="407.248"/>
				
					<linearGradient id="SVGID_00000124132477159281613130000010188737801599325056_" gradientUnits="userSpaceOnUse" x1="1947.6755" y1="736.8121" x2="1243.8068" y2="2205.0974">
					<stop  offset="0" style="stop-color:#AA80F9"/>
					<stop  offset="0.9964" style="stop-color:#6165D7"/>
				</linearGradient>
				<path style="fill:url(#SVGID_00000124132477159281613130000010188737801599325056_);" d="M1918.812,1742.082h-725.418
					c-28.053,0-50.795-22.742-50.795-50.795v-281.639c0-12.674,10.274-22.948,22.948-22.948h781.111
					c12.674,0,22.948,10.274,22.948,22.948v281.639C1969.607,1719.34,1946.866,1742.082,1918.812,1742.082z"/>
				
					<linearGradient id="SVGID_00000053515922623267792830000014337692011894474113_" gradientUnits="userSpaceOnUse" x1="2037.8905" y1="635.3369" x2="1259.4225" y2="2259.2375">
					<stop  offset="0" style="stop-color:#AA80F9"/>
					<stop  offset="0.9964" style="stop-color:#6165D7"/>
				</linearGradient>
				<path style="fill:url(#SVGID_00000053515922623267792830000014337692011894474113_);" d="M1702.377,1828.068h-309.371
					c-27.345,0-49.512-22.167-49.512-49.512V1537.25c0-27.345,22.168-49.512,49.512-49.512h309.371
					c27.345,0,49.512,22.167,49.512,49.512v241.306C1751.889,1805.901,1729.722,1828.068,1702.377,1828.068z"/>
				
					<linearGradient id="SVGID_00000121279895970050787640000000243899175056418479_" gradientUnits="userSpaceOnUse" x1="1174.8724" y1="1538.1016" x2="1932.0767" y2="1538.1016">
					<stop  offset="0" style="stop-color:#444B8C"/>
					<stop  offset="0.9964" style="stop-color:#26264F"/>
				</linearGradient>
				<path style="fill:url(#SVGID_00000121279895970050787640000000243899175056418479_);" d="M1895.958,1662.233H1210.99
					c-19.948,0-36.118-16.171-36.118-36.118v-189.198c0-12.674,10.274-22.948,22.948-22.948h711.308
					c12.674,0,22.948,10.274,22.948,22.948v189.198C1932.077,1646.063,1915.906,1662.233,1895.958,1662.233z"/>
				<path style="fill:#D8DEE8;" d="M1471.586,1574.201c4.837-6.906,7.833-14.672,7.833-23.057c0-27.14-28.759-49.143-64.234-49.143
					s-64.234,22.002-64.234,49.143c0,8.385,2.996,16.151,7.833,23.057H1471.586z"/>
				<path style="fill:#D8DEE8;" d="M1795.114,1574.201c4.837-6.906,7.841-14.672,7.841-23.057c0-27.14-28.759-49.143-64.242-49.143
					c-35.475,0-64.234,22.002-64.234,49.143c0,8.385,2.996,16.151,7.833,23.057H1795.114z"/>
				
					<linearGradient id="SVGID_00000182503220639999374810000003975439489077596043_" gradientUnits="userSpaceOnUse" x1="981.3063" y1="1463.1315" x2="1050.53" y2="1463.1315">
					<stop  offset="0" style="stop-color:#AA80F9"/>
					<stop  offset="0.9964" style="stop-color:#6165D7"/>
				</linearGradient>
				<path style="fill:url(#SVGID_00000182503220639999374810000003975439489077596043_);" d="M1040.459,1548.013h-49.082
					c-5.562,0-10.071-4.509-10.071-10.071v-149.622c0-5.562,4.509-10.071,10.071-10.071h49.082c5.562,0,10.071,4.509,10.071,10.071
					v149.622C1050.53,1543.504,1046.021,1548.013,1040.459,1548.013z"/>
				
					<linearGradient id="SVGID_00000051362348437165280330000013731107835107418025_" gradientUnits="userSpaceOnUse" x1="2044.1237" y1="1463.1315" x2="2113.3474" y2="1463.1315">
					<stop  offset="0" style="stop-color:#AA80F9"/>
					<stop  offset="0.9964" style="stop-color:#6165D7"/>
				</linearGradient>
				<path style="fill:url(#SVGID_00000051362348437165280330000013731107835107418025_);" d="M2103.277,1548.013h-49.082
					c-5.562,0-10.071-4.509-10.071-10.071v-149.622c0-5.562,4.509-10.071,10.071-10.071h49.082c5.562,0,10.071,4.509,10.071,10.071
					v149.622C2113.347,1543.504,2108.838,1548.013,2103.277,1548.013z"/>
			</g>
			<path style="fill:#FFFFFF;" d="M1914.874,2088.998v246.626c0,37.496-14.262,71.657-37.667,97.365
				c-26.464,29.11-64.647,47.394-107.092,47.394h-421.904c-79.941,0-144.759-64.818-144.759-144.759v-246.626
				c0-43.476,19.178-82.484,49.525-109.016c25.432-22.236,58.768-35.743,95.234-35.743h421.904
				C1850.056,1944.239,1914.874,2009.057,1914.874,2088.998z"/>
			<g>
				
					<linearGradient id="SVGID_00000155113046006433211230000003804855289174964112_" gradientUnits="userSpaceOnUse" x1="1631.3361" y1="2150.4485" x2="1875.3503" y2="2150.4485">
					<stop  offset="0" style="stop-color:#AA80F9"/>
					<stop  offset="0.9964" style="stop-color:#6165D7"/>
				</linearGradient>
				
					<circle style="fill:url(#SVGID_00000155113046006433211230000003804855289174964112_);" cx="1753.343" cy="2150.448" r="122.007"/>
				<g>
					<path style="fill:#FFFFFF;" d="M1777.401,2196.846c0,14.236-11.54,25.776-25.776,25.776l0,0
						c-14.236,0-25.776-11.54-25.776-25.776v-89.357c0-14.236,11.54-25.776,25.776-25.776l0,0c14.236,0,25.776,11.541,25.776,25.776
						V2196.846z"/>
					<path style="fill:#FFFFFF;" d="M1822.08,2152.167c0,14.236-11.54,25.776-25.776,25.776h-89.357
						c-14.236,0-25.776-11.541-25.776-25.776l0,0c0-14.236,11.54-25.776,25.776-25.776h89.357
						C1810.539,2126.391,1822.08,2137.931,1822.08,2152.167L1822.08,2152.167z"/>
				</g>
			</g>
			<path style="opacity:0.3;fill:#D8DEE8;" d="M1877.206,2432.99c-26.464,29.11-64.647,47.394-107.092,47.394h-421.904
				c-79.941,0-144.759-64.818-144.759-144.759v-246.626c0-43.476,19.178-82.484,49.525-109.016
				c-12.819,91.66-3.472,225.971,147.508,265.563C1571.947,2290.499,1852.289,2324.558,1877.206,2432.99z"/>
		</g>
		<g>
			<g>
				
					<linearGradient id="SVGID_00000156568334187313592430000018006341798732182404_" gradientUnits="userSpaceOnUse" x1="3182.938" y1="1379.7314" x2="3038.5977" y2="817.098" gradientTransform="matrix(0.9934 0.1149 -0.1149 0.9934 -470.7327 -393.1724)">
					<stop  offset="0" style="stop-color:#444B8C"/>
					<stop  offset="0.9964" style="stop-color:#26264F"/>
				</linearGradient>
				<path style="fill:url(#SVGID_00000156568334187313592430000018006341798732182404_);" d="M2956.505,1034.893
					c0.08-1.043,0.137-2.085,0.204-3.127c0.156-2.424,0.285-4.846,0.374-7.265c0.044-1.135,0.082-2.269,0.111-3.402
					c0.062-2.562,0.08-5.121,0.069-7.676c-0.003-0.853,0.009-1.708-0.001-2.56c-0.048-3.373-0.158-6.74-0.334-10.099
					c-0.037-0.715-0.1-1.427-0.143-2.141c-0.16-2.671-0.358-5.337-0.599-7.997c-0.099-1.093-0.212-2.184-0.325-3.276
					c-0.246-2.375-0.524-4.744-0.832-7.11c-0.135-1.046-0.266-2.093-0.415-3.138c-0.422-2.975-0.889-5.942-1.411-8.901
					c-0.062-0.35-0.11-0.702-0.173-1.053c-0.597-3.323-1.27-6.634-1.991-9.937c-0.198-0.902-0.417-1.801-0.621-2.702
					c-0.557-2.429-1.141-4.853-1.763-7.27c-0.269-1.051-0.545-2.101-0.828-3.151c-0.661-2.449-1.358-4.89-2.084-7.324
					c-0.251-0.838-0.486-1.677-0.743-2.513c-1.008-3.264-2.063-6.516-3.187-9.752c-0.121-0.346-0.253-0.687-0.376-1.033
					c-1.01-2.875-2.071-5.738-3.174-8.59c-0.358-0.923-0.727-1.842-1.094-2.763c-0.938-2.353-1.904-4.697-2.902-7.032
					c-0.395-0.925-0.787-1.85-1.193-2.771c-1.193-2.718-2.428-5.425-3.706-8.12c-0.202-0.428-0.391-0.859-0.596-1.286
					c-1.521-3.171-3.104-6.323-4.737-9.459c-0.325-0.626-0.668-1.245-1-1.87c-1.313-2.483-2.663-4.957-4.046-7.417
					c-0.49-0.869-0.985-1.736-1.484-2.602c-1.356-2.358-2.744-4.703-4.164-7.038c-0.438-0.721-0.867-1.445-1.311-2.164
					c-3.761-6.083-7.739-12.085-11.924-18.001c-0.493-0.696-1-1.387-1.497-2.081c-1.648-2.295-3.328-4.578-5.037-6.846
					c-0.563-0.746-1.126-1.492-1.694-2.234c-1.919-2.503-3.873-4.989-5.868-7.458c-0.302-0.374-0.593-0.751-0.897-1.123
					c-2.383-2.929-4.818-5.832-7.309-8.71c-0.25-0.292-0.513-0.578-0.766-0.87c-2.174-2.5-4.391-4.979-6.643-7.438
					c-0.602-0.657-1.21-1.31-1.819-1.964c-2.043-2.204-4.121-4.39-6.226-6.56c-0.559-0.575-1.109-1.152-1.673-1.724
					c-5.359-5.455-10.909-10.801-16.646-16.031c-0.486-0.441-0.978-0.876-1.466-1.315c-2.389-2.157-4.809-4.293-7.262-6.41
					c-0.666-0.575-1.331-1.148-2.003-1.72c-2.546-2.172-5.125-4.321-7.74-6.448c-0.415-0.337-0.821-0.68-1.238-1.016
					c-6.175-4.99-12.533-9.848-19.062-14.579c-0.653-0.475-1.316-0.944-1.973-1.416c-2.663-1.91-5.357-3.798-8.078-5.663
					c-0.674-0.462-1.344-0.927-2.02-1.385c-67.537-45.8-151.951-77.804-245.647-88.646
					c-247.101-28.592-465.063,100.742-486.831,288.876c-7.486,64.699,9.204,127.925,44.38,184.204l-56.426,109.758
					c-5.328,10.363,2.707,22.57,14.333,21.77c14.698-1.013,34.297-2.349,55.585-3.761c0.475-0.031,0.952-0.063,1.429-0.094
					c2.552-0.169,5.137-0.339,7.728-0.51c1.309-0.086,2.615-0.172,3.931-0.258c2.114-0.139,4.243-0.277,6.375-0.416
					c1.217-0.079,2.427-0.158,3.646-0.238c3.212-0.208,6.436-0.417,9.661-0.624c1.269-0.082,2.538-0.162,3.807-0.243
					c2.035-0.13,4.07-0.26,6.1-0.389c1.508-0.096,3.01-0.19,4.514-0.285c1.974-0.125,3.94-0.248,5.903-0.371
					c1.407-0.088,2.816-0.176,4.214-0.263c2.297-0.143,4.574-0.283,6.845-0.422c0.984-0.061,1.982-0.123,2.959-0.183
					c3.063-0.187,6.081-0.369,9.069-0.549c1.325-0.079,2.62-0.156,3.93-0.233c1.94-0.115,3.869-0.229,5.767-0.34
					c1.177-0.069,2.34-0.136,3.499-0.203c2.022-0.117,4.01-0.231,5.973-0.342c1.015-0.057,2.04-0.116,3.037-0.172
					c2.881-0.161,5.712-0.318,8.433-0.464c67.137,44.952,150.697,76.331,243.306,87.047
					c247.101,28.592,465.064-100.742,486.833-288.876C2955.935,1041.715,2956.243,1038.302,2956.505,1034.893z"/>
				<g>
					<g>
						
							<linearGradient id="SVGID_00000181795002863202950570000004659532867832509879_" gradientUnits="userSpaceOnUse" x1="-1824.3046" y1="1034.4048" x2="-923.5208" y2="1034.4048" gradientTransform="matrix(-0.9934 -0.1149 -0.1149 0.9934 1287.5042 -189.1404)">
							<stop  offset="0" style="stop-color:#AA80F9"/>
							<stop  offset="0.9964" style="stop-color:#6165D7"/>
						</linearGradient>
						<path style="fill:url(#SVGID_00000181795002863202950570000004659532867832509879_);" d="M2130.461,1128.734
							c-35.177-56.279-51.868-119.505-44.382-184.204c21.769-188.134,239.732-317.468,486.833-288.876
							c247.101,28.592,429.77,204.283,408.001,392.417s-239.732,317.468-486.833,288.876
							c-92.611-10.716-176.169-42.095-243.307-87.047c-48.115,2.59-122.922,7.64-162.405,10.361
							c-11.625,0.801-19.662-11.407-14.333-21.77L2130.461,1128.734z"/>
						<g style="opacity:0.3;">
							
								<linearGradient id="SVGID_00000098903280495282062210000014956404650298945692_" gradientUnits="userSpaceOnUse" x1="-1705.4017" y1="797.4507" x2="-923.7241" y2="1826.9036" gradientTransform="matrix(-0.9934 -0.1149 -0.1149 0.9934 1287.5042 -189.1404)">
								<stop  offset="0" style="stop-color:#AA80F9"/>
								<stop  offset="0.9964" style="stop-color:#6165D7"/>
							</linearGradient>
							<path style="fill:url(#SVGID_00000098903280495282062210000014956404650298945692_);" d="M2280.316,1040.057
								c105.204-30.558,205.229,71.216,281.387,17.103c76.771-54.549,15.98-186.993,92.775-267.479
								c36.616-38.376,92.261-52.099,154.091-51.991c116.615,74.92,186.261,190.104,172.344,310.38
								c-21.769,188.134-239.732,317.468-486.833,288.876c-92.611-10.716-176.169-42.095-243.307-87.047
								c-37.964,2.044-92.532,5.618-133.268,8.372C2164.574,1109.145,2225.567,1055.96,2280.316,1040.057z"/>
						</g>
					</g>
				</g>
			</g>
			<g>
				<g>
					<path style="fill:#FFFFFF;" d="M2528.281,824.914l-118.499,42.668c36.317,41.184,59.484,90.868,71.051,144.332l101.607-36.586
						c41.364-14.894,63.021-60.923,48.127-102.287l0,0C2615.675,831.677,2569.645,810.02,2528.281,824.914z"/>
					<path style="opacity:0.49;fill:#D8DEE8;" d="M2538.743,924.344c-12.69,18.694-36.26,21.884-53.141,19.135
						c-38.575-9.063-88.217-19.438-114.412,5.884c-31.205,30.586-66.323,50.306-110.234,50.454c0.528,1.897,1.103,3.789,1.781,5.67
						c14.894,41.364,60.924,63.021,102.287,48.127l217.417-78.286c41.364-14.894,63.021-60.923,48.127-102.287
						c-2.762-7.671-6.599-14.66-11.274-20.868C2587.853,868.979,2560.407,892.756,2538.743,924.344z"/>
					
						<linearGradient id="SVGID_00000067940083589660192740000003362449021212899731_" gradientUnits="userSpaceOnUse" x1="2181.3923" y1="675.2467" x2="2522.8362" y2="1007.0454" gradientTransform="matrix(0.9409 -0.3388 0.3388 0.9409 -86.0092 989.5967)">
						<stop  offset="0" style="stop-color:#FF9085"/>
						<stop  offset="1" style="stop-color:#FB6FBB"/>
					</linearGradient>
					<path style="fill:url(#SVGID_00000067940083589660192740000003362449021212899731_);" d="M2409.783,867.582l-98.918,35.618
						c-41.364,14.894-63.021,60.923-48.127,102.287l0,0c14.894,41.364,60.924,63.021,102.287,48.127l115.809-41.7
						C2469.267,958.451,2446.1,908.766,2409.783,867.582z"/>
					
						<linearGradient id="SVGID_00000028298339619204775200000007511496425536830374_" gradientUnits="userSpaceOnUse" x1="2204.3794" y1="840.3989" x2="2410.5156" y2="840.3989" gradientTransform="matrix(0.9409 -0.3388 0.3388 0.9409 -86.0092 989.5967)">
						<stop  offset="0" style="stop-color:#FF9085"/>
						<stop  offset="1" style="stop-color:#FB6FBB"/>
					</linearGradient>
					<path style="opacity:0.3;fill:url(#SVGID_00000028298339619204775200000007511496425536830374_);" d="M2455.492,937.079
						c-31.572-5.609-64.582-6.779-84.302,12.284c-31.205,30.586-66.323,50.306-110.234,50.454c0.243,0.874,0.5,1.748,0.769,2.62
						c0.321,1.019,0.646,2.037,1.011,3.05c14.894,41.364,60.924,63.021,102.287,48.127l115.809-41.7
						C2475.203,985.888,2466.799,960.769,2455.492,937.079z"/>
				</g>
				<g>
					<path style="fill:#FFFFFF;" d="M2729.53,996.083l-124.405-19.648c12.006,53.581,8.393,108.282-7.206,160.712l106.671,16.847
						c43.425,6.858,84.567-23.06,91.425-66.486l0,0C2802.874,1044.083,2772.955,1002.942,2729.53,996.083z"/>
					<path style="opacity:0.49;fill:#D8DEE8;" d="M2690.833,1088.27c-20.123,10.276-42.317,1.726-55.789-8.811
						c-29.448-26.514-67.965-59.506-103.114-49.921c-42.075,11.786-82.349,12.165-120.908-8.845
						c-0.451,1.917-0.857,3.852-1.169,5.827c-6.858,43.426,23.06,84.567,66.486,91.425l228.253,36.049
						c43.425,6.858,84.567-23.06,91.425-66.486c1.272-8.053,1.273-16.026,0.164-23.718
						C2760.531,1063.385,2725.029,1071.013,2690.833,1088.27z"/>
					
						<linearGradient id="SVGID_00000176750865751079772290000001928428113123662264_" gradientUnits="userSpaceOnUse" x1="2436.3865" y1="965.9198" x2="2777.8293" y2="1297.7173" gradientTransform="matrix(0.9878 0.156 -0.156 0.9878 152.2883 -445.0218)">
						<stop  offset="0" style="stop-color:#FF9085"/>
						<stop  offset="1" style="stop-color:#FB6FBB"/>
					</linearGradient>
					<path style="fill:url(#SVGID_00000176750865751079772290000001928428113123662264_);" d="M2605.125,976.436l-103.848-16.401
						c-43.425-6.858-84.567,23.06-91.425,66.486l0,0c-6.858,43.426,23.06,84.567,66.486,91.425l121.581,19.202
						C2613.519,1084.718,2617.131,1030.017,2605.125,976.436z"/>
					
						<linearGradient id="SVGID_00000024697995915513038440000008737730273529053878_" gradientUnits="userSpaceOnUse" x1="2459.3735" y1="1131.0714" x2="2665.509" y2="1131.0714" gradientTransform="matrix(0.9878 0.156 -0.156 0.9878 152.2883 -445.0218)">
						<stop  offset="0" style="stop-color:#FF9085"/>
						<stop  offset="1" style="stop-color:#FB6FBB"/>
					</linearGradient>
					<path style="opacity:0.3;fill:url(#SVGID_00000024697995915513038440000008737730273529053878_);" d="M2611.733,1059.354
						c-24.972-20.115-53.342-37.032-79.803-29.816c-42.075,11.786-82.349,12.165-120.908-8.845
						c-0.208,0.884-0.403,1.773-0.587,2.666c-0.209,1.048-0.414,2.096-0.582,3.16c-6.858,43.426,23.06,84.567,66.486,91.425
						l121.581,19.202C2605.513,1111.625,2610.24,1085.562,2611.733,1059.354z"/>
				</g>
			</g>
		</g>
		<g>
			
				<linearGradient id="SVGID_00000034787698529850659920000011828491355058384047_" gradientUnits="userSpaceOnUse" x1="1903.3861" y1="349.4599" x2="1312.328" y2="1551.5435">
				<stop  offset="0" style="stop-color:#311944"/>
				<stop  offset="1" style="stop-color:#893976"/>
			</linearGradient>
			<path style="fill:url(#SVGID_00000034787698529850659920000011828491355058384047_);" d="M1821.223,979.497
				c0-0.005,0-0.011,0-0.016l42.056,0.175c13.726,0.057,23.778-10.175,23.778-22.841V651.146c0-12.666-10.551-23.547-24.277-24.383
				l-350.969-21.358c-15.389-0.937-27.99,9.228-27.99,22.719v325.575c0,12.68,10.937,23.129,25.029,24.391
				c0.946,0.089,2.837,0.138,3.808,0.141L1821.223,979.497z"/>
			<g>
				
					<linearGradient id="SVGID_00000005266092888340657600000017511118825670505387_" gradientUnits="userSpaceOnUse" x1="1922.6309" y1="349.3753" x2="1331.593" y2="1551.4177">
					<stop  offset="0" style="stop-color:#FF9085"/>
					<stop  offset="1" style="stop-color:#FB6FBB"/>
				</linearGradient>
				<path style="fill:url(#SVGID_00000005266092888340657600000017511118825670505387_);" d="M1906.26,651.146v305.669
					c0,12.666-10.409,22.897-24.135,22.841l-350.963-1.435c-15.389-0.063-28.138-11.033-28.138-24.524V628.124
					c0-13.491,13.091-23.656,28.479-22.719l350.767,21.358C1895.995,627.599,1906.26,638.48,1906.26,651.146z"/>
				<g>
					<g>
						<polygon style="opacity:0.7;fill:#FFFFFF;" points="1653.894,869.354 1588.059,867.939 1588.059,769.486 1653.894,771.922 
													"/>
						<polygon style="opacity:0.7;fill:#FFFFFF;" points="1744.416,871.237 1678.582,869.902 1678.582,725.304 1744.416,728.111 
													"/>
						<polygon style="opacity:0.7;fill:#FFFFFF;" points="1832.196,873.144 1769.104,871.792 1769.104,688.193 1832.196,691.4 
													"/>
					</g>
					<polygon style="opacity:0.7;fill:#FFFFFF;" points="1843.168,913.889 1574.344,909.978 1574.344,887.831 1843.168,892.656 
											"/>
				</g>
				
					<linearGradient id="SVGID_00000015339728284132812180000000304992284573568907_" gradientUnits="userSpaceOnUse" x1="1818.3267" y1="502.5578" x2="1373.876" y2="1406.4738">
					<stop  offset="0" style="stop-color:#FF9085"/>
					<stop  offset="1" style="stop-color:#FB6FBB"/>
				</linearGradient>
				<path style="opacity:0.3;fill:url(#SVGID_00000015339728284132812180000000304992284573568907_);" d="M1839.709,979.497
					l-308.207-1.266c-15.388-0.063-28.479-11.042-28.479-24.533V628.124c0-13.491,13.091-23.656,28.479-22.719l51.272,3.105
					c30.272,35.643,47.604,83.642,38.243,137.575c-1.555,9.034-0.266,17.216,3.179,24.757c5.421,11.914,16.383,22.233,30.551,31.885
					c7.373,5.038,15.657,9.893,24.454,14.693c20.252,11.018,43.442,21.771,65.72,33.86c8.098,4.386,16.072,8.974,23.763,13.799
					c3.57,2.246,7.095,4.547,10.528,6.922c8.952,6.167,17.325,12.772,24.846,19.947c6.971,6.664,13.207,13.844,18.436,21.635
					C1834.634,931.638,1841.434,953.092,1839.709,979.497z"/>
			</g>
		</g>
		<g>
			
				<linearGradient id="SVGID_00000093889793043928071210000015314099265109108665_" gradientUnits="userSpaceOnUse" x1="3072.5364" y1="1170.5786" x2="2492.0215" y2="2351.2195">
				<stop  offset="0" style="stop-color:#311944"/>
				<stop  offset="1" style="stop-color:#893976"/>
			</linearGradient>
			<path style="fill:url(#SVGID_00000093889793043928071210000015314099265109108665_);" d="M3018.294,1436.051l-317.313-4.539
				c-13.846-0.198-25.538,10.264-25.538,23.398v316.968c0,13.134,11.56,23.145,25.406,22.557l260.052-11.191h0.069l57.298-2.262
				c12.455-0.529,22.802-10.832,22.802-23.221v-298.958C3041.071,1446.414,3030.749,1436.229,3018.294,1436.051z"/>
			<g>
				
					<linearGradient id="SVGID_00000056422800653558591310000014271912338237582011_" gradientUnits="userSpaceOnUse" x1="2698.1521" y1="1613.0626" x2="3061.5098" y2="1613.0626">
					<stop  offset="0" style="stop-color:#FF9085"/>
					<stop  offset="1" style="stop-color:#FB6FBB"/>
				</linearGradient>
				<path style="fill:url(#SVGID_00000056422800653558591310000014271912338237582011_);" d="M3061.51,1458.802v298.959
					c0,12.388-9.811,22.849-22.266,23.378l-316.438,13.454c-13.846,0.588-24.654-9.581-24.654-22.715v-316.968
					c0-13.134,10.927-23.596,24.773-23.398l316.49,4.539C3051.871,1436.229,3061.51,1446.414,3061.51,1458.802z"/>
				<path style="opacity:0.7;fill:#FFFFFF;" d="M2998.722,1582.023c0-17.861-7.049-34.636-19.867-47.256
					c-12.853-12.655-30.062-19.681-48.44-19.704c-16.997-0.022-33.141,5.927-45.905,16.866
					c-12.656-10.331-28.597-15.976-45.424-15.995c-18.311-0.021-35.653,6.584-49.069,18.688c-0.551,0.489-1.082,0.978-1.612,1.487
					c-27.511,26.379-28.521,68.523-2.307,95.537l66.317,63.043c8.529,8.01,19.858,12.232,31.859,11.878
					c11.935-0.352,23.137-5.204,31.536-13.616l62.931-63.172c0.039-0.057,0.077-0.096,0.115-0.135
					c0.231-0.212,0.441-0.443,0.653-0.655l2.13-2.157l-0.077-0.056C2992.667,1614.323,2998.722,1598.581,2998.722,1582.023z
					 M2955.048,1619.296l-32.818,0.513c-0.959,0.015-1.878-1.959-2.642-2.483l-13.988-10.368l-9.591,14.911l-25.448,39.554
					c-0.855,1.349-2.348,1.768-3.92,1.804c-0.418,0.009-2.169-0.048-2.587-0.154c-1.993-0.515-4.662-2.25-4.662-4.258v-78.434
					l-10.354,18.145l-8.402,14.282c-0.843,1.349-1.739,2.488-3.346,2.512l-58.567,0.863c-2.621,0.039-4.717-2.298-4.717-4.823
					c0-2.525,2.181-4.922,4.802-4.956l56.082-0.738l7.259-11.326l20.545-32.098c1.096-1.705,2.973-2.497,4.945-1.969
					c2.009,0.547,3.108,2.304,3.108,4.309v78.422l16.555-25.525l12.956-20.055c0.669-1.063,1.826-1.807,3.067-2.052
					c1.239-0.264,2.563,1.387,3.585,2.084l16.753,12.775l31.378-0.442c2.495-0.035,4.509,2.235,4.509,4.687
					C2959.551,1616.926,2957.544,1619.257,2955.048,1619.296z"/>
				
					<linearGradient id="SVGID_00000108301032772667239840000015704329438134115212_" gradientUnits="userSpaceOnUse" x1="2988.0906" y1="1316.0151" x2="2549.2786" y2="2208.4636">
					<stop  offset="0" style="stop-color:#FF9085"/>
					<stop  offset="1" style="stop-color:#FB6FBB"/>
				</linearGradient>
				<path style="opacity:0.3;fill:url(#SVGID_00000108301032772667239840000015704329438134115212_);" d="M2982.482,1783.56
					l-259.556,11.032c-13.846,0.588-24.773-9.581-24.773-22.715v-316.968c0-13.134,10.927-23.596,24.773-23.398l56.406,0.817
					c12.075,27.501,17.025,59.797,11.38,95.183c-0.387,2.441-0.634,4.825-0.654,7.109c-0.204,25.89,22.239,43.326,52.119,59.718
					c2.548,1.403,5.143,2.786,7.786,4.186c3.681,1.908,7.452,3.832,11.264,5.771c3.289,1.655,6.612,3.308,9.954,4.978
					c5.402,2.679,10.854,5.41,16.338,8.194c2.846,1.436,5.669,2.91,8.491,4.402c19.7,10.327,39.023,21.737,54.895,35.851
					C2981.734,1685.124,2999.732,1722.874,2982.482,1783.56z"/>
			</g>
		</g>
		<g>
			<g>
				
					<linearGradient id="SVGID_00000140695902232555922900000017935514460236263080_" gradientUnits="userSpaceOnUse" x1="2567.739" y1="2008.3127" x2="2556.283" y2="2039.2441">
					<stop  offset="0" style="stop-color:#444B8C"/>
					<stop  offset="0.9964" style="stop-color:#26264F"/>
				</linearGradient>
				<path style="fill:url(#SVGID_00000140695902232555922900000017935514460236263080_);" d="M2577.993,2140.647l-23.138-86.271
					c-0.925-3.445-3.539-6.182-6.939-7.261l-40.429-12.837c-0.045-0.015-0.055-0.02-0.155-0.049l-0.315-0.1
					c-0.116-0.037-0.235-0.037-0.351-0.06c-0.084-0.017-0.176-0.029-0.269-0.046c-0.087-0.009-0.171-0.034-0.259-0.036
					c-2.074-0.325-5.974-0.31-9.085,3.496c2.313,1.671,4.4,1.584,6.102,0.852l28.916,93.069l41.957,13.056
					c1.093,0.34,2.284,0.059,3.108-0.734C2577.961,2142.931,2578.29,2141.752,2577.993,2140.647z"/>
				
					<linearGradient id="SVGID_00000138547018763893567200000008421061902926830013_" gradientUnits="userSpaceOnUse" x1="2496.6284" y1="2090.446" x2="2571.1997" y2="2090.446">
					<stop  offset="0" style="stop-color:#444B8C"/>
					<stop  offset="0.9964" style="stop-color:#26264F"/>
				</linearGradient>
				<path style="fill:url(#SVGID_00000138547018763893567200000008421061902926830013_);" d="M2571.089,2140.626l-22.782-83.535
					c-0.928-3.402-3.507-6.107-6.86-7.197l-41.437-13.467c-0.918-0.298-1.925-0.06-2.613,0.618
					c-0.686,0.678-0.938,1.682-0.653,2.604l27.355,88.215c0.686,2.215,2.42,3.95,4.635,4.639l38.391,11.947
					c1.096,0.341,2.289,0.057,3.115-0.739C2571.065,2142.915,2571.391,2141.732,2571.089,2140.626z"/>
			</g>
			
				<linearGradient id="SVGID_00000000208394646220177310000008182521640158401962_" gradientUnits="userSpaceOnUse" x1="2453.3547" y1="2175.5149" x2="2785.5225" y2="2175.5149">
				<stop  offset="0" style="stop-color:#FFC444"/>
				<stop  offset="0.9964" style="stop-color:#F36F56"/>
			</linearGradient>
			<path style="fill:url(#SVGID_00000000208394646220177310000008182521640158401962_);" d="M2457.851,2108.862
				c-17.147,15.098,14.221,128.249,103.261,161.978c70.198,26.592,153.981-2.896,194.171-61.271
				c23.172-33.656,44.16-93.754,18.425-122.979c-1.17-1.329-15.709-17.337-36.445-16.198
				c-48.006,2.637-51.105,92.893-102.585,103.936c-12.099,2.595-16.446-1.421-117.519-45.493
				C2468.398,2107.574,2461.948,2105.255,2457.851,2108.862z"/>
			
				<linearGradient id="SVGID_00000011014721030311222970000005002754118040018829_" gradientUnits="userSpaceOnUse" x1="2530.0613" y1="2133.0132" x2="2589.8083" y2="2133.0132">
				<stop  offset="0" style="stop-color:#311944"/>
				<stop  offset="1" style="stop-color:#A03976"/>
			</linearGradient>
			<path style="fill:url(#SVGID_00000011014721030311222970000005002754118040018829_);" d="M2588.921,2153.885
				c0,0,4.296-16.754-6.014-24.487s-14.606-27.924-16.325-20.621c-1.719,7.303,0,15.895,0,15.895s-36.946-32.22-36.516-21.051
				c0.429,11.17,27.065,48.545,44.249,55.849S2588.655,2167.892,2588.921,2153.885z"/>
			
				<linearGradient id="SVGID_00000008835830247398145760000005866278881412700566_" gradientUnits="userSpaceOnUse" x1="2423.8574" y1="2092.8" x2="2468.4675" y2="2092.8">
				<stop  offset="0" style="stop-color:#311944"/>
				<stop  offset="1" style="stop-color:#A03976"/>
			</linearGradient>
			<path style="fill:url(#SVGID_00000008835830247398145760000005866278881412700566_);" d="M2462.474,2110.066
				c0,0-0.573-23.771-12.888-29.213c-12.315-5.442-26.349-32.936-25.49-18.903c0.859,14.034,13.461,20.621,13.461,20.621
				s-20.334,7.322-11.456,18.697c8.878,11.375,18.902,13.666,29.213,18.821c0,0,2.792,8.664,9.881,7.375
				C2472.283,2126.176,2466.198,2113.932,2462.474,2110.066z"/>
			<g>
				
					<linearGradient id="SVGID_00000093898105970959858300000001992251102358350502_" gradientUnits="userSpaceOnUse" x1="2835.478" y1="2109.0957" x2="3097.6797" y2="2318.6543">
					<stop  offset="0" style="stop-color:#311944"/>
					<stop  offset="1" style="stop-color:#893976"/>
				</linearGradient>
				<path style="fill:url(#SVGID_00000093898105970959858300000001992251102358350502_);" d="M2894.481,2405.223
					c68.555,32.842,133.647,23.049,179.188,16.198c51.461-7.743,101.025-15.199,120.471-53.655
					c19.247-38.061,2.049-92.752-28.346-122.496c-35.71-34.946-71.336-17.548-96.174-51.63
					c-25.448-34.919,4.6-63.261-18.223-102.249c-28.725-49.07-90.424-28.259-120.471-77.952
					c-24.652-40.769,5.558-74.078-19.235-100.224c-34.385-36.261-134.681-16.869-150.743,25.847
					c-6.277,16.692,3.24,29.154,10.269,52.614c22.363,74.635-23.379,116.992-27.578,184.753
					C2737.968,2267.967,2809.97,2364.736,2894.481,2405.223z"/>
				
					<linearGradient id="SVGID_00000089571964342343413340000000210483592140361891_" gradientUnits="userSpaceOnUse" x1="2835.7371" y1="3115.408" x2="2954.5212" y2="3255.7893">
					<stop  offset="0" style="stop-color:#444B8C"/>
					<stop  offset="0.9964" style="stop-color:#3E4177"/>
				</linearGradient>
				<path style="fill:url(#SVGID_00000089571964342343413340000000210483592140361891_);" d="M2940.959,3184.102
					c0,0-68.614,8.692-71.237,24.286c-3.046,18.103,76.299,2.2,76.299,2.2S2958.169,3206.602,2940.959,3184.102z"/>
				
					<linearGradient id="SVGID_00000072281791160716673410000013717939048907005607_" gradientUnits="userSpaceOnUse" x1="2923.4597" y1="3130.8389" x2="2930.2087" y2="3226.6758">
					<stop  offset="0" style="stop-color:#311944"/>
					<stop  offset="1" style="stop-color:#893976"/>
				</linearGradient>
				<path style="fill:url(#SVGID_00000072281791160716673410000013717939048907005607_);" d="M2936.589,3147.005l1.673,38.303
					c0,0-8.386,10.632-17.995,2.941l-7.659-41.244H2936.589z"/>
				
					<linearGradient id="SVGID_00000065063100817776897910000011388605760948514977_" gradientUnits="userSpaceOnUse" x1="2761.4468" y1="3178.2698" x2="2880.2307" y2="3318.6501">
					<stop  offset="0" style="stop-color:#444B8C"/>
					<stop  offset="0.9964" style="stop-color:#3E4177"/>
				</linearGradient>
				<path style="fill:url(#SVGID_00000065063100817776897910000011388605760948514977_);" d="M2829.174,3202.651
					c0,0-68.614,8.692-71.237,24.286c-3.046,18.103,76.299,2.2,76.299,2.2S2846.384,3225.151,2829.174,3202.651z"/>
				
					<linearGradient id="SVGID_00000017488777125489676290000003164327273833028797_" gradientUnits="userSpaceOnUse" x1="2810.926" y1="3138.7639" x2="2817.675" y2="3234.6006">
					<stop  offset="0" style="stop-color:#311944"/>
					<stop  offset="1" style="stop-color:#893976"/>
				</linearGradient>
				<path style="fill:url(#SVGID_00000017488777125489676290000003164327273833028797_);" d="M2824.803,3165.554l1.673,38.303
					c0,0-8.387,10.632-17.995,2.941l-7.659-41.244H2824.803z"/>
				
					<linearGradient id="SVGID_00000109751610629538899340000003122190654446630024_" gradientUnits="userSpaceOnUse" x1="2732.2617" y1="2831.9517" x2="2957.5981" y2="2831.9517">
					<stop  offset="0" style="stop-color:#444B8C"/>
					<stop  offset="0.9964" style="stop-color:#3E4177"/>
				</linearGradient>
				<path style="fill:url(#SVGID_00000109751610629538899340000003122190654446630024_);" d="M2732.262,2534.167
					c3.609,55.407,12.487,135.167,36.443,229.139c8.618,33.804,17.283,61.981,36.789,120.54
					c23.292,69.925,56.135,165.439,98.943,280.802c12.414,1.899,24.828,3.798,37.243,5.697
					c25.698-93.665,18.313-167.314-8.073-225.868c-15.628-34.683-24.823-35-40.909-73.721
					c-17.094-41.15-24.079-82.603-19.758-222.561c1.224-39.634,3.512-92.31,8.132-154.635
					C2831.468,2507.095,2781.865,2520.631,2732.262,2534.167z"/>
				
					<linearGradient id="SVGID_00000084490816012936338340000009443129946171469706_" gradientUnits="userSpaceOnUse" x1="2732.2617" y1="2831.9517" x2="2952.2231" y2="2831.9517">
					<stop  offset="0" style="stop-color:#444B8C"/>
					<stop  offset="0.9964" style="stop-color:#3E4177"/>
				</linearGradient>
				<path style="opacity:0.3;fill:url(#SVGID_00000084490816012936338340000009443129946171469706_);" d="M2732.262,2534.167
					c3.609,55.407,12.487,135.167,36.443,229.139c8.618,33.804,17.283,61.981,36.789,120.54
					c23.292,69.925,56.135,165.439,98.943,280.802c12.414,1.899,24.828,3.798,37.243,5.697
					c21.952-87.427,5.875-133.333-14.093-159.26c-12.337-16.018-27.833-26.583-39.145-54.145
					c-13.311-32.432-3.885-47.114-10.798-85.085c-9.319-51.186-31.445-51.949-39.258-91.976
					c-9.215-47.208,16.917-69.934,34.553-131.683c9.813-34.361,18.438-85.858,8.132-154.635
					C2831.468,2507.095,2781.865,2520.631,2732.262,2534.167z"/>
				
					<linearGradient id="SVGID_00000112624525413854611910000002005196028761710722_" gradientUnits="userSpaceOnUse" x1="2696.7114" y1="2843.1401" x2="2959.5911" y2="2843.1401">
					<stop  offset="0" style="stop-color:#444B8C"/>
					<stop  offset="0.9964" style="stop-color:#3E4177"/>
				</linearGradient>
				<path style="fill:url(#SVGID_00000112624525413854611910000002005196028761710722_);" d="M2818.251,2525.389
					c-31.218,39.322-118.941,160.338-121.483,336.473c-2.372,164.282,70.733,281.296,100.04,323.376
					c12.21-1.114,24.419-2.227,36.629-3.34c3.08-34.782,4.648-87.016-6.074-148.899c-15.972-92.18-41.26-102.134-37.457-154.7
					c4.77-65.934,46.452-76.513,111.36-196.276c34.977-64.537,76.757-141.627,49.606-170.17
					C2945.726,2506.444,2920.527,2484.299,2818.251,2525.389z"/>
				
					<linearGradient id="SVGID_00000067216843847152880500000002961416025439976112_" gradientUnits="userSpaceOnUse" x1="2672.6753" y1="2327.8677" x2="3119.4412" y2="2327.8677">
					<stop  offset="0" style="stop-color:#FFC444"/>
					<stop  offset="0.9964" style="stop-color:#F36F56"/>
				</linearGradient>
				<path style="fill:url(#SVGID_00000067216843847152880500000002961416025439976112_);" d="M2786.502,2042.915
					c-43.975,8.002-70.324,38.156-77.586,46.713c-9.026,10.637-35.722,45.333-36.233,134.099
					c-0.489,85.101,23.806,94.948,31.172,175.683c10.863,119.079-34.938,174.967-3.003,201.812
					c27.181,22.848,60.239-17.744,151.829-13.348c75.595,3.628,90.152,33.059,155.137,25.698
					c9.932-1.125,96.697-11.847,110.092-57.246c9.306-31.539-24.937-52.227-71.878-128.57
					c-44.937-73.086-67.038-141.111-78.018-174.906c-33.12-101.943-19.376-129.813-56.811-167.086
					C2906.536,2081.116,2854.168,2030.602,2786.502,2042.915z"/>
				
					<linearGradient id="SVGID_00000093159061821601164880000013060438117310545331_" gradientUnits="userSpaceOnUse" x1="2735.3286" y1="2066.645" x2="2849.7258" y2="2004.8907">
					<stop  offset="0" style="stop-color:#311944"/>
					<stop  offset="1" style="stop-color:#A03976"/>
				</linearGradient>
				<path style="fill:url(#SVGID_00000093159061821601164880000013060438117310545331_);" d="M2830.924,1962.04
					c0,0-8.956,62.21,25.183,95.608c2.425,2.372,1.295,6.458-2.025,7.156c-15.857,3.333-52.739,8.705-88.508-3.312
					c-3.112-1.045-3.813-5.163-1.253-7.218c7.479-6.004,20.067-17.476,26.776-31.257c9.942-20.424,11.714-55.27,11.714-55.27
					L2830.924,1962.04z"/>
				<g style="opacity:0.3;">
					
						<linearGradient id="SVGID_00000101086995308869212030000003976214358889723323_" gradientUnits="userSpaceOnUse" x1="2672.6755" y1="2333.5842" x2="3119.4407" y2="2333.5842">
						<stop  offset="0" style="stop-color:#FFC444"/>
						<stop  offset="0.9964" style="stop-color:#F36F56"/>
					</linearGradient>
					<path style="fill:url(#SVGID_00000101086995308869212030000003976214358889723323_);" d="M3046.032,2427.756
						c-44.937-73.086-67.038-141.111-78.018-174.906c-33.12-101.943-19.376-129.813-56.811-167.086
						c-2.397-2.387-17.408-16.874-40.592-28.735c6.142,20.011,9.821,43.554,6.357,69.043
						c-11.811,86.898-95.702,117.113-85.038,171.089c9.748,49.341,84.43,47.291,95.162,100.224
						c11.046,54.48-61.255,90.255-46.569,128.57c14.175,36.981,86.857,17.549,158.941,61.754
						c10.976,6.731,20.888,14.298,29.855,22.43c29.499-5.884,78.767-20.516,88.592-53.813
						C3127.216,2524.787,3092.973,2504.099,3046.032,2427.756z"/>
				</g>
				
					<linearGradient id="SVGID_00000107570838362845068730000014733770168113890975_" gradientUnits="userSpaceOnUse" x1="2896.8879" y1="1905.3875" x2="2810.8372" y2="1960.0551">
					<stop  offset="0" style="stop-color:#311944"/>
					<stop  offset="1" style="stop-color:#A03976"/>
				</linearGradient>
				<path style="fill:url(#SVGID_00000107570838362845068730000014733770168113890975_);" d="M2831.975,1984.264
					c0,0-15.419,21.164-39.599,12.343c-21.651-7.896-8.729-63.815,8.445-70.194c5.728-2.128,16.248-1.187,23.279,3.2
					c4.946,3.085,18.15,19.491,10.581,37.875c5.47-1.584,10.284-0.146,11.489,2.563c1.531,3.436-3.102,8.114-4.149,9.175
					C2838.384,1982.901,2833.997,1983.927,2831.975,1984.264z"/>
				
					<linearGradient id="SVGID_00000151516561825073460950000006581889131850990734_" gradientUnits="userSpaceOnUse" x1="2563.499" y1="2214.2251" x2="2945.6118" y2="2214.2251">
					<stop  offset="0" style="stop-color:#FFC444"/>
					<stop  offset="0.9964" style="stop-color:#F36F56"/>
				</linearGradient>
				<path style="fill:url(#SVGID_00000151516561825073460950000006581889131850990734_);" d="M2563.499,2155.024
					c8.146-3.07,16.294-6.14,24.44-9.21c4.796,8.724,36.792,64.867,96.68,73.396c56.471,8.043,109.502-30.271,134.138-67.828
					c23.365-35.618,18.618-66.638,40.495-73.396c22.01-6.8,49.293,17.655,62.26,34.42c30.668,39.653,29.591,98.804,10.63,141.224
					c-30.825,68.965-113.642,104.269-184.239,97.084c-109.369-11.132-160.044-121.255-168.584-141.131
					C2570.069,2188.053,2565.725,2168.76,2563.499,2155.024z"/>
			</g>
		</g>
	</g>
</g>
</svg>
