<?xml version="1.0" encoding="utf-8"?>
<!-- Generator: Adobe Illustrator 27.5.0, SVG Export Plug-In . SVG Version: 6.00 Build 0)  -->
<svg version="1.1" xmlns="http://www.w3.org/2000/svg" xmlns:xlink="http://www.w3.org/1999/xlink" x="0px" y="0px"
	 viewBox="0 0 500 500" style="enable-background:new 0 0 500 500;" xml:space="preserve">
<g id="Floor">
	<path id="Floor_00000140004462928931980590000012111904373023608453_" style="fill:#F5F5F5;" d="M426.74,380.225l-24.207-14.111
		l-24.207,14.111l24.207,14.111L426.74,380.225z M401.339,395.033l-24.207-14.111l-24.207,14.111l24.207,14.111L401.339,395.033z
		 M375.937,409.841L351.73,395.73l-24.207,14.112l24.207,14.111L375.937,409.841z M325.133,439.457l-24.207-14.111l-24.207,14.112
		l24.207,14.111L325.133,439.457z M350.535,424.649l-24.207-14.111l-24.207,14.111l24.207,14.111L350.535,424.649z M402.533,336.498
		l-24.207,14.111l24.207,14.111l24.207-14.111L402.533,336.498z M352.925,306.186l24.207,14.111l24.207-14.112l-24.207-14.111
		L352.925,306.186z M299.731,424.649l-24.207-14.111l-24.207,14.111l24.207,14.112L299.731,424.649z M327.523,291.378l24.207,14.111
		l24.207-14.111l-24.207-14.111L327.523,291.378z M402.534,306.882l-24.207,14.111l24.207,14.111l24.207-14.111L402.534,306.882z
		 M172.723,409.842l-24.207-14.111l-24.207,14.111l24.207,14.111L172.723,409.842z M73.506,350.61l24.207,14.111l24.207-14.112
		l-24.207-14.111L73.506,350.61z M98.908,335.802l24.207,14.111l24.207-14.111l-24.207-14.111L98.908,335.802z M149.711,306.186
		l24.207,14.111l24.207-14.112l-24.207-14.111L149.711,306.186z M124.31,320.994l24.207,14.111l24.207-14.111l-24.207-14.111
		L124.31,320.994z M97.713,394.337l24.207-14.111l-24.207-14.111l-24.207,14.111L97.713,394.337z M274.329,439.457l-24.207-14.111
		l-24.207,14.112l24.207,14.111L274.329,439.457z M175.113,291.378l24.207,14.111l24.207-14.111l-24.207-14.111L175.113,291.378z
		 M248.928,424.649l-24.207-14.111l-24.207,14.112l24.206,14.111L248.928,424.649z M302.122,276.57l24.207,14.112l24.207-14.112
		l-24.207-14.112L302.122,276.57z M147.321,395.034l-24.207-14.111l-24.207,14.111l24.207,14.111L147.321,395.034z M198.124,424.65
		l-24.207-14.111l-24.207,14.111l24.207,14.111L198.124,424.65z M223.526,439.457l-24.207-14.111l-24.207,14.111l24.207,14.111
		L223.526,439.457z M198.124,454.265l-24.207-14.111l-24.207,14.111l24.207,14.111L198.124,454.265z M223.526,469.073
		l-24.207-14.111l-24.207,14.111l24.207,14.111L223.526,469.073z M172.723,439.457l-24.207-14.111l-24.207,14.111l24.207,14.112
		L172.723,439.457z M147.321,424.65l-24.207-14.111L98.907,424.65l24.207,14.111L147.321,424.65z M121.919,409.842L97.713,395.73
		l-24.207,14.111l24.207,14.111L121.919,409.842z M299.731,454.265l-24.207-14.111l-24.207,14.112l24.207,14.111L299.731,454.265z
		 M350.534,454.265l-24.206-14.111l-24.207,14.112l24.206,14.111L350.534,454.265z M248.928,454.265l-24.207-14.112l-24.207,14.111
		l24.207,14.111L248.928,454.265z M325.133,469.073l-24.207-14.111l-24.207,14.112l24.207,14.111L325.133,469.073z M274.329,469.073
		l-24.207-14.111l-24.207,14.111l24.207,14.111L274.329,469.073z M72.311,409.145l24.207-14.111l-24.207-14.111l-24.207,14.111
		L72.311,409.145z M276.72,261.762l24.207,14.111l24.207-14.112l-24.207-14.111L276.72,261.762z M149.712,276.57l24.207,14.111
		l24.207-14.111l-24.207-14.111L149.712,276.57z M175.113,261.762l24.207,14.112l24.207-14.111l-24.207-14.111L175.113,261.762z
		 M200.515,276.57l24.207,14.111l24.207-14.111l-24.207-14.111L200.515,276.57z M72.311,379.529l24.207-14.111l-24.207-14.111
		l-24.207,14.111L72.311,379.529z M225.917,261.763l24.207,14.111l24.207-14.112l-24.207-14.111L225.917,261.763z M251.318,276.57
		l24.207,14.111l24.207-14.112l-24.207-14.111L251.318,276.57z M48.104,335.802l24.207,14.111l24.207-14.112l-24.207-14.111
		L48.104,335.802z M73.506,320.994l24.207,14.112l24.207-14.111l-24.207-14.111L73.506,320.994z M98.908,306.186l24.207,14.111
		l24.207-14.111l-24.207-14.111L98.908,306.186z M124.31,291.379l24.207,14.111l24.207-14.112l-24.207-14.111L124.31,291.379z
		 M274.33,409.841l-24.207-14.111l-24.207,14.111l24.207,14.111L274.33,409.841z M223.526,380.226l-24.207-14.111l-24.207,14.111
		l24.207,14.111L223.526,380.226z M299.732,365.418l-24.207-14.111l-24.207,14.112l24.207,14.111L299.732,365.418z M274.33,380.226
		l-24.207-14.111l-24.207,14.111l24.207,14.111L274.33,380.226z M274.33,350.61l-24.207-14.111l-24.207,14.111l24.207,14.111
		L274.33,350.61z M248.928,365.418l-24.207-14.111l-24.207,14.111l24.207,14.111L248.928,365.418z M325.134,350.61l-24.207-14.111
		L276.72,350.61l24.207,14.111L325.134,350.61z M325.133,380.225l-24.207-14.111l-24.207,14.112l24.207,14.111L325.133,380.225z
		 M251.318,335.802l24.207,14.111l24.207-14.112l-24.207-14.111L251.318,335.802z M276.72,320.994l24.207,14.111l24.207-14.111
		l-24.207-14.111L276.72,320.994z M375.937,350.61l-24.207-14.111l-24.207,14.111l24.207,14.111L375.937,350.61z M350.535,365.417
		l-24.207-14.111l-24.207,14.112l24.207,14.111L350.535,365.417z M225.916,320.994l24.207,14.112l24.207-14.112l-24.207-14.112
		L225.916,320.994z M461.061,339.608c-0.741-2.066-1.553-4.125-2.473-6.171l-4.057,2.365L461.061,339.608z M426.315,293.019
		c-0.329-0.272-0.664-0.542-0.997-0.812l-0.018,0.011c0.333,0.27,0.666,0.541,0.996,0.813L426.315,293.019z M458.588,333.437
		c-0.001-0.002-0.002-0.004-0.003-0.007C458.586,333.432,458.587,333.435,458.588,333.437L458.588,333.437z M444.266,310.777
		L444.266,310.777c0.26,0.314,0.519,0.627,0.774,0.942C444.784,311.405,444.525,311.091,444.266,310.777z M223.526,350.61
		l-24.207-14.111l-24.207,14.111l24.207,14.111L223.526,350.61z M461.082,339.62l-0.021-0.012c0.124,0.345,0.264,0.689,0.383,1.034
		C461.323,340.302,461.204,339.961,461.082,339.62z M453.337,335.105l4.755-2.772c-3.281-7.035-7.637-13.934-13.052-20.614
		l-15.909,9.274L453.337,335.105z M149.711,365.418l24.207,14.111l24.207-14.111l-24.207-14.111L149.711,365.418z M402.534,305.489
		l22.766-13.271c-3.13-2.539-6.419-5.032-9.913-7.459c0,0,0,0,0,0c0,0,0,0,0,0l-12.852-7.492l-24.207,14.112L402.534,305.489z
		 M427.935,320.297l16.33-9.52c-5.078-6.132-11.083-12.065-17.97-17.747l-22.567,13.155L427.935,320.297z M350.535,395.033
		l-24.207-14.111l-24.207,14.112l24.207,14.111L350.535,395.033z M377.132,321.69l-24.207,14.111l24.207,14.111l24.207-14.111
		L377.132,321.69z M401.338,365.418l-24.207-14.111l-24.207,14.111l24.207,14.111L401.338,365.418z M325.133,409.841l-24.207-14.111
		l-24.207,14.111l24.207,14.111L325.133,409.841z M327.523,320.994l24.207,14.111l24.207-14.111l-24.207-14.111L327.523,320.994z
		 M200.515,306.186l24.207,14.111l24.207-14.111l-24.207-14.111L200.515,306.186z M375.937,380.225l-24.207-14.112l-24.207,14.112
		l24.207,14.111L375.937,380.225z M251.318,306.186l24.207,14.111l24.207-14.111l-24.207-14.112L251.318,306.186z M225.917,291.378
		l24.207,14.111l24.207-14.111l-24.207-14.111L225.917,291.378z M276.72,291.378l24.207,14.111l24.207-14.111l-24.207-14.112
		L276.72,291.378z M302.122,306.186l24.207,14.111l24.207-14.111l-24.207-14.111L302.122,306.186z M223.526,409.841l-24.207-14.111
		l-24.207,14.112l24.207,14.111L223.526,409.841z M98.908,365.418l24.207,14.111l24.207-14.112l-24.207-14.111L98.908,365.418z
		 M124.31,350.61l24.207,14.111l24.207-14.111l-24.207-14.111L124.31,350.61z M172.723,380.226l-24.207-14.111l-24.207,14.112
		l24.207,14.111L172.723,380.226z M175.113,320.994l24.207,14.111l24.207-14.112l-24.207-14.111L175.113,320.994z M149.711,335.802
		l24.207,14.111l24.207-14.111l-24.206-14.111L149.711,335.802z M299.731,395.034l-24.207-14.111l-24.207,14.111l24.207,14.111
		L299.731,395.034z M198.125,395.034l-24.207-14.111l-24.207,14.111l24.207,14.111L198.125,395.034z M248.928,395.034
		l-24.207-14.111l-24.207,14.112l24.207,14.111L248.928,395.034z M375.936,439.457l-24.206-14.111l-24.207,14.111l24.207,14.111
		L375.936,439.457z M200.514,335.802l24.207,14.111l24.207-14.111l-24.207-14.111L200.514,335.802z M302.121,335.802l24.207,14.111
		l24.207-14.111l-24.207-14.111L302.121,335.802z M124.537,467.547c0.464,0.194,0.927,0.389,1.393,0.581l0,0
		C125.464,467.937,125.001,467.742,124.537,467.547L124.537,467.547z M156.392,478.593c0.538,0.151,1.076,0.302,1.616,0.451
		l0.008-0.005c-0.537-0.148-1.068-0.307-1.604-0.458L156.392,478.593z M123.114,440.154l-24.207,14.112l12.851,7.492
		c4.162,2.036,8.425,3.966,12.778,5.79l22.784-13.282L123.114,440.154z M193.37,486.653c0.63,0.1,1.262,0.193,1.893,0.289
		l0.021-0.012c-0.634-0.097-1.272-0.183-1.904-0.283L193.37,486.653z M205.87,488.396c1.003,0.122,2.005,0.248,3.01,0.362
		l-0.036-0.021c-1.004-0.114-2.005-0.237-3.006-0.359L205.87,488.396z M237.013,490.827c0.608,0.021,1.215,0.044,1.822,0.063
		C238.228,490.872,237.62,490.848,237.013,490.827L237.013,490.827z M239.276,490.901c7.229,0.211,14.472,0.216,21.701,0.005
		l-10.855-6.328L239.276,490.901z M224.721,469.77l-24.207,14.111l8.33,4.856c9.316,1.054,18.726,1.757,28.169,2.09l11.915-6.946
		L224.721,469.77z M195.283,486.93c3.501,0.535,7.02,1.017,10.554,1.447l-6.518-3.8L195.283,486.93z M148.516,454.962
		l-22.586,13.167c9.753,4.018,19.959,7.491,30.483,10.452l16.31-9.508L148.516,454.962z M173.917,469.77l-15.902,9.27
		c11.46,3.156,23.295,5.696,35.363,7.608l4.745-2.766L173.917,469.77z M275.524,469.77l-24.207,14.111l11.915,6.946
		c9.444-0.333,18.854-1.036,28.171-2.091l8.328-4.855L275.524,469.77z M46.909,395.73l-4.744,2.765
		c3.281,7.036,7.625,13.939,13.041,20.62l15.909-9.274L46.909,395.73z M73.931,437.816c0.329,0.272,0.664,0.542,0.997,0.812
		l0.018-0.011c-0.333-0.27-0.666-0.541-0.995-0.813L73.931,437.816z M84.863,446.079c-0.001-0.001-0.002-0.001-0.002-0.002l0,0
		C84.862,446.078,84.862,446.078,84.863,446.079z M239.268,490.905l0.008-0.005c-0.147-0.004-0.294-0.006-0.441-0.01
		C238.98,490.895,239.124,490.901,239.268,490.905z M41.658,397.399c0.165,0.368,0.326,0.736,0.497,1.104l0.011-0.006
		c-0.171-0.368-0.326-0.738-0.492-1.106L41.658,397.399z M39.164,391.215c0.741,2.068,1.589,4.126,2.51,6.174l4.041-2.355
		L39.164,391.215z M72.311,410.538l-16.33,9.52c5.078,6.131,11.083,12.065,17.97,17.747l22.567-13.155L72.311,410.538z
		 M291.365,488.758c0.868-0.098,1.732-0.206,2.598-0.312c-0.852,0.103-1.707,0.193-2.56,0.29L291.365,488.758z M263.232,490.827
		L263.232,490.827c-0.752,0.026-1.503,0.056-2.255,0.078C261.729,490.883,262.481,490.853,263.232,490.827z M121.919,439.457
		l-24.207-14.111l-22.766,13.271c3.13,2.539,6.42,5.032,9.915,7.46l12.851,7.492L121.919,439.457z M429.13,380.225l24.207,14.111
		l8.366-4.877c1.805-5.423,2.978-10.903,3.549-16.4l-11.915-6.946L429.13,380.225z M458.572,397.388
		c0.921-2.048,1.769-4.106,2.51-6.174l-6.551,3.819L458.572,397.388z M429.13,409.841l15.909,9.274
		c5.416-6.682,9.76-13.584,13.041-20.62l-4.743-2.765L429.13,409.841z M378.326,439.457l24.207,14.111l12.853-7.493
		c3.492-2.426,6.803-4.911,9.932-7.448l-22.784-13.282L378.326,439.457z M461.082,391.214c0.21-0.585,0.425-1.169,0.62-1.755
		C461.507,390.046,461.291,390.63,461.082,391.214L461.082,391.214z M403.728,424.649l22.586,13.167
		c6.89-5.684,12.871-11.626,17.951-17.759l-16.33-9.52L403.728,424.649z M458.091,398.501c0.171-0.367,0.331-0.736,0.497-1.103
		l-0.016-0.009c-0.166,0.369-0.32,0.738-0.492,1.106L458.091,398.501z M465.386,359.09l-10.855,6.328l10.855,6.328
		C465.749,367.53,465.749,363.305,465.386,359.09z M465.252,357.775c0.046,0.438,0.097,0.876,0.135,1.315v0
		C465.349,358.651,465.297,358.213,465.252,357.775z M71.116,380.226L46.91,366.115l-11.91,6.943
		c0.572,5.504,1.764,10.989,3.573,16.419l8.337,4.86L71.116,380.226z M453.337,336.498L429.13,350.61l24.207,14.111l11.915-6.946
		c-0.571-5.497-1.745-10.977-3.549-16.4L453.337,336.498z M465.252,373.06L465.252,373.06c0.046-0.438,0.097-0.876,0.135-1.315h0
		C465.349,372.184,465.297,372.622,465.252,373.06z M302.12,483.881l4.733,2.759c12.07-1.913,23.91-4.445,35.373-7.603
		l-15.899-9.268L302.12,483.881z M294.382,488.392c3.547-0.432,7.077-0.919,10.59-1.455l-4.047-2.359L294.382,488.392z
		 M342.237,479.044c0.361-0.099,0.722-0.201,1.082-0.302c-0.363,0.101-0.729,0.196-1.093,0.296L342.237,479.044z M304.982,486.942
		c0.631-0.096,1.263-0.19,1.893-0.289l-0.022-0.013c-0.627,0.099-1.253,0.201-1.881,0.297L304.982,486.942z M294.375,488.396
		l0.007-0.004c-0.135,0.017-0.269,0.036-0.404,0.052C294.11,488.428,294.243,488.412,294.375,488.396z M391.936,460.034
		c-1.122,0.573-2.256,1.133-3.393,1.69l-0.058,0.034C389.643,461.191,390.793,460.616,391.936,460.034z M377.131,440.154
		l-24.207,14.111l22.784,13.282c4.374-1.833,8.653-3.776,12.834-5.823l12.795-7.459L377.131,440.154z M425.317,438.628
		c0.333-0.27,0.668-0.54,0.997-0.812C425.985,438.087,425.65,438.357,425.317,438.628L425.317,438.628z M415.385,446.076
		L415.385,446.076C415.385,446.076,415.385,446.076,415.385,446.076C415.385,446.076,415.385,446.076,415.385,446.076z
		 M327.522,469.073l16.33,9.52c10.521-2.961,20.714-6.448,30.463-10.465l-22.586-13.167L327.522,469.073z M374.316,468.128
		c0.466-0.192,0.929-0.387,1.393-0.581C375.245,467.741,374.781,467.936,374.316,468.128L374.316,468.128z M326.328,261.065
		l15.909-9.274c-11.462-3.157-23.302-5.689-35.372-7.602l-4.743,2.765L326.328,261.065z M275.525,261.066l24.207-14.111
		l-8.366-4.877c-9.303-1.052-18.703-1.736-28.133-2.069l-11.915,6.946L275.525,261.066z M195.264,243.893
		c-0.003,0.001-0.006,0.001-0.01,0.002C195.257,243.894,195.26,243.894,195.264,243.893L195.264,243.893z M377.132,290.681
		l24.207-14.111l-12.852-7.492c-4.162-2.036-8.424-3.966-12.778-5.79l-22.784,13.282L377.132,290.681z M401.338,424.649
		l-24.207-14.111l-24.207,14.111l24.207,14.111L401.338,424.649z M351.73,275.874l22.578-13.162
		c-9.749-4.016-19.935-7.509-30.455-10.469l-16.33,9.52L351.73,275.874z M304.967,243.902c-3.514-0.537-7.043-1.031-10.59-1.463
		l6.55,3.819L304.967,243.902z M208.881,242.078c-1.005,0.114-2.007,0.24-3.01,0.362
		C206.874,242.317,207.876,242.191,208.881,242.078L208.881,242.078z M205.871,242.439c-3.552,0.432-7.089,0.916-10.607,1.454
		l4.056,2.365L205.871,242.439z M224.722,261.066l24.207-14.112l-11.915-6.946c-9.43,0.333-18.83,1.017-28.133,2.069l-8.366,4.877
		L224.722,261.066z M239.269,239.93c-0.048,0.001-0.096,0.003-0.144,0.005c0.049-0.001,0.098-0.002,0.147-0.003L239.269,239.93z
		 M237.014,240.008L237.014,240.008c0.704-0.025,1.407-0.053,2.111-0.074C238.421,239.956,237.718,239.984,237.014,240.008z
		 M260.979,239.93c-7.231-0.211-14.476-0.209-21.707,0.002l10.852,6.326L260.979,239.93z M427.935,351.306l-24.207,14.111
		l24.207,14.111l24.207-14.111L427.935,351.306z M427.935,321.69l-24.207,14.112l24.207,14.111l24.207-14.112L427.935,321.69z
		 M388.487,269.078L388.487,269.078c0.002,0.001,0.004,0.002,0.005,0.003C388.49,269.079,388.488,269.078,388.487,269.078z
		 M294.377,242.439c-1.003-0.122-2.005-0.248-3.01-0.362C292.372,242.191,293.374,242.317,294.377,242.439L294.377,242.439z
		 M452.141,395.033l-24.206-14.111l-24.207,14.111l24.207,14.111L452.141,395.033z M426.74,409.841l-24.207-14.111l-24.207,14.112
		l24.207,14.111L426.74,409.841z M374.317,262.707l-0.009,0.005c0.13,0.053,0.263,0.102,0.392,0.155
		C374.573,262.814,374.445,262.76,374.317,262.707z M306.876,244.183c-0.63-0.1-1.262-0.193-1.893-0.29l-0.016,0.009
		c0.632,0.097,1.267,0.187,1.898,0.287L306.876,244.183z M375.71,263.288c-0.336-0.141-0.672-0.281-1.009-0.421
		C375.038,263.007,375.374,263.147,375.71,263.288L375.71,263.288z M343.853,252.242c-0.538-0.151-1.076-0.303-1.616-0.451l0,0
		C342.777,251.94,343.315,252.091,343.853,252.242L343.853,252.242z M198.125,246.955l-4.755-2.772
		c-12.068,1.913-23.902,4.452-35.36,7.609l15.908,9.274L198.125,246.955z M34.86,371.746c0.017,0.196,0.04,0.393,0.06,0.589
		C34.902,372.139,34.877,371.943,34.86,371.746L34.86,371.746z M38.543,389.461c0.117,0.352,0.246,0.702,0.372,1.053
		c-0.12-0.345-0.229-0.691-0.344-1.036L38.543,389.461z M34.994,373.061l0.005-0.003c-0.025-0.241-0.057-0.482-0.079-0.723
		C34.945,372.577,34.969,372.819,34.994,373.061z M71.117,320.994l-15.909-9.274c-5.417,6.683-9.753,13.587-13.034,20.625
		l4.737,2.761L71.117,320.994z M42.155,332.334c-0.171,0.367-0.331,0.735-0.496,1.103c0.164-0.365,0.344-0.728,0.514-1.092
		L42.155,332.334z M96.518,306.186l-22.576-13.161c-6.889,5.684-12.874,11.624-17.953,17.757l16.322,9.515L96.518,306.186z
		 M34.86,359.09L34.86,359.09c0.038-0.438,0.089-0.876,0.135-1.315C34.949,358.214,34.897,358.652,34.86,359.09z M71.117,350.61
		L46.91,336.499l-8.366,4.877c-1.805,5.423-2.978,10.903-3.549,16.4l11.915,6.946L71.117,350.61z M41.658,333.438
		c-0.922,2.051-1.752,4.113-2.494,6.183l6.55-3.818L41.658,333.438z M38.544,341.375L38.544,341.375
		c0.195-0.586,0.411-1.17,0.62-1.755C38.955,340.206,38.739,340.789,38.544,341.375z M73.932,293.02l0.01,0.006
		c0.228-0.188,0.448-0.379,0.678-0.566C74.39,292.646,74.159,292.832,73.932,293.02z M111.758,269.079c0,0,0.001,0,0.001-0.001l0,0
		C111.759,269.079,111.758,269.079,111.758,269.079z M124.538,263.288l0.005,0.003c0.094-0.039,0.184-0.082,0.278-0.121
		C124.727,263.21,124.632,263.249,124.538,263.288z M123.115,290.682l24.207-14.111l-22.779-13.279
		c-4.354,1.824-8.62,3.751-12.784,5.788l-12.851,7.492L123.115,290.682z M148.517,275.874l24.207-14.111l-16.325-9.517
		c-10.52,2.962-20.718,6.445-30.468,10.462L148.517,275.874z M34.86,359.09c-0.362,4.216-0.362,8.44,0,12.656l10.855-6.328
		L34.86,359.09z M97.713,305.49l24.207-14.111l-24.207-14.112l-12.851,7.492c-3.493,2.426-6.804,4.911-9.933,7.449L97.713,305.49z
		 M55.981,310.778c-0.192,0.232-0.383,0.465-0.573,0.697c0.189-0.232,0.389-0.461,0.581-0.693L55.981,310.778z M97.736,276.558
		c-0.007,0.004-0.015,0.008-0.023,0.013c-0.008,0.005-0.015,0.009-0.023,0.014c0.008-0.005,0.015-0.009,0.023-0.014
		C97.721,276.566,97.728,276.562,97.736,276.558z M158.009,251.792c-0.54,0.149-1.078,0.3-1.616,0.451l0.005,0.003
		c0.537-0.151,1.073-0.305,1.612-0.454L158.009,251.792z M84.862,284.759L84.862,284.759
		C84.862,284.759,84.862,284.759,84.862,284.759C84.862,284.759,84.862,284.759,84.862,284.759z"/>
</g>
<g id="Shadow">
	<path id="Shadow_00000127726227090315846750000011435197069142954681_" style="opacity:0.05;" d="M400.375,298.654
		c-20.909-12.072-54.149-12.667-76.294-1.804c-49.411-18.412-116.02-15.14-159.29,9.842c-35.269,20.363-45.564,49.681-30.898,75.276
		c-15.32-0.426-30.883,2.738-42.582,9.493c-22.011,12.708-22.011,33.312,0,46.02c22.011,12.708,57.697,12.708,79.708,0
		c8.167-4.715,13.296-10.518,15.403-16.6c49.36,18.205,115.665,14.876,158.79-10.022c28.007-16.17,40.27-37.987,36.789-59.103
		c6.683-1.588,12.946-3.946,18.375-7.081C422.386,331.965,422.386,311.362,400.375,298.654z"/>
</g>
<g id="Gears">
	<path id="Gear_00000075846286188730443750000002371258626544260760_" style="fill:#F0F0F0;" d="M458.177,271.232l-3.753-3.793
		c-2.531,1.467-5.22,2.569-8.013,3.284l-0.027,5.315c-0.005,1.001-0.723,1.847-1.704,2.005c-4.205,0.682-8.479,0.657-12.7-0.077
		c-0.98-0.169-1.686-1.021-1.681-2.022l0.027-5.315c-2.806-0.747-5.483-1.87-7.978-3.345l-3.779,3.74c0,0,0,0,0.001,0.001
		c-0.729,0.709-1.822,0.794-2.628,0.207c-1.732-1.263-3.36-2.659-4.838-4.15c-1.52-1.538-2.899-3.177-4.097-4.873
		c-0.573-0.811-0.471-1.913,0.241-2.618l3.782-3.744c-1.448-2.505-2.544-5.198-3.272-8.021l-5.326-0.018
		c-0.988-0.006-1.85-0.741-2.006-1.709c-0.678-4.226-0.653-8.496,0.076-12.694c0.167-0.964,1.036-1.689,2.023-1.683l5.314,0.028
		c0.749-2.82,1.879-5.498,3.364-7.982l-3.752-3.789c-0.706-0.714-0.796-1.815-0.214-2.621c1.219-1.688,2.615-3.313,4.148-4.83
		c1.531-1.517,3.169-2.895,4.872-4.098c0.8-0.599,1.913-0.473,2.619,0.241l3.751,3.791c2.498-1.459,5.188-2.562,8.014-3.282
		l0.027-5.315c0.004-1.002,0.725-1.844,1.703-2.006c4.204-0.685,8.475-0.666,12.694,0.056c0.969,0.165,1.694,1.036,1.688,2.026
		l-0.035,5.323c2.816,0.755,5.496,1.88,7.988,3.353l3.781-3.742c0.716-0.714,1.811-0.797,2.619-0.217
		c1.723,1.242,3.353,2.634,4.845,4.139c1.493,1.51,2.871,3.158,4.099,4.897c0.569,0.812,0.467,1.913-0.244,2.616l-3.782,3.743
		c1.451,2.511,2.545,5.199,3.263,8.011l5.335,0.028c0.99,0.004,1.851,0.739,2.005,1.708c0.68,4.225,0.653,8.497-0.075,12.695
		c-0.171,0.982-1.02,1.689-2.022,1.683l-5.315-0.028c-0.743,2.785-1.871,5.461-3.365,7.978l3.753,3.793
		c0.705,0.712,0.795,1.814,0.214,2.621c-1.22,1.69-2.616,3.315-4.148,4.83c-1.53,1.516-3.169,2.895-4.871,4.097
		c-0.022,0.015-0.042,0.03-0.062,0.043C459.93,272.041,458.866,271.927,458.177,271.232z M468.471,246.217l6.179-0.049
		c0.691-3.987,0.715-8.045-0.038-12.141l-6.092-0.031c-0.448-0.002-0.836-0.313-0.935-0.751c-0.72-3.128-1.929-6.104-3.601-8.841
		c-0.232-0.383-0.173-0.875,0.146-1.189l4.34-4.406c-1.164-1.652-2.474-3.217-3.892-4.65c-1.416-1.43-2.964-2.752-4.731-3.91
		l-4.319,4.273c-0.316,0.316-0.81,0.37-1.191,0.133c-2.714-1.695-5.681-2.94-8.818-3.702c-0.434-0.106-0.74-0.497-0.737-0.944
		l-0.041-6.187c-4.008-0.687-8.066-0.704-12.14,0.055l-0.031,6.07c-0.003,0.447-0.312,0.832-0.749,0.936
		c-3.147,0.722-6.12,1.94-8.839,3.621c-0.384,0.236-0.878,0.177-1.195-0.142l-4.416-4.353c-1.615,1.142-3.172,2.452-4.628,3.894
		c-1.458,1.443-2.783,2.986-3.919,4.72l4.286,4.329c0.315,0.32,0.369,0.816,0.129,1.196c-1.708,2.701-2.955,5.661-3.71,8.8
		c-0.105,0.439-0.495,0.742-0.944,0.74l-6.18,0.05c-0.691,3.986-0.716,8.043,0.038,12.141l6.078,0.021
		c0.447,0.001,0.835,0.311,0.937,0.747c0.731,3.146,1.945,6.125,3.612,8.855c0.233,0.383,0.174,0.875-0.146,1.19l-4.339,4.405
		c1.135,1.61,2.445,3.168,3.892,4.628c1.404,1.419,2.952,2.746,4.602,3.947c0.036,0.025,0.097,0.011,0.132-0.018l4.316-4.272
		c0.314-0.312,0.811-0.369,1.19-0.133c2.72,1.698,5.681,2.941,8.805,3.692c0.436,0.105,0.742,0.496,0.739,0.944l0.05,6.18
		c4.01,0.697,8.067,0.722,12.142-0.035l0.031-6.07c0.003-0.447,0.312-0.835,0.749-0.936c3.103-0.713,6.078-1.932,8.843-3.624
		c0.382-0.233,0.874-0.173,1.19,0.145l4.416,4.352c1.615-1.142,3.172-2.451,4.629-3.893c1.457-1.442,2.783-2.986,3.918-4.72
		l-4.284-4.33c-0.314-0.319-0.369-0.812-0.133-1.191c1.722-2.749,2.97-5.712,3.714-8.805c0.06-0.246,0.21-0.451,0.41-0.582
		C468.091,246.274,468.275,246.217,468.471,246.217z M445.754,257.154L445.754,257.154c-4.595,2.098-10.068,2.069-14.643-0.075
		c-6.935-3.251-11.218-9.853-11.179-17.23c0.039-7.374,4.389-13.932,11.357-17.11c4.595-2.098,10.07-2.069,14.644,0.075
		c6.932,3.252,11.216,9.853,11.178,17.229c-0.033,6.357-3.27,12.104-8.623,15.606C447.63,256.211,446.718,256.715,445.754,257.154z
		 M421.863,239.859c-0.035,6.616,3.823,12.544,10.068,15.471c4.068,1.908,8.936,1.932,13.021,0.068l0,0
		c6.274-2.86,10.193-8.749,10.228-15.365c0.033-6.614-3.823-12.543-10.068-15.47c-4.066-1.909-8.935-1.934-13.022-0.069
		c-0.871,0.398-1.697,0.854-2.474,1.362C424.804,229.006,421.893,234.163,421.863,239.859z"/>
	<path id="Gear_00000031172795917903208880000006160180546457977730_" style="fill:#F0F0F0;" d="M77.311,236.747
		c0.125,5.846,3.657,10.986,9.217,13.416c3.674,1.604,8.015,1.51,11.613-0.25c0.744-0.363,1.461-0.783,2.132-1.248
		c0.548-0.38,1.065-0.79,1.551-1.227c3.22-2.902,5.044-7.009,4.952-11.32c-0.125-5.845-3.657-10.985-9.215-13.415
		c-3.672-1.604-8.013-1.511-11.614,0.25C80.498,225.616,77.187,230.902,77.311,236.747z M79.131,236.708
		c-0.08-3.776,1.523-7.378,4.353-9.928c0.429-0.387,0.886-0.75,1.37-1.085c0.593-0.411,1.229-0.784,1.892-1.109
		c3.127-1.529,6.897-1.608,10.084-0.214c4.901,2.14,8.015,6.656,8.126,11.785c0.109,5.131-2.808,9.776-7.615,12.122
		c-3.126,1.528-6.896,1.607-10.084,0.214C82.354,246.352,79.24,241.836,79.131,236.708z M71.002,258.394
		c1.196,1.144,2.508,2.21,3.899,3.169c0.701,0.483,1.662,0.384,2.252-0.236l2.805-2.928c1.934,1.062,4.001,1.865,6.148,2.387
		l0.086,4.051c0.018,0.86,0.646,1.575,1.491,1.699c3.34,0.49,6.709,0.42,10.013-0.206c0.839-0.158,1.437-0.899,1.418-1.761
		l-0.087-4.051c2.109-0.611,4.14-1.507,6.04-2.665l2.937,2.815c0.6,0.575,1.526,0.652,2.202,0.184l0.035-0.025
		c0.731-0.545,1.44-1.128,2.124-1.745c0.566-0.51,1.116-1.044,1.648-1.6c1.176-1.225,2.241-2.534,3.169-3.893
		c0.481-0.707,0.379-1.651-0.243-2.247l-2.937-2.815c1.076-1.949,1.883-4.016,2.403-6.147l4.05-0.085
		c0.859-0.018,1.574-0.646,1.699-1.493c0.486-3.327,0.416-6.694-0.207-10.007c-0.155-0.83-0.912-1.441-1.762-1.421l-4.066,0.086
		c-0.614-2.124-1.504-4.155-2.648-6.039l2.806-2.929c0.595-0.621,0.658-1.567,0.149-2.253c-1.007-1.351-2.129-2.621-3.333-3.775
		c-1.206-1.153-2.52-2.217-3.906-3.16c-0.708-0.482-1.663-0.374-2.245,0.246l-2.805,2.927c-1.932-1.062-4.001-1.866-6.155-2.393
		l-0.08-4.057c-0.018-0.85-0.661-1.581-1.497-1.701c-3.339-0.481-6.705-0.407-10.005,0.221c-0.838,0.161-1.437,0.901-1.418,1.762
		l0.087,4.051c-2.131,0.614-4.162,1.51-6.041,2.663l-2.936-2.813c-0.629-0.603-1.6-0.665-2.258-0.143
		c-1.311,0.979-2.577,2.101-3.751,3.329c-1.176,1.227-2.242,2.537-3.168,3.894c-0.482,0.706-0.379,1.65,0.242,2.247l2.937,2.811
		c-1.071,1.927-1.879,3.995-2.402,6.15l-4.051,0.086c-0.849,0.017-1.577,0.659-1.698,1.493c-0.486,3.322-0.417,6.689,0.206,10.006
		c0.155,0.829,0.913,1.44,1.761,1.422l4.06-0.094c0.622,2.137,1.516,4.17,2.655,6.047l-2.806,2.93
		c-0.597,0.622-0.66,1.571-0.147,2.255C68.652,255.952,69.773,257.215,71.002,258.394z M69.208,253.651l3.223-3.451
		c0.292-0.303,0.335-0.765,0.106-1.122c-1.354-2.092-2.363-4.388-2.997-6.825c-0.109-0.411-0.479-0.691-0.903-0.68l-4.639,0.106
		c-0.622-3.007-0.713-6.105-0.273-9.216l4.718-0.164c0.423-0.011,0.782-0.31,0.869-0.721c0.523-2.462,1.434-4.793,2.709-6.931
		c0.217-0.366,0.155-0.828-0.151-1.123l-3.363-3.22c0.776-1.238,1.723-2.434,2.89-3.653c1.078-1.126,2.228-2.152,3.428-3.057
		l3.46,3.235c0.307,0.293,0.772,0.335,1.128,0.102c2.08-1.364,4.372-2.375,6.811-3.003c0.41-0.107,0.69-0.479,0.681-0.901
		l-0.099-4.635c2.998-0.625,6.096-0.721,9.215-0.286l0.157,4.724c0.01,0.422,0.305,0.78,0.718,0.869
		c2.462,0.529,4.798,1.438,6.947,2.702c0.346,0.203,0.774,0.158,1.065-0.104c0.019-0.017,0.037-0.034,0.053-0.052l3.212-3.351
		c1.267,0.794,2.467,1.738,3.661,2.883c1.107,1.061,2.135,2.22,3.055,3.444l-3.224,3.452c-0.293,0.304-0.337,0.766-0.106,1.122
		c1.358,2.098,2.363,4.39,2.989,6.814c0.103,0.411,0.473,0.693,0.899,0.684l4.651-0.1c0.621,3.007,0.714,6.106,0.273,9.217
		l-4.717,0.163c-0.179,0.005-0.352,0.061-0.498,0.163c-0.182,0.128-0.324,0.331-0.371,0.558c-0.516,2.427-1.429,4.76-2.711,6.936
		c-0.215,0.365-0.152,0.825,0.154,1.119l3.361,3.221c-0.775,1.238-1.721,2.434-2.889,3.652c-1.074,1.119-2.226,2.149-3.429,3.057
		l-3.459-3.234c-0.306-0.291-0.769-0.335-1.124-0.105c-2.119,1.375-4.411,2.386-6.814,3.006c-0.411,0.106-0.692,0.476-0.682,0.9
		l0.099,4.635c-2.993,0.624-6.093,0.714-9.217,0.27l-0.163-4.718c-0.01-0.423-0.306-0.781-0.721-0.868
		c-2.446-0.52-4.779-1.428-6.935-2.695c-0.36-0.211-0.817-0.161-1.118,0.156l-3.256,3.398c-1.293-0.894-2.511-1.886-3.617-2.947
		C71.133,255.998,70.105,254.845,69.208,253.651z"/>
	<path id="Gear_00000001623053606618731150000010639576817717290373_" style="fill:#F0F0F0;" d="M361.598,205.505
		c0.287,5.095,3.525,9.472,8.448,11.422c3.253,1.287,7.038,1.073,10.122-0.572c0.638-0.339,1.25-0.727,1.822-1.153
		c0.466-0.348,0.905-0.721,1.315-1.118c2.721-2.629,4.186-6.267,3.974-10.025c-0.288-5.094-3.525-9.47-8.447-11.421
		c-3.252-1.287-7.035-1.074-10.123,0.572C364.039,195.699,361.311,200.41,361.598,205.505z M363.184,205.415
		c-0.185-3.291,1.104-6.482,3.495-8.793c0.363-0.35,0.75-0.681,1.162-0.988c0.505-0.377,1.048-0.721,1.617-1.025
		c2.681-1.428,5.967-1.613,8.79-0.493c4.341,1.718,7.194,5.562,7.447,10.033c0.251,4.472-2.152,8.613-6.273,10.806
		c-2.68,1.428-5.966,1.612-8.789,0.494C366.289,213.73,363.435,209.885,363.184,205.415z M356.754,224.579
		c1.078,0.961,2.255,1.851,3.498,2.645c0.626,0.4,1.462,0.284,1.957-0.275l2.358-2.64c1.719,0.868,3.546,1.505,5.436,1.895
		l0.198,3.531c0.042,0.75,0.611,1.354,1.352,1.436c2.929,0.325,5.865,0.162,8.728-0.485c0.727-0.163,1.226-0.828,1.183-1.579
		l-0.199-3.531c1.821-0.597,3.566-1.441,5.187-2.508l2.647,2.366c0.541,0.483,1.351,0.522,1.927,0.094l0.03-0.023
		c0.621-0.498,1.222-1.028,1.8-1.587c0.479-0.462,0.942-0.945,1.389-1.446c0.988-1.105,1.878-2.279,2.646-3.493
		c0.398-0.631,0.28-1.452-0.28-1.952l-2.648-2.366c0.879-1.733,1.521-3.56,1.909-5.436l3.531-0.198
		c0.749-0.042,1.354-0.612,1.437-1.354c0.323-2.917,0.159-5.851-0.485-8.722c-0.16-0.719-0.84-1.229-1.58-1.186l-3.544,0.199
		c-0.6-1.834-1.439-3.579-2.494-5.187l2.358-2.641c0.5-0.56,0.526-1.387,0.062-1.97c-0.92-1.148-1.937-2.221-3.022-3.191
		c-1.087-0.969-2.266-1.857-3.503-2.637c-0.633-0.399-1.462-0.276-1.951,0.283l-2.358,2.639c-1.717-0.867-3.547-1.506-5.442-1.9
		l-0.193-3.537c-0.042-0.74-0.625-1.359-1.358-1.438c-2.927-0.318-5.861-0.151-8.721,0.498c-0.727,0.165-1.226,0.829-1.183,1.58
		l0.199,3.531c-1.84,0.601-3.584,1.444-5.188,2.507l-2.646-2.365c-0.567-0.507-1.416-0.531-1.975-0.056
		c-1.114,0.894-2.184,1.911-3.171,3.018c-0.988,1.106-1.878,2.281-2.645,3.493c-0.399,0.63-0.281,1.451,0.28,1.953l2.647,2.362
		c-0.876,1.714-1.517,3.542-1.908,5.438l-3.531,0.199c-0.74,0.041-1.355,0.623-1.436,1.354c-0.323,2.913-0.16,5.848,0.485,8.722
		c0.161,0.718,0.84,1.228,1.579,1.187l3.539-0.206c0.608,1.845,1.449,3.591,2.5,5.194l-2.358,2.641
		c-0.502,0.561-0.527,1.39-0.06,1.971C354.63,222.52,355.646,223.588,356.754,224.579z M355.044,220.497l2.706-3.108
		c0.245-0.273,0.269-0.678,0.059-0.982c-1.245-1.783-2.195-3.755-2.823-5.862c-0.108-0.355-0.439-0.588-0.808-0.565l-4.044,0.234
		c-0.634-2.604-0.808-5.304-0.519-8.031l4.11-0.286c0.369-0.022,0.673-0.294,0.736-0.655c0.382-2.164,1.105-4.225,2.152-6.128
		c0.178-0.326,0.11-0.727-0.166-0.975l-3.031-2.706c0.639-1.103,1.428-2.176,2.41-3.274c0.906-1.015,1.878-1.945,2.898-2.771
		l3.116,2.716c0.277,0.246,0.683,0.269,0.987,0.055c1.773-1.253,3.741-2.204,5.849-2.827c0.355-0.106,0.587-0.438,0.567-0.807
		l-0.227-4.04c2.596-0.637,5.296-0.815,8.03-0.53l0.281,4.116c0.021,0.368,0.29,0.671,0.653,0.736
		c2.163,0.386,4.229,1.109,6.142,2.146c0.308,0.166,0.68,0.114,0.926-0.124c0.016-0.015,0.031-0.031,0.045-0.047l2.699-3.021
		c1.13,0.654,2.205,1.441,3.281,2.404c0.998,0.892,1.93,1.871,2.77,2.911l-2.707,3.109c-0.246,0.274-0.271,0.679-0.059,0.982
		c1.248,1.788,2.195,3.757,2.815,5.853c0.102,0.356,0.434,0.59,0.805,0.57l4.054-0.229c0.634,2.604,0.809,5.304,0.519,8.031
		l-4.109,0.286c-0.156,0.01-0.305,0.064-0.429,0.157c-0.155,0.118-0.272,0.299-0.307,0.498c-0.376,2.133-1.101,4.196-2.153,6.132
		c-0.176,0.324-0.107,0.724,0.168,0.971l3.03,2.707c-0.639,1.103-1.427,2.175-2.409,3.274c-0.903,1.009-1.876,1.943-2.898,2.771
		l-3.116-2.716c-0.276-0.245-0.681-0.269-0.984-0.057c-1.806,1.264-3.775,2.216-5.852,2.83c-0.355,0.105-0.589,0.437-0.568,0.806
		l0.227,4.04c-2.592,0.635-5.293,0.809-8.031,0.517l-0.286-4.11c-0.021-0.369-0.291-0.672-0.656-0.735
		c-2.149-0.379-4.212-1.1-6.132-2.139c-0.32-0.173-0.718-0.116-0.971,0.17l-2.736,3.063c-1.155-0.74-2.248-1.569-3.245-2.46
		C356.795,222.485,355.864,221.511,355.044,220.497z"/>
	<path id="Gear_00000121987486870380596320000002643234663769010338_" style="fill:#F0F0F0;" d="M143.524,201.636
		c-2.809,5.748-1.95,12.517,2.238,17.666c2.769,3.401,7.038,5.486,11.419,5.578c0.906,0.02,1.813-0.029,2.699-0.145
		c0.723-0.095,1.432-0.234,2.124-0.416c4.586-1.208,8.418-4.287,10.489-8.526c2.807-5.746,1.949-12.515-2.238-17.664
		c-2.767-3.4-7.035-5.486-11.419-5.578C152.202,192.409,146.333,195.889,143.524,201.636z M145.314,202.51
		c1.815-3.712,5.18-6.412,9.21-7.473c0.611-0.161,1.238-0.285,1.876-0.368c0.783-0.103,1.588-0.146,2.396-0.129
		c3.807,0.081,7.513,1.893,9.913,4.847c3.694,4.538,4.458,10.49,1.995,15.534c-2.465,5.044-7.631,8.099-13.482,7.971
		c-3.806-0.081-7.512-1.893-9.913-4.846C143.613,213.504,142.849,207.551,145.314,202.51z M126.538,219.524
		c0.59,1.712,1.331,3.406,2.204,5.036c0.44,0.821,1.424,1.207,2.308,0.899l4.196-1.442c1.348,2.002,2.956,3.819,4.783,5.403
		l-1.947,3.983c-0.413,0.846-0.161,1.855,0.598,2.399c3.003,2.15,6.314,3.771,9.84,4.818c0.895,0.267,1.848-0.154,2.262-1.002
		l1.946-3.983c2.358,0.463,4.782,0.609,7.209,0.436l1.445,4.209c0.295,0.86,1.157,1.399,2.049,1.283l0.047-0.006
		c0.984-0.164,1.966-0.375,2.94-0.632c0.807-0.212,1.609-0.456,2.405-0.73c1.758-0.602,3.45-1.341,5.033-2.198
		c0.822-0.446,1.196-1.416,0.89-2.306l-1.445-4.21c2.023-1.356,3.844-2.961,5.418-4.774l3.982,1.947
		c0.845,0.413,1.855,0.161,2.401-0.601c2.141-2.992,3.76-6.301,4.814-9.835c0.266-0.885-0.165-1.859-1.001-2.265L184.917,214
		c0.468-2.373,0.62-4.795,0.452-7.2l4.197-1.442c0.89-0.305,1.425-1.195,1.274-2.116c-0.302-1.819-0.757-3.615-1.349-5.342
		c-0.595-1.726-1.34-3.419-2.214-5.031c-0.447-0.824-1.43-1.198-2.306-0.886l-4.195,1.44c-1.346-2.001-2.956-3.82-4.786-5.413
		l1.956-3.986c0.408-0.835,0.149-1.869-0.604-2.404c-3.006-2.141-6.316-3.756-9.841-4.8c-0.896-0.264-1.849,0.156-2.262,1.003
		l-1.946,3.983c-2.38-0.47-4.804-0.618-7.21-0.438l-1.445-4.207c-0.309-0.902-1.223-1.449-2.124-1.271
		c-1.766,0.295-3.559,0.751-5.317,1.357c-1.759,0.604-3.452,1.344-5.033,2.199c-0.822,0.445-1.196,1.415-0.891,2.307l1.447,4.205
		c-2.008,1.337-3.83,2.944-5.419,4.777l-3.983-1.946c-0.834-0.408-1.864-0.149-2.4,0.6c-2.138,2.987-3.759,6.296-4.815,9.834
		c-0.265,0.884,0.166,1.858,1,2.266l3.996,1.944c-0.466,2.39-0.616,4.814-0.449,7.211l-4.197,1.443
		c-0.893,0.306-1.429,1.197-1.273,2.119C125.478,215.971,125.934,217.762,126.538,219.524z M127.171,214.013l4.864-1.741
		c0.435-0.148,0.71-0.576,0.666-1.038c-0.268-2.713-0.099-5.452,0.506-8.14c0.1-0.454-0.12-0.912-0.537-1.113l-4.565-2.222
		c0.903-3.236,2.367-6.295,4.354-9.099l4.67,2.206c0.417,0.202,0.916,0.091,1.206-0.266c1.743-2.132,3.797-3.943,6.108-5.383
		c0.394-0.247,0.566-0.728,0.416-1.168l-1.656-4.816c1.374-0.815,2.895-1.503,4.641-2.104c1.613-0.554,3.246-0.976,4.866-1.255
		l1.743,4.88c0.152,0.439,0.582,0.712,1.046,0.665c2.707-0.284,5.442-0.118,8.128,0.494c0.453,0.101,0.911-0.12,1.114-0.535
		l2.227-4.557c3.229,0.894,6.29,2.354,9.105,4.341l-2.216,4.673c-0.202,0.415-0.094,0.911,0.263,1.205
		c2.129,1.748,3.945,3.804,5.401,6.11c0.235,0.371,0.674,0.542,1.088,0.432c0.026-0.007,0.053-0.015,0.077-0.024l4.803-1.649
		c0.834,1.408,1.528,2.926,2.115,4.639c0.545,1.587,0.964,3.229,1.245,4.881l-4.865,1.741c-0.437,0.149-0.712,0.576-0.666,1.038
		c0.269,2.72,0.098,5.453-0.509,8.124c-0.106,0.452,0.113,0.911,0.531,1.116l4.573,2.234c-0.903,3.236-2.366,6.296-4.354,9.1
		l-4.668-2.206c-0.177-0.085-0.373-0.117-0.566-0.092c-0.242,0.033-0.481,0.16-0.641,0.357c-1.719,2.102-3.775,3.913-6.113,5.386
		c-0.392,0.247-0.561,0.726-0.411,1.165l1.654,4.817c-1.374,0.815-2.894,1.504-4.64,2.104c-1.606,0.55-3.242,0.974-4.867,1.254
		l-1.743-4.879c-0.151-0.437-0.58-0.711-1.041-0.665c-2.749,0.275-5.486,0.109-8.133-0.492c-0.453-0.102-0.911,0.117-1.114,0.533
		l-2.227,4.557c-3.223-0.894-6.283-2.359-9.099-4.357l2.206-4.67c0.203-0.417,0.094-0.913-0.266-1.206
		c-2.118-1.731-3.932-3.783-5.394-6.096c-0.244-0.385-0.714-0.566-1.166-0.409l-4.869,1.673c-0.809-1.517-1.496-3.093-2.041-4.679
		C127.867,217.26,127.445,215.624,127.171,214.013z"/>
	<path id="Gear_00000134225825708851381860000013706985658632761270_" style="fill:#F0F0F0;" d="M409.845,157.046
		c-1.951,5.675-0.371,11.878,4.123,16.189c2.97,2.847,7.185,4.295,11.274,3.875c0.845-0.086,1.685-0.236,2.496-0.446
		c0.662-0.172,1.306-0.383,1.929-0.633c4.13-1.654,7.342-4.963,8.781-9.148c1.95-5.674,0.371-11.876-4.122-16.187
		c-2.969-2.846-7.182-4.295-11.275-3.875C416.859,147.454,411.797,151.372,409.845,157.046z M411.612,157.653
		c1.261-3.666,4.082-6.567,7.712-8.02c0.55-0.22,1.119-0.408,1.704-0.559c0.717-0.186,1.462-0.319,2.215-0.397
		c3.554-0.364,7.213,0.895,9.789,3.368c3.962,3.799,5.361,9.252,3.65,14.231c-1.713,4.98-6.17,8.421-11.631,8.977
		c-3.552,0.363-7.212-0.896-9.789-3.368C411.298,168.085,409.899,162.632,411.612,157.653z M396.096,175.661
		c0.746,1.526,1.632,3.017,2.633,4.434c0.504,0.713,1.465,0.959,2.253,0.571l3.74-1.827c1.486,1.709,3.192,3.214,5.076,4.478
		l-1.353,3.933c-0.287,0.835,0.064,1.745,0.834,2.164c3.044,1.656,6.313,2.782,9.717,3.35c0.864,0.145,1.702-0.356,1.99-1.194
		l1.352-3.932c2.248,0.159,4.522,0.016,6.762-0.426l1.831,3.752c0.374,0.766,1.238,1.169,2.056,0.958l0.043-0.011
		c0.897-0.266,1.787-0.576,2.664-0.928c0.727-0.291,1.445-0.61,2.155-0.958c1.567-0.764,3.057-1.647,4.432-2.627
		c0.714-0.51,0.95-1.456,0.562-2.25l-1.832-3.752c1.727-1.496,3.237-3.2,4.493-5.07l3.932,1.353
		c0.834,0.287,1.745-0.065,2.166-0.836c1.648-3.032,2.773-6.3,3.347-9.712c0.145-0.854-0.368-1.712-1.193-1.994l-3.947-1.359
		c0.162-2.263,0.024-4.535-0.41-6.755l3.741-1.827c0.793-0.387,1.189-1.277,0.942-2.117c-0.491-1.658-1.122-3.279-1.872-4.817
		c-0.753-1.538-1.642-3.028-2.642-4.428c-0.512-0.715-1.47-0.95-2.249-0.559l-3.739,1.825c-1.484-1.707-3.193-3.215-5.081-4.487
		l1.361-3.937c0.284-0.825-0.077-1.757-0.839-2.169c-3.045-1.646-6.314-2.768-9.715-3.333c-0.864-0.143-1.703,0.359-1.99,1.194
		l-1.352,3.932c-2.27-0.163-4.544-0.021-6.763,0.424l-1.831-3.75c-0.392-0.804-1.306-1.208-2.125-0.938
		c-1.61,0.479-3.227,1.11-4.793,1.877c-1.568,0.765-3.059,1.649-4.432,2.628c-0.714,0.509-0.95,1.455-0.563,2.25l1.832,3.748
		c-1.715,1.477-3.226,3.182-4.493,5.073l-3.933-1.352c-0.823-0.284-1.753,0.076-2.165,0.836c-1.646,3.027-2.772,6.295-3.347,9.711
		c-0.144,0.853,0.369,1.71,1.192,1.994l3.944,1.349c-0.158,2.279-0.018,4.553,0.414,6.765l-3.741,1.828
		c-0.796,0.388-1.192,1.279-0.941,2.12C394.699,172.475,395.33,174.089,396.096,175.661z M396.049,170.456l4.327-2.182
		c0.388-0.188,0.594-0.618,0.5-1.043c-0.563-2.495-0.721-5.064-0.468-7.637c0.041-0.434-0.217-0.835-0.629-0.974l-4.506-1.542
		c0.467-3.117,1.477-6.133,3.004-8.974l4.602,1.514c0.411,0.139,0.863-0.021,1.092-0.387c1.377-2.186,3.08-4.109,5.065-5.716
		c0.339-0.276,0.443-0.743,0.253-1.136l-2.098-4.293c1.185-0.917,2.522-1.734,4.078-2.494c1.438-0.702,2.909-1.283,4.386-1.73
		l2.186,4.342c0.192,0.391,0.625,0.596,1.05,0.498c2.487-0.577,5.053-0.738,7.624-0.479c0.433,0.042,0.834-0.217,0.975-0.626
		l1.548-4.499c3.109,0.46,6.127,1.466,8.978,2.99l-1.523,4.606c-0.14,0.41,0.017,0.859,0.384,1.091
		c2.184,1.382,4.112,3.086,5.734,5.065c0.262,0.318,0.69,0.426,1.063,0.277c0.024-0.009,0.048-0.02,0.069-0.031l4.281-2.089
		c0.939,1.214,1.76,2.548,2.504,4.075c0.69,1.414,1.27,2.895,1.722,4.4l-4.328,2.182c-0.389,0.189-0.596,0.619-0.5,1.043
		c0.564,2.501,0.721,5.066,0.464,7.622c-0.047,0.433,0.21,0.835,0.623,0.978l4.516,1.552c-0.467,3.116-1.476,6.134-3.003,8.974
		l-4.601-1.515c-0.175-0.059-0.361-0.066-0.537-0.02c-0.221,0.059-0.429,0.204-0.555,0.406c-1.358,2.155-3.063,4.079-5.069,5.72
		c-0.336,0.275-0.438,0.74-0.249,1.132l2.096,4.294c-1.186,0.917-2.52,1.734-4.077,2.494c-1.431,0.698-2.906,1.281-4.386,1.729
		l-2.186-4.341c-0.191-0.389-0.622-0.595-1.045-0.499c-2.528,0.574-5.095,0.735-7.629,0.48c-0.433-0.043-0.835,0.214-0.976,0.625
		l-1.547,4.499c-3.104-0.46-6.121-1.471-8.973-3.006l1.514-4.602c0.141-0.411-0.018-0.861-0.387-1.092
		c-2.171-1.368-4.097-3.069-5.725-5.053c-0.272-0.33-0.73-0.445-1.133-0.247l-4.34,2.12c-0.929-1.319-1.75-2.707-2.44-4.12
		C397.071,173.399,396.49,171.924,396.049,170.456z"/>
</g>
<g id="Robot_Face_00000157306902687633097720000011922750542613466794_">
	<g id="Robot_Face">
		<g id="Chest_8_">
			<g>
				<g>
					<path style="fill:#BA68C8;" d="M408.045,318.276c0.129-1.364-0.177-2.732-0.809-3.948c-4.37-8.406-25.131-48.055-36.314-64.305
						c-12.543-18.227-26.458-24.106-48.022-18.686c-27.918,7.746-16.853,52.482-16.665,86.897c0,14.51,21.46,26.273,47.932,26.273
						C379.982,344.278,406.632,333.201,408.045,318.276z"/>
					<path style="opacity:0.7;fill:#FFFFFF;" d="M408.045,318.276c0.129-1.364-0.177-2.732-0.809-3.948
						c-4.37-8.406-25.131-48.055-36.314-64.305c-12.543-18.227-26.458-24.106-48.022-18.686
						c-27.918,7.746-16.853,52.482-16.665,86.897c0,14.51,21.46,26.273,47.932,26.273
						C379.982,344.278,406.632,333.201,408.045,318.276z"/>
					<path style="opacity:0.2;fill:#BA68C8;" d="M363.26,266.039c-11.4-22.761-20.651-34.702-40.36-34.702
						c-27.918,7.746-16.853,52.482-16.665,86.897c0,14.51,21.46,26.273,47.932,26.273c14.405-0.128,29.067-3.634,39.461-9.301
						C385.519,315.76,371.147,281.786,363.26,266.039z"/>
					<g>
						<path style="fill:#BA68C8;" d="M337.039,230.343c13.276,0,23.487,6.234,33.107,20.214
							c11.19,16.26,32.163,56.337,36.254,64.206c0.571,1.098,0.815,2.282,0.707,3.425c-0.63,6.657-6.755,13-17.246,17.861
							c-10.07,4.665-23.083,7.405-35.693,7.517c-25.911,0-46.99-11.363-46.99-25.336c-0.041-7.537-0.611-15.685-1.161-23.564
							c-0.981-14.039-1.995-28.555-0.036-39.951c2.18-12.684,7.636-19.824,17.149-22.463
							C328.236,230.967,332.785,230.343,337.039,230.343 M337.039,229.401c-4.339,0-9.023,0.65-14.139,1.936
							c-27.918,7.746-16.853,52.482-16.665,86.897c0,14.51,21.46,26.273,47.932,26.273c25.815-0.229,52.464-11.306,53.877-26.231
							c0.129-1.364-0.177-2.732-0.809-3.948c-4.37-8.406-25.131-48.055-36.314-64.305
							C361.355,236.121,350.988,229.401,337.039,229.401L337.039,229.401z"/>
					</g>
				</g>
				<path style="fill:#37474F;" d="M358.884,298.986c8.496-9.542,3.81-25.356-9.051-42.467
					c-15.657-20.832-24.22-24.168-36.078-15.909c-3.919,5.473-6.993,11.067-9.121,16.629c-1.308,9.764-0.741,21.308,0.053,33.066
					c0.982,2.027,2.174,3.99,3.591,5.873C321.957,314.359,346.371,313.042,358.884,298.986z"/>
			</g>
			<g>
				<path style="fill:#BA68C8;" d="M371.059,351.888L371.059,351.888c9.486-41.47-13.022-70.936-20.925-82.132
					C331.45,243.287,321.3,229.341,303.28,232.9c-34.322,9.565-108.02,21.002-131.623,32.631c-4.541,2.237-7.944,4.726-10.38,6.601
					c-5.701,4.389-9.431,13.045-10.467,19.235c-3.311,19.784-5.09,37.125-6.168,51.815c-0.194,1.625-0.326,3.252-0.326,4.881v0l0,0
					c-2.22,19.321,2.51,31.451,26.348,45.215c47.677,27.526,118.623,27.695,164.415,3.667
					C359.744,384.002,367.535,363.16,371.059,351.888z"/>
				<path style="opacity:0.9;fill:#FFFFFF;" d="M371.059,351.888L371.059,351.888c9.486-41.47-13.022-70.936-20.925-82.132
					C331.45,243.287,321.3,229.341,303.28,232.9c-34.322,9.565-108.02,21.002-131.623,32.631c-4.541,2.237-7.944,4.726-10.38,6.601
					c-5.701,4.389-9.431,13.045-10.467,19.235c-3.311,19.784-5.09,37.125-6.168,51.815c-0.194,1.625-0.326,3.252-0.326,4.881v0l0,0
					c-2.22,19.321,2.51,31.451,26.348,45.215c47.677,27.526,118.623,27.695,164.415,3.667
					C359.744,384.002,368.388,362.869,371.059,351.888z"/>
				<path style="opacity:0.2;fill:#BA68C8;" d="M150.811,291.366c-3.311,19.784-5.09,37.125-6.168,51.815
					c-0.194,1.625-0.326,3.252-0.326,4.881v0c-2.22,19.321,2.51,31.451,26.348,45.215c23.073,13.321,51.596,20.216,80.08,21.081
					c-48.129-3.209-52.025-34.929-47.048-57.923c4.992-23.063-0.065-43.453-8.041-62.881c-7.976-19.428-23.999-28.023-34.378-21.422
					C155.577,276.52,151.846,285.176,150.811,291.366z"/>
				<g>
					<path style="fill:#BA68C8;" d="M308.624,233.293c14.619,0,24.451,13.929,40.741,37.006c0.302,0.428,0.626,0.883,0.968,1.364
						c8.63,12.131,28.838,40.539,19.804,80.033c-2.242,10.808-9.835,30.949-35.495,44.413
						c-21.406,11.232-49.028,17.418-77.777,17.418c-31.753,0-62.199-7.482-85.729-21.067
						c-24.417-14.097-27.934-26.442-25.883-44.291l0.006-0.054v-0.054c0-1.43,0.102-2.946,0.323-4.812
						c1.314-17.901,3.328-34.821,6.157-51.728c1.005-6.004,4.598-14.399,10.112-18.644c2.615-2.013,5.874-4.36,10.221-6.502
						c14.676-7.231,48.441-14.298,81.095-21.134c19.272-4.034,37.476-7.844,50.33-11.424
						C305.267,233.469,306.991,233.293,308.624,233.293 M308.624,232.352c-1.71,0-3.484,0.181-5.344,0.548
						c-34.322,9.565-108.02,21.002-131.623,32.631c-4.54,2.237-7.944,4.726-10.38,6.601c-5.701,4.389-9.431,13.045-10.467,19.235
						c-3.311,19.784-5.09,37.125-6.168,51.815c-0.194,1.625-0.326,3.252-0.326,4.881v0c-2.22,19.321,2.51,31.451,26.348,45.215
						c24.726,14.275,55.712,21.193,86.2,21.193c28.3,0,56.171-5.959,78.215-17.526c24.664-12.941,33.272-32.005,35.979-45.056
						c9.486-41.469-13.022-70.935-20.925-82.132C333.379,246.019,323.484,232.352,308.624,232.352L308.624,232.352z"/>
				</g>
				<g>
					<path style="fill:#455A64;" d="M296.211,410.489c14.045-2.93,27.266-7.457,38.868-13.546
						c5.334-2.799,10.035-5.982,14.132-9.362c-6.467-2.442-11.752-8.862-15.654-15.65c-5.852-10.18-9.368-17.368-13.354-15.066
						c-5.155,2.976-2.669,14.252-11.972,35.809C306.203,397.374,302.507,404.302,296.211,410.489z"/>
					<path style="fill:#37474F;" d="M333.558,371.932c-5.852-10.18-9.368-17.368-13.354-15.066c-1.733,1-2.602,2.943-3.346,5.895
						c5.413,0.727,8.621,7.005,10.97,12.291c2.386,5.368,8.746,14.554,16.029,16.575c1.886-1.307,3.674-2.658,5.355-4.044
						C342.745,385.139,337.46,378.719,333.558,371.932z"/>
				</g>
			</g>
			<g>
				<path style="fill:#37474F;" d="M158.167,278.591c13.115-8.434,28.584,7.516,34.462,30.082
					c5.853,22.474,3.358,38.921-8.721,45.719c-17.793,10.014-43.308,2.764-50.94-20.713
					C126.46,313.658,137.212,293.504,158.167,278.591z"/>
				<g>
					<path style="fill:#BA68C8;" d="M156.708,276.359c-3.18-1.451-6.836-1.297-10.03,0.126
						c-20.232,9.013-28.934,20.049-39.312,54.545c-6.528,21.7-20.587,75.301-21.361,80.532c-0.774,5.23,4.724,13.416,12.714,17.871
						c15.961,8.904,49.829,8.316,66.459-1.68c7.697-4.627,10.948-10.557,11.965-17.172l0,0l6.784-41.329
						C183.928,369.253,198.407,295.384,156.708,276.359z"/>
					<path style="opacity:0.7;fill:#FFFFFF;" d="M156.708,276.359c-3.18-1.451-6.836-1.297-10.03,0.126
						c-20.232,9.013-28.934,20.049-39.312,54.545c-6.528,21.7-20.587,75.301-21.361,80.532c-0.774,5.23,4.724,13.416,12.714,17.871
						c15.961,8.904,49.829,8.316,66.459-1.68c7.697-4.627,10.948-10.557,11.965-17.172l0,0l6.784-41.329
						C183.928,369.253,198.407,295.384,156.708,276.359z"/>
					<path style="opacity:0.2;fill:#BA68C8;" d="M162.12,279.328c14.826,11.863,12.603,39.12,7.795,77.106
						c-2.68,21.174-9.047,52.073-13.372,75.214c3.191-1.083,6.114-2.379,8.635-3.894c7.697-4.627,10.948-10.557,11.965-17.172
						l6.784-41.329C183.928,369.253,197.102,302.037,162.12,279.328z"/>
					<g>
						<path style="fill:#BA68C8;" d="M151.948,276.284c1.543,0,3.013,0.314,4.369,0.932c9.297,4.242,16.489,11.666,21.375,22.066
							c3.939,8.384,6.402,18.71,7.321,30.691c1.571,20.484-1.974,38.915-2.015,39.127l-6.786,41.338
							c-1.108,7.204-4.768,12.45-11.519,16.508c-8.144,4.896-21.321,7.819-35.249,7.819c-12.223,0-23.254-2.243-30.265-6.154
							c-8.147-4.543-12.907-12.412-12.241-16.91c0.804-5.432,14.949-59.182,21.331-80.398c10.002-33.246,18.34-44.844,38.793-53.956
							C148.621,276.652,150.311,276.284,151.948,276.284 M151.948,275.342c-1.794,0-3.595,0.397-5.27,1.143
							c-20.232,9.013-28.934,20.049-39.312,54.545c-6.528,21.7-20.586,75.301-21.361,80.532c-0.775,5.23,4.724,13.416,12.714,17.871
							c7.501,4.185,18.961,6.273,30.724,6.273c13.267,0,26.92-2.655,35.735-7.953c7.697-4.627,10.948-10.557,11.965-17.172
							l6.785-41.329c0,0,14.48-73.87-27.219-92.894C155.196,275.669,153.575,275.342,151.948,275.342L151.948,275.342z"/>
					</g>
				</g>
			</g>
		</g>
		<g id="Head_00000041976754569729640570000014422195999597789323_">
			<g>
				<path style="fill:#455A64;" d="M208.271,185.32l-0.107,42.973c0.491,10.836-5.595,21.05-15.728,26.396l-21.763,11.483
					c0,0,34.361,3.774,72.893,13.958c18.985,5.018,45.567,16.111,57.892,24.452c8.878,6.008,11.266,4.677,14.992-4.925
					c2.291-5.902,2.431-16.224,0.567-29.44C313.58,245.84,303.28,232.9,303.28,232.9l-2.28,0.222
					c-6.847,0.667-12.721-4.434-12.514-10.867l0.364-11.289L208.271,185.32z"/>
				<g>
					<path style="opacity:0.2;fill:#BA68C8;" d="M303.452,305.862l-4.389-6.005c-4.771-6.222-14.868-15.732-25.561-25.803
						c-12.836-12.087-26.108-24.586-32.067-32.958c-10.111-14.21-15.886-31.264-17.192-50.693l-7.922-2.521l0.058,1.106
						c1.138,21.69,7.442,40.736,18.736,56.607c6.4,8.993,19.951,21.756,33.07,34.109c5.917,5.574,11.606,10.933,16.247,15.589
						c6.78,3.182,12.758,6.4,17.026,9.288C302.168,305.061,302.822,305.477,303.452,305.862z"/>
					<path style="opacity:0.1;fill:#FFFFFF;" d="M303.452,305.862l-4.389-6.005c-4.771-6.222-14.868-15.732-25.561-25.803
						c-12.836-12.087-26.108-24.586-32.067-32.958c-10.111-14.21-15.886-31.264-17.192-50.693l-7.922-2.521l0.058,1.106
						c1.138,21.69,7.442,40.736,18.736,56.607c6.4,8.993,19.951,21.756,33.07,34.109c5.917,5.574,11.606,10.933,16.247,15.589
						c6.78,3.182,12.758,6.4,17.026,9.288C302.168,305.061,302.822,305.477,303.452,305.862z"/>
					<path style="fill:#BA68C8;" d="M271.49,276.195c-12.941-12.186-26.321-24.787-32.448-33.396
						c-10.659-14.977-16.628-32.901-17.815-53.355l-1.916-0.61c1.107,21.11,7.203,39.61,18.196,55.058
						c6.234,8.761,19.684,21.426,32.691,33.675c8.56,8.062,16.766,15.794,21.951,21.554c1.62,0.853,3.152,1.696,4.583,2.525
						C292.108,295.614,282.057,286.146,271.49,276.195z"/>
					<path style="opacity:0.2;" d="M290.566,228.716c-1.373-1.808-2.158-4.04-2.08-6.462l0.364-11.289l-80.578-25.646l-0.037,15.155
						c3.771,0.528,6.558,0.53,6.558,0.53s18.53,14.149,43.23,21.79C270.94,226.792,282.05,228.385,290.566,228.716z"/>
					<path style="fill:#BA68C8;" d="M316.958,298.133c0.262-0.89,0.484-1.859,0.669-2.901c-3.627-7.856-6.26-17.369-9.026-27.375
						c-3.009-10.883-6.12-22.135-10.742-31.79c-0.586-1.223-1.14-2.36-1.669-3.44c-0.978-0.308-1.891-0.747-2.731-1.28
						c0.826,1.672,1.722,3.489,2.7,5.534c4.551,9.505,7.639,20.676,10.626,31.479C309.826,279.354,312.718,289.741,316.958,298.133z
						"/>
					<path style="opacity:0.2;fill:#BA68C8;" d="M311.432,267.074c-3.042-11.005-6.188-22.386-10.924-32.276
						c-0.267-0.558-0.526-1.093-0.781-1.618c-5.338-0.03-9.846-3.544-10.968-8.296l-2.577-1.636l4.643,9.399
						c0.821,1.662,1.711,3.468,2.685,5.501c4.439,9.271,7.492,20.314,10.445,30.992c2.931,10.605,5.963,21.571,10.382,30.317
						l1.212,2.398c0.295-0.683,0.594-1.402,0.903-2.199c1.034-2.664,1.625-6.235,1.797-10.558
						C315.706,282.488,313.613,274.964,311.432,267.074z"/>
					<path style="opacity:0.1;fill:#FFFFFF;" d="M311.432,267.074c-3.042-11.005-6.188-22.386-10.924-32.276
						c-0.267-0.558-0.526-1.093-0.781-1.618c-5.338-0.03-9.846-3.544-10.968-8.296l-2.577-1.636l4.643,9.399
						c0.821,1.662,1.711,3.468,2.685,5.501c4.439,9.271,7.492,20.314,10.445,30.992c2.931,10.605,5.963,21.571,10.382,30.317
						l1.212,2.398c0.295-0.683,0.594-1.402,0.903-2.199c1.034-2.664,1.625-6.235,1.797-10.558
						C315.706,282.488,313.613,274.964,311.432,267.074z"/>
				</g>
			</g>
			<g>
				<g>
					<g>
						<path style="fill:#BA68C8;" d="M312.522,56.257c0,0-14.892-26.148-51.938-27.862c-21.874,0-31.188,11.157-31.736,28.163
							L312.522,56.257z"/>
						<path style="opacity:0.2;" d="M312.522,56.257c0,0-14.892-26.148-51.938-27.862c-21.874,0-31.188,11.157-31.736,28.163
							L312.522,56.257z"/>
						<path style="fill:#BA68C8;" d="M346.733,119.866c-1.309,49.254-34.626,88.118-83.879,86.809c-0.141,0-0.283-0.009-0.433-0.009
							c-22.908-0.725-44.101-12.17-57.873-30.5c-17.021-22.644-27.288-48.396-20.289-86.639
							c3.504-19.131,14.732-34.974,30.227-45.75c22.936-6.405,48.124,2.769,56.271,13.206l41.765-0.725
							c0,0-14.892-26.148-51.938-27.862c2.326-0.132,4.672-0.16,7.027-0.094c27.439,0.735,51.656,13.781,67.49,33.712
							C347.694,77.866,347.317,98.051,346.733,119.866z"/>
						<path style="opacity:0.4;fill:#FFFFFF;" d="M346.733,119.866c-1.309,49.254-34.626,88.118-83.879,86.809
							c-0.141,0-0.283-0.009-0.433-0.009c-22.908-0.725-44.101-12.17-57.873-30.5c-17.021-22.644-27.288-48.396-20.289-86.639
							c3.504-19.131,14.732-34.974,30.227-45.75c22.936-6.405,48.124,2.769,56.271,13.206l41.765-0.725
							c0,0-14.892-26.148-51.938-27.862c2.326-0.132,4.672-0.16,7.027-0.094c27.439,0.735,51.656,13.781,67.49,33.712
							C347.694,77.866,347.317,98.051,346.733,119.866z"/>
						<path style="opacity:0.5;fill:#BA68C8;" d="M292.84,56.599l-22.083,0.383c-0.555-0.71-1.195-1.414-1.901-2.108
							c-13.898,3.187-23.967,9.421-32.778,17.041c-13.207,11.422-18.204,31.768-18.204,46.988
							c-3.212-5.84-14.635-10.579-23.869-10.579c-9.205,0-9.361-36.21,10.254-56.06c-10.139,9.98-17.324,22.659-19.999,37.263
							c-6.999,38.243,3.269,63.995,20.289,86.639c13.771,18.33,34.965,29.775,57.873,30.5c0.151,0,0.292,0.009,0.433,0.009
							c10.822,0.288,20.874-1.366,29.986-4.641V56.599z"/>
						<path style="opacity:0.6;fill:#FFFFFF;" d="M310.525,56.295l-39.768,0.688c-7.3-9.353-28.286-17.699-49.075-14.713
							c6.526-3.62,13.54-6.366,20.875-8.211c13.641-3.431,28.057-3.03,41.139,2.141C298.409,42.016,306.947,51.52,310.525,56.295z"
							/>
						<path style="fill:#BA68C8;" d="M310.525,56.295l-39.768,0.688c-7.3-9.353-28.286-17.699-49.075-14.713
							c6.526-3.62,13.54-6.366,20.875-8.211c13.641-3.431,28.057-3.03,41.139,2.141C298.409,42.016,306.947,51.52,310.525,56.295z"
							/>
						<path style="opacity:0.8;fill:#FFFFFF;" d="M310.525,56.295l-39.768,0.688c-7.3-9.353-28.286-17.699-49.075-14.713
							c6.526-3.62,13.54-6.366,20.875-8.211c13.641-3.431,28.057-3.03,41.139,2.141C298.409,42.016,306.947,51.52,310.525,56.295z"
							/>
					</g>
					<g>
						<path style="fill:#BA68C8;" d="M348.394,93.889c-2.234-8.737-5.07-18.931-9.797-26.959
							c-4.691-7.967-12.998-13.117-22.188-14.129c-25.171-2.771-71.631,0.95-86.198,35.268c-7.443,17.536-9.268,53.198-5.833,77.855
							c3.836,27.535,8.167,32.63,18.585,39.247c18.888,11.998,58.828,29.251,78.055,19.053c9.98-5.293,19.451-23.575,25.942-45.424
							c4.102-13.807,7.666-30.783,6.06-44.44c-0.779-6.625-1.901-9.216-4.266-17.243C346.502,109.475,350.866,102.43,348.394,93.889
							z"/>
					</g>
					<g style="opacity:0.9;">
						<path style="fill:#FFFFFF;" d="M348.394,93.889c-2.234-8.737-5.07-18.931-9.797-26.959
							c-4.691-7.967-12.998-13.117-22.188-14.129c-25.171-2.771-71.631,0.95-86.198,35.268c-7.443,17.536-9.268,53.198-5.833,77.855
							c3.836,27.535,8.167,32.63,18.585,39.247c18.888,11.998,58.828,29.251,78.055,19.053c9.98-5.293,19.451-23.575,25.942-45.424
							c4.102-13.807,7.666-30.783,6.06-44.44c-0.779-6.625-1.901-9.216-4.266-17.243C346.502,109.475,350.866,102.43,348.394,93.889
							z"/>
					</g>
					<g>
						<path style="opacity:0.2;fill:#BA68C8;" d="M326.824,122.462c-2.449,0-3.673-3.645-2.476-8.829
							c1.196-5.185,4.771-9.799,10.222-12.458c5.45-2.659,12.159-1.884,14.608-1.618c0,0-0.189,3.56-0.55,6.504
							c-0.361,2.944-1.006,7.291,0.127,11.056C348.754,117.117,337.116,122.462,326.824,122.462z"/>
						<path style="opacity:0.4;fill:#BA68C8;" d="M345.913,107.496c-0.662-0.538-1.45-0.883-2.276-1.082
							c-1.976-0.475-4.505-0.221-6.357,0.509c-3.66,1.443-6.856,3.678-9.071,7.272c-0.034,0.055-0.018,0.278,0.066,0.206
							c3.084-2.646,5.526-4.421,8.836-5.748c1.701-0.682,3.721-1.219,5.564-0.969c0.967,0.131,1.833,0.589,2.646,1.109
							c0.608,0.389,1.028,1.029,1.669,1.348c0.144,0.072,0.443,0.05,0.472-0.156C347.592,109.072,346.568,108.03,345.913,107.496z"
							/>
						<path style="opacity:0.2;fill:#BA68C8;" d="M267.662,125.727c-2.88,0-4.981-1.464-9.324-6.389
							c3.86-6.687,16.729-16.116,30.562-17.563c13.833-1.448,17.371,4.037,17.707,9.216c0.336,5.18-1.609,14.769-5.183,14.736
							c-3.592-0.033-2.869-0.921-9.468-1.594C287.453,123.458,273.125,124.747,267.662,125.727z"/>
						<path style="opacity:0.4;fill:#BA68C8;" d="M295.316,116.61c-0.373-0.753-0.669-1.499-1.21-2.153
							c-0.6-0.726-1.284-1.361-2.064-1.891c-1.555-1.058-3.424-1.639-5.285-1.831c-4.107-0.423-8.028,0.685-11.723,2.43
							c-2.509,1.185-5.008,2.625-6.641,4.869c0.628-0.085,1.174-0.455,1.707-0.798c2.947-1.901,6.214-3.301,9.621-4.13
							c3.471-0.844,6.986-1.309,10.41,0.034c0.854,0.335,1.692,0.732,2.462,1.232c0.954,0.619,1.951,1.415,2.561,2.391
							C295.251,116.918,295.375,116.729,295.316,116.61z"/>
						<path style="opacity:0.2;fill:#BA68C8;" d="M326.061,148.107c-7.566,0.621-18.782,8.368-17.766,11.911
							c1.016,3.543,18.749,1.824,22.144-0.993C333.835,156.208,332.185,147.605,326.061,148.107z"/>
						<path style="opacity:0.4;fill:#BA68C8;" d="M321.509,174.287c-4.073,0.765-5.795-2.419-10.227-0.093
							c-4.432,2.326-10.321,7.946-22.024,11.399c12.532,3.24,20.47-4.082,23.931-3.256c5.857,1.399,6.733,1.198,11.075-0.686
							c2.503-1.086,4.942,1.16,8.283,0.347c-1.685-1.597-1.11-7.442-3.761-9.226C325.891,170.826,323.622,173.889,321.509,174.287z"
							/>
						<path style="opacity:0.1;fill:#BA68C8;" d="M289.258,185.593c12.532,3.24,20.48-2.93,24.01-2.473
							c3.529,0.457,6.655,0.416,10.996-1.469c2.503-1.086,4.968,1.426,8.283,0.347c-2.481,2.187-2.951,11.279-14.671,13.161
							C299.608,198.093,296.481,188.319,289.258,185.593z"/>
						<path style="opacity:0.5;fill:#FFFFFF;" d="M313.5,192.406c-0.458-0.143-0.981-0.022-1.33,0.308
							c-0.152,0.144-0.271,0.361-0.325,0.592c-0.061,0.259-0.039,0.536,0.11,0.745c0.345,0.484,1.44,0.438,1.824,0.034
							C314.245,193.595,314.213,192.629,313.5,192.406z M309.249,192.09c-0.06-0.014-0.12-0.028-0.181-0.041
							c-1.605-0.371-2.981-0.595-4.556-1.078c-0.779-0.239-1.812-0.657-2.554-0.991c-0.643-0.29-1.328-0.681-2.046-0.749
							c-0.644-0.061-0.922,0.41-0.603,1.01c0.181,0.339,0.504,0.573,0.818,0.795c1.432,1.015,2.995,1.811,4.661,2.338
							c1.674,0.53,3.531,0.951,5.032,0.712c0.514-0.082,1.098-0.564,0.815-1.163C310.38,192.384,309.779,192.211,309.249,192.09z"/>
						<path style="opacity:0.4;fill:#BA68C8;" d="M321.713,199.687c-6.432-1.89-14.832-0.205-19.125,4.419
							c6.267-3.273,14.899-4.766,21.693-2.953C323.824,200.659,322.636,199.982,321.713,199.687z"/>
					</g>
				</g>
				<g>
					<path style="fill:#BA68C8;" d="M353.378,143.406c-0.916,0.478-1.809,0.867-2.68,1.186c-0.485-0.702-1.294-1.164-2.212-1.164
						c-1.331,0-2.429,0.97-2.643,2.24c-6.62,0.494-11.419-3.193-13.743-5.517c-0.565-0.565-1.182-1.339-1.835-2.159
						c-1.699-2.131-3.726-4.659-6.526-5.895c0.013-0.109,0.033-0.216,0.033-0.328c0-1.485-1.203-2.688-2.688-2.688
						c-0.258,0-0.501,0.048-0.737,0.115c-0.579-1.287-1.124-2.629-1.597-4.058c-0.96-2.897-1.554-5.187-1.861-7.235
						c0.58-0.16,1.078-0.505,1.43-0.972c0.361,0.364,0.741,0.784,1.138,1.226c1.815,2.018,4.074,4.53,7.33,4.776
						c7.397,0.553,13.836-0.849,19.68-4.3c0.787-0.465,1.547-0.977,2.285-1.512c0-0.001,0-0.001-0.001-0.002
						c-0.097-0.329-0.166-0.655-0.24-0.982c-0.809,0.601-1.653,1.17-2.524,1.685c-5.673,3.35-11.932,4.719-19.132,4.172
						c-2.879-0.216-4.997-2.573-6.699-4.466c-0.485-0.54-0.947-1.053-1.401-1.49c0.063-0.229,0.108-0.465,0.108-0.714
						c0-1.302-0.925-2.386-2.154-2.634c0.186-2.228,0.681-4.565,1.374-7.591c1.681-7.353-2.216-16.657-9.217-29.057
						c0.649-0.484,1.076-1.249,1.085-2.12c11.753-1.724,19.86-5.857,23.512-12.046c0.225-0.381,0.426-0.772,0.616-1.168
						c-0.228-0.251-0.457-0.5-0.691-0.741c-0.22,0.486-0.46,0.964-0.735,1.431c-3.507,5.943-11.386,9.926-22.862,11.603
						c-0.369-1.044-1.355-1.796-2.525-1.796c-1.377,0-2.499,1.04-2.656,2.375c-21.103,1.882-39.156-1.981-50.968-10.628
						c-0.469,0.258-0.933,0.522-1.395,0.791c-0.552,4.514-1.06,8.54-1.512,12.115c-2.524,19.982-3.348,26.525-0.867,31.921
						c-0.673,0.489-1.115,1.276-1.115,2.171c0,0.083,0.017,0.161,0.024,0.242c-11.03,4.764-20.29,15.79-26.008,24.004
						c-0.013,0.57-0.025,1.14-0.034,1.71c5.544-8.182,14.982-19.871,26.286-24.804c0.432,0.906,1.349,1.536,2.419,1.536
						c0.426,0,0.824-0.108,1.182-0.285c5.151,7.875,10.179,14.385,15.086,13.846c0.935-0.103,2.1-0.262,3.434-0.444
						c6.278-0.857,15.767-2.152,22.683-0.717l1.322,0.276c3.161,0.661,5.226,1.093,6.878,1.093c2.502,0,4.057-0.991,7.037-3.677
						c2.3-2.073,3.515-3.667,4.402-4.829c0.249-0.326,0.463-0.601,0.666-0.847c0.448,0.53,1.093,0.879,1.826,0.939
						c0.311,2.114,0.914,4.485,1.896,7.446c0.488,1.472,1.046,2.855,1.641,4.175c-0.646,0.476-1.07,1.228-1.093,2.086
						c-3.088,1.009-6.404,4.247-11.781,9.52l-1.41,1.382c-4.462,4.364-12.4,10.738-23.027,13.878
						c-0.436-0.895-1.346-1.517-2.409-1.517c-1.485,0-2.688,1.204-2.688,2.688c0,0.011,0.003,0.022,0.004,0.034
						c-3.079,0.543-6.344,0.794-9.781,0.648c-19.294-0.829-32.545-6.117-44.546-13.788c0.008,0.379,0.014,0.76,0.025,1.138
						c11.975,7.566,25.25,12.766,44.481,13.592c0.672,0.029,1.337,0.042,1.995,0.042c2.791,0,5.46-0.258,8.006-0.709
						c0.387,1.01,1.358,1.731,2.505,1.731c0.193,0,0.38-0.022,0.561-0.061c2.4,7.669,2.2,15.407,8.013,23.527
						c-0.297,0.433-0.473,0.955-0.473,1.52c0,1.143,0.717,2.114,1.723,2.502c-0.136,5.907-1.421,16.226-17.869,17.147
						c-1.918,0.107-19.967,0.064-29.797-0.461c0.337,0.22,0.679,0.441,1.029,0.663c0.23,0.146,0.477,0.296,0.712,0.443
						c8.696,0.494,26.196,0.403,28.11,0.295c17.126-0.959,18.406-11.789,18.694-17.91c0.03,0.001,0.057,0.009,0.087,0.009
						c0.338,0,0.658-0.069,0.955-0.183c4.029,5.155,10.53,13.351,8.488,20.368c-2.098,7.217-3.643,14.313-1.642,18.567
						c0.381,0.05,0.755,0.087,1.133,0.131c-2.3-3.909-0.631-11.404,1.414-18.435c2.103-7.232-4.732-15.689-8.642-21.075
						c0.221-0.184,0.414-0.396,0.567-0.641c4.242,0.782,9.942-0.261,13.217-1.517c6.215-2.383,7.73-2.054,9.486-1.673
						c0.721,0.157,1.468,0.319,2.555,0.319c1.671,0,3.099-0.587,4.48-1.154c1.797-0.739,3.495-1.44,5.662-0.859
						c0.786,0.209,1.447,0.356,2.012,0.458c-0.001,0.023-0.007,0.044-0.007,0.067c0,0.869,0.419,1.633,1.059,2.125
						c-1.355,3.299-2.746,6.195-4.523,9.887c-0.46,0.954-0.943,1.957-1.456,3.032c-1.707,3.574,4.554,9.559,4.289,13.928
						l-0.023,0.378c-0.117,1.931-0.618,4.176-1.292,6.316c0.508-0.591,1.012-1.217,1.514-1.867c0.374-1.513,0.635-3.019,0.718-4.392
						l0.023-0.378c0.26-4.292-6.008-10.172-4.379-13.579c0.512-1.074,0.996-2.077,1.454-3.03c1.771-3.678,3.16-6.574,4.513-9.864
						c0.252,0.078,0.514,0.132,0.791,0.132c0.785,0,1.485-0.342,1.976-0.879c2.805,1.49,6.862,3.944,8.197,6.202
						c0.137-0.369,0.272-0.742,0.408-1.114c-1.353-2.371-5.497-4.576-8.054-6.012c0.098-0.279,0.161-0.573,0.161-0.885
						c0-1.075-0.635-1.995-1.546-2.425l0.564-1.499l-0.057,0.082c0.069-0.181,0.135-0.358,0.205-0.545
						c2.789-7.401,12.819-19.309,13.972-29.217c1.355-0.138,2.416-1.269,2.416-2.661c0-0.24-0.042-0.469-0.101-0.69
						c0.743-0.272,1.501-0.595,2.273-0.973C353.361,144.102,353.369,143.754,353.378,143.406z M312.72,117.325
						c-0.866,1.133-2.05,2.687-4.285,4.701c-4.591,4.138-5.07,4.038-13.091,2.361l-1.323-0.276c-7.076-1.47-16.66-0.16-23.002,0.705
						c-1.324,0.181-2.482,0.34-3.409,0.442c-4.392,0.493-9.229-5.826-14.221-13.464c0.459-0.482,0.745-1.131,0.745-1.849
						c0-1.485-1.203-2.688-2.688-2.688c-0.251,0-0.489,0.045-0.719,0.11c-2.362-5.184-1.548-11.645,0.947-31.394
						c0.454-3.6,0.965-7.645,1.521-12.195c10.019,7.286,24.366,11.223,41.202,11.223c3.328,0,6.759-0.165,10.267-0.478
						c0.285,1.178,1.34,2.056,2.605,2.056c0.265,0,0.516-0.05,0.758-0.121c6.908,12.227,10.759,21.354,9.141,28.43
						c-0.697,3.048-1.208,5.444-1.391,7.787c-1.292,0.195-2.286,1.301-2.286,2.648c0,0.301,0.061,0.585,0.152,0.855
						C313.349,116.507,313.054,116.887,312.72,117.325z M317.91,182.919c-0.883-0.019-1.541-0.155-2.167-0.291
						c-1.824-0.394-3.547-0.769-10.023,1.715c-3.227,1.237-8.6,2.159-12.52,1.503c0.034-0.17,0.053-0.346,0.053-0.525
						c0-1.485-1.203-2.688-2.688-2.688c-0.574,0-1.103,0.183-1.54,0.49c-5.661-8.018-5.406-15.654-7.804-23.214
						c0.746-0.478,1.244-1.309,1.244-2.261c0-0.089-0.018-0.174-0.026-0.261c10.825-3.193,18.896-9.676,23.434-14.114l1.411-1.382
						c5.217-5.116,8.42-8.249,11.273-9.24c0.366,1.05,1.354,1.808,2.529,1.808c0.24,0,0.468-0.042,0.69-0.101
						c0.67,1.499,1.236,2.964,1.783,4.385c1.671,4.348,2.027,4.962,2.646,7.052c1.464,4.948-1.12,8.022-2.062,11.026
						c-1.234,3.937-6.194,10.229-3.226,14.426C324.302,176.03,318.848,181.959,317.91,182.919z M333.905,177.66
						c-0.273,0.724-0.531,1.409-0.77,2.052c-0.068-0.005-0.133-0.02-0.202-0.02c-1.133,0-2.098,0.703-2.493,1.695
						c-0.523-0.093-1.158-0.229-1.957-0.442c-2.473-0.66-4.401,0.133-6.263,0.899c-0.983,0.404-1.928,0.786-2.939,0.969
						c1.824-2.12,5.666-7.499,2.404-12.11c-2.717-3.84,2.177-9.841,3.357-13.6c1.049-3.347,3.729-6.27,2.184-11.492
						c-0.653-2.207-1.362-3.541-2.86-7.355c-0.547-1.392-1.045-2.848-1.703-4.318c0.33-0.241,0.598-0.556,0.79-0.919
						c2.553,1.173,4.472,3.548,6.077,5.562c0.671,0.841,1.303,1.635,1.906,2.238c1.943,1.943,7.112,6.208,14.407,5.73
						c0.173,1.062,0.962,1.91,1.993,2.168C346.76,158.463,336.677,170.306,333.905,177.66z"/>
					<path style="opacity:0.7;fill:#FFFFFF;" d="M353.378,143.406c-0.916,0.478-1.809,0.867-2.68,1.186
						c-0.485-0.702-1.294-1.164-2.212-1.164c-1.331,0-2.429,0.97-2.643,2.24c-6.62,0.494-11.419-3.193-13.743-5.517
						c-0.565-0.565-1.182-1.339-1.835-2.159c-1.699-2.131-3.726-4.659-6.526-5.895c0.013-0.109,0.033-0.216,0.033-0.328
						c0-1.485-1.203-2.688-2.688-2.688c-0.258,0-0.501,0.048-0.737,0.115c-0.579-1.287-1.124-2.629-1.597-4.058
						c-0.96-2.897-1.554-5.187-1.861-7.235c0.58-0.16,1.078-0.505,1.43-0.972c0.361,0.364,0.741,0.784,1.138,1.226
						c1.815,2.018,4.074,4.53,7.33,4.776c7.397,0.553,13.836-0.849,19.68-4.3c0.787-0.465,1.547-0.977,2.285-1.512
						c0-0.001,0-0.001-0.001-0.002c-0.097-0.329-0.166-0.655-0.24-0.982c-0.809,0.601-1.653,1.17-2.524,1.685
						c-5.673,3.35-11.932,4.719-19.132,4.172c-2.879-0.216-4.997-2.573-6.699-4.466c-0.485-0.54-0.947-1.053-1.401-1.49
						c0.063-0.229,0.108-0.465,0.108-0.714c0-1.302-0.925-2.386-2.154-2.634c0.186-2.228,0.681-4.565,1.374-7.591
						c1.681-7.353-2.216-16.657-9.217-29.057c0.649-0.484,1.076-1.249,1.085-2.12c11.753-1.724,19.86-5.857,23.512-12.046
						c0.225-0.381,0.426-0.772,0.616-1.168c-0.228-0.251-0.457-0.5-0.691-0.741c-0.22,0.486-0.46,0.964-0.735,1.431
						c-3.507,5.943-11.386,9.926-22.862,11.603c-0.369-1.044-1.355-1.796-2.525-1.796c-1.377,0-2.499,1.04-2.656,2.375
						c-21.103,1.882-39.156-1.981-50.968-10.628c-0.469,0.258-0.933,0.522-1.395,0.791c-0.552,4.514-1.06,8.54-1.512,12.115
						c-2.524,19.982-3.348,26.525-0.867,31.921c-0.673,0.489-1.115,1.276-1.115,2.171c0,0.083,0.017,0.161,0.024,0.242
						c-11.03,4.764-20.29,15.79-26.008,24.004c-0.013,0.57-0.025,1.14-0.034,1.71c5.544-8.182,14.982-19.871,26.286-24.804
						c0.432,0.906,1.349,1.536,2.419,1.536c0.426,0,0.824-0.108,1.182-0.285c5.151,7.875,10.179,14.385,15.086,13.846
						c0.935-0.103,2.1-0.262,3.434-0.444c6.278-0.857,15.767-2.152,22.683-0.717l1.322,0.276c3.161,0.661,5.226,1.093,6.878,1.093
						c2.502,0,4.057-0.991,7.037-3.677c2.3-2.073,3.515-3.667,4.402-4.829c0.249-0.326,0.463-0.601,0.666-0.847
						c0.448,0.53,1.093,0.879,1.826,0.939c0.311,2.114,0.914,4.485,1.896,7.446c0.488,1.472,1.046,2.855,1.641,4.175
						c-0.646,0.476-1.07,1.228-1.093,2.086c-3.088,1.009-6.404,4.247-11.781,9.52l-1.41,1.382
						c-4.462,4.364-12.4,10.738-23.027,13.878c-0.436-0.895-1.346-1.517-2.409-1.517c-1.485,0-2.688,1.204-2.688,2.688
						c0,0.011,0.003,0.022,0.004,0.034c-3.079,0.543-6.344,0.794-9.781,0.648c-19.294-0.829-32.545-6.117-44.546-13.788
						c0.008,0.379,0.014,0.76,0.025,1.138c11.975,7.566,25.25,12.766,44.481,13.592c0.672,0.029,1.337,0.042,1.995,0.042
						c2.791,0,5.46-0.258,8.006-0.709c0.387,1.01,1.358,1.731,2.505,1.731c0.193,0,0.38-0.022,0.561-0.061
						c2.4,7.669,2.2,15.407,8.013,23.527c-0.297,0.433-0.473,0.955-0.473,1.52c0,1.143,0.717,2.114,1.723,2.502
						c-0.136,5.907-1.421,16.226-17.869,17.147c-1.918,0.107-19.967,0.064-29.797-0.461c0.337,0.22,0.679,0.441,1.029,0.663
						c0.23,0.146,0.477,0.296,0.712,0.443c8.696,0.494,26.196,0.403,28.11,0.295c17.126-0.959,18.406-11.789,18.694-17.91
						c0.03,0.001,0.057,0.009,0.087,0.009c0.338,0,0.658-0.069,0.955-0.183c4.029,5.155,10.53,13.351,8.488,20.368
						c-2.098,7.217-3.643,14.313-1.642,18.567c0.381,0.05,0.755,0.087,1.133,0.131c-2.3-3.909-0.631-11.404,1.414-18.435
						c2.103-7.232-4.732-15.689-8.642-21.075c0.221-0.184,0.414-0.396,0.567-0.641c4.242,0.782,9.942-0.261,13.217-1.517
						c6.215-2.383,7.73-2.054,9.486-1.673c0.721,0.157,1.468,0.319,2.555,0.319c1.671,0,3.099-0.587,4.48-1.154
						c1.797-0.739,3.495-1.44,5.662-0.859c0.786,0.209,1.447,0.356,2.012,0.458c-0.001,0.023-0.007,0.044-0.007,0.067
						c0,0.869,0.419,1.633,1.059,2.125c-1.355,3.299-2.746,6.195-4.523,9.887c-0.46,0.954-0.943,1.957-1.456,3.032
						c-1.707,3.574,4.554,9.559,4.289,13.928l-0.023,0.378c-0.117,1.931-0.618,4.176-1.292,6.316
						c0.508-0.591,1.012-1.217,1.514-1.867c0.374-1.513,0.635-3.019,0.718-4.392l0.023-0.378c0.26-4.292-6.008-10.172-4.379-13.579
						c0.512-1.074,0.996-2.077,1.454-3.03c1.771-3.678,3.16-6.574,4.513-9.864c0.252,0.078,0.514,0.132,0.791,0.132
						c0.785,0,1.485-0.342,1.976-0.879c2.805,1.49,6.862,3.944,8.197,6.202c0.137-0.369,0.272-0.742,0.408-1.114
						c-1.353-2.371-5.497-4.576-8.054-6.012c0.098-0.279,0.161-0.573,0.161-0.885c0-1.075-0.635-1.995-1.546-2.425l0.564-1.499
						l-0.057,0.082c0.069-0.181,0.135-0.358,0.205-0.545c2.789-7.401,12.819-19.309,13.972-29.217
						c1.355-0.138,2.416-1.269,2.416-2.661c0-0.24-0.042-0.469-0.101-0.69c0.743-0.272,1.501-0.595,2.273-0.973
						C353.361,144.102,353.369,143.754,353.378,143.406z M312.72,117.325c-0.866,1.133-2.05,2.687-4.285,4.701
						c-4.591,4.138-5.07,4.038-13.091,2.361l-1.323-0.276c-7.076-1.47-16.66-0.16-23.002,0.705c-1.324,0.181-2.482,0.34-3.409,0.442
						c-4.392,0.493-9.229-5.826-14.221-13.464c0.459-0.482,0.745-1.131,0.745-1.849c0-1.485-1.203-2.688-2.688-2.688
						c-0.251,0-0.489,0.045-0.719,0.11c-2.362-5.184-1.548-11.645,0.947-31.394c0.454-3.6,0.965-7.645,1.521-12.195
						c10.019,7.286,24.366,11.223,41.202,11.223c3.328,0,6.759-0.165,10.267-0.478c0.285,1.178,1.34,2.056,2.605,2.056
						c0.265,0,0.516-0.05,0.758-0.121c6.908,12.227,10.759,21.354,9.141,28.43c-0.697,3.048-1.208,5.444-1.391,7.787
						c-1.292,0.195-2.286,1.301-2.286,2.648c0,0.301,0.061,0.585,0.152,0.855C313.349,116.507,313.054,116.887,312.72,117.325z
						 M317.91,182.919c-0.883-0.019-1.541-0.155-2.167-0.291c-1.824-0.394-3.547-0.769-10.023,1.715
						c-3.227,1.237-8.6,2.159-12.52,1.503c0.034-0.17,0.053-0.346,0.053-0.525c0-1.485-1.203-2.688-2.688-2.688
						c-0.574,0-1.103,0.183-1.54,0.49c-5.661-8.018-5.406-15.654-7.804-23.214c0.746-0.478,1.244-1.309,1.244-2.261
						c0-0.089-0.018-0.174-0.026-0.261c10.825-3.193,18.896-9.676,23.434-14.114l1.411-1.382c5.217-5.116,8.42-8.249,11.273-9.24
						c0.366,1.05,1.354,1.808,2.529,1.808c0.24,0,0.468-0.042,0.69-0.101c0.67,1.499,1.236,2.964,1.783,4.385
						c1.671,4.348,2.027,4.962,2.646,7.052c1.464,4.948-1.12,8.022-2.062,11.026c-1.234,3.937-6.194,10.229-3.226,14.426
						C324.302,176.03,318.848,181.959,317.91,182.919z M333.905,177.66c-0.273,0.724-0.531,1.409-0.77,2.052
						c-0.068-0.005-0.133-0.02-0.202-0.02c-1.133,0-2.098,0.703-2.493,1.695c-0.523-0.093-1.158-0.229-1.957-0.442
						c-2.473-0.66-4.401,0.133-6.263,0.899c-0.983,0.404-1.928,0.786-2.939,0.969c1.824-2.12,5.666-7.499,2.404-12.11
						c-2.717-3.84,2.177-9.841,3.357-13.6c1.049-3.347,3.729-6.27,2.184-11.492c-0.653-2.207-1.362-3.541-2.86-7.355
						c-0.547-1.392-1.045-2.848-1.703-4.318c0.33-0.241,0.598-0.556,0.79-0.919c2.553,1.173,4.472,3.548,6.077,5.562
						c0.671,0.841,1.303,1.635,1.906,2.238c1.943,1.943,7.112,6.208,14.407,5.73c0.173,1.062,0.962,1.91,1.993,2.168
						C346.76,158.463,336.677,170.306,333.905,177.66z"/>
				</g>
				<path style="opacity:0.2;fill:#BA68C8;" d="M314.11,226.119c-11.256,1.473-25.864-3.093-39.575-10.224
					c-13.711-7.131-26.77-14.905-31.903-31.682c-5.134-16.777-5.606-50.41-1.497-80.542c4.109-30.132,22.599-43.828,48.123-50.44
					l0.045-0.505c-23.175,2.328-48.915,11.367-59.092,35.342c-7.443,17.536-9.268,53.199-5.833,77.855
					c3.836,27.535,8.167,32.629,18.585,39.247c16.873,10.718,50.533,25.612,71.233,21.403L314.11,226.119z"/>
				<path style="opacity:0.5;fill:#FFFFFF;" d="M314.624,147.402c0.105,0.822,0.327,1.798,1.106,2.079
					c0.5,0.181,1.05-0.006,1.549-0.191c2.038-0.758,4.076-1.516,6.114-2.274c0.287-0.107,0.593-0.228,0.763-0.483
					c0.27-0.405,0.082-0.946-0.112-1.393c-3.054-7.027-5.838-14.054-8.617-21.18c-0.426-1.092-0.876-2.197-1.618-3.104
					C312.565,119.337,314.148,143.665,314.624,147.402z"/>
				<path style="opacity:0.5;fill:#FFFFFF;" d="M257.688,126.258c-1.098-0.069-2.233,0.114-3.439,0.642
					c-0.652,0.286-1.104,0.89-1.47,1.501c-2.177,3.631-2.068,8.377-0.114,12.077c2.424,4.589,8.706,6.544,13.504,7.155
					c7.281,0.929,15.954,0.097,21.192-5.757c1.14-1.275,2.766-3.973,0.544-5.069c-0.588-0.29-1.262-0.331-1.916-0.369
					c-4.432-0.257-8.419-0.772-12.541-2.511c-3.597-1.517-7.038-3.61-10.304-5.598C261.322,127.221,259.559,126.375,257.688,126.258
					z"/>
				<path style="opacity:0.5;fill:#FFFFFF;" d="M353.269,137.107c-0.062-0.928-0.143-1.846-0.249-2.747
					c-0.536-4.558-1.234-7.207-2.388-11.031c-1.643,1.995-3.314,3.351-5.814,4.472c-2.637,1.182-5.492,1.839-8.36,2.129
					c-0.742,0.075-1.569,0.177-2.211,0.51c-0.363,0.188-0.668,0.45-0.866,0.822c-0.605,1.138,0.223,2.509,1.147,3.408
					c3.714,3.61,11.103,5.838,16.052,3.89C351.527,138.186,352.425,137.689,353.269,137.107z"/>
				<path style="fill:#BA68C8;" d="M306.464,227.771c-21.359,0.001-50.28-13.635-63.757-22.197
					c-10.58-6.721-14.942-11.874-18.803-39.585c-3.242-23.278-1.923-59.759,5.866-78.109c15.15-35.69,63.46-38.065,87.002-35.498
					c9.027,0.984,17.226,5.979,21.927,13.748c4.733,7.822,7.687,17.968,10.158,27.632c1.292,4.47,0.756,8.511,0.237,12.42
					c-0.488,3.688-0.95,7.169,0.12,10.799c0.495,1.68,0.935,3.121,1.329,4.411c1.503,4.921,2.332,7.631,2.953,12.911
					c1.684,14.316-2.375,32.173-6.077,44.632c-7.028,23.657-16.813,40.745-26.176,45.711
					C317.107,226.842,312.042,227.771,306.464,227.771z M302.532,52.586c-24.826,0-59.554,6.63-71.879,35.669
					c-7.725,18.198-9.025,54.449-5.8,77.601c3.804,27.311,8.059,32.361,18.367,38.908c16.846,10.702,57.972,29.43,77.574,19.036
					c9.14-4.849,18.75-21.723,25.707-45.138c3.676-12.373,7.708-30.093,6.044-44.247c-0.612-5.195-1.431-7.876-2.919-12.743
					c-0.395-1.293-0.836-2.738-1.332-4.421c-1.127-3.824-0.652-7.405-0.15-11.196c0.506-3.813,1.028-7.755-0.211-12.035
					l-0.004-0.015c-2.312-9.041-5.045-18.508-9.254-26.024c-4.643-8.291-13.136-13.731-22.587-14.716
					C312.15,52.857,307.542,52.586,302.532,52.586z"/>
			</g>
			<g>
				<path style="fill:#37474F;" d="M266.765,125.473c1.987-5.546,9.936-9.322,19.077-8.726c9.141,0.596,10.853,5.737,10.891,8.135
					c0.038,2.397-3.619,7.277-13.515,7.766C273.775,133.115,268.394,128.221,266.765,125.473z"/>
				<path d="M286.805,123.175c0-2.679-1.335-5.042-3.371-6.474c-4.536,0.083-8.645,1.24-11.705,3.133
					c-0.475,1.016-0.747,2.145-0.747,3.34c0,4.37,3.542,7.912,7.912,7.912C283.263,131.087,286.805,127.545,286.805,123.175z"/>
				<g>
					<path style="fill:#BA68C8;" d="M282.351,123.146c0,1.91-1.548,3.458-3.458,3.458c-1.91,0-3.458-1.548-3.458-3.458
						s1.548-3.458,3.458-3.458C280.803,119.687,282.351,121.236,282.351,123.146z"/>
					<path style="opacity:0.6;fill:#FFFFFF;" d="M282.351,123.146c0,1.91-1.548,3.458-3.458,3.458c-1.91,0-3.458-1.548-3.458-3.458
						s1.548-3.458,3.458-3.458C280.803,119.687,282.351,121.236,282.351,123.146z"/>
				</g>
				<path style="fill:#FFFFFF;" d="M283.473,121.535c0,0.889-0.721,1.61-1.61,1.61c-0.889,0-1.61-0.721-1.61-1.61
					c0-0.889,0.721-1.61,1.61-1.61C282.752,119.925,283.473,120.646,283.473,121.535z"/>
			</g>
			<g>
				<path style="fill:#37474F;" d="M339.957,126.692c6.9-1.407,9.564-5.366,8.558-10.557c-0.339-1.828-1.884-4.853-7.87-4.306
					c-5.466,0.499-13.073,4.559-12.411,10.633C328.609,125.906,334.631,127.778,339.957,126.692z"/>
				<path d="M340.1,112.052c-3.741,0.409-8.4,2.483-10.602,5.717c-0.023,0.236-0.036,0.476-0.036,0.718
					c0,4.014,3.253,7.267,7.267,7.267s7.267-3.254,7.267-7.267C343.997,115.691,342.415,113.267,340.1,112.052z"/>
				<g>
					<path style="fill:#BA68C8;" d="M339.907,118.635c0,1.755-1.423,3.177-3.177,3.177c-1.755,0-3.177-1.423-3.177-3.177
						c0-1.755,1.423-3.177,3.177-3.177C338.484,115.458,339.907,116.88,339.907,118.635z"/>
					<path style="opacity:0.6;fill:#FFFFFF;" d="M339.907,118.635c0,1.755-1.423,3.177-3.177,3.177
						c-1.755,0-3.177-1.423-3.177-3.177c0-1.755,1.423-3.177,3.177-3.177C338.484,115.458,339.907,116.88,339.907,118.635z"/>
				</g>
				<path style="fill:#FFFFFF;" d="M340.856,116.702c0,0.889-0.721,1.61-1.61,1.61c-0.889,0-1.61-0.721-1.61-1.61
					c0-0.889,0.721-1.61,1.61-1.61C340.135,115.092,340.856,115.813,340.856,116.702z"/>
			</g>
			<path style="fill:#37474F;" d="M330.44,181.386c-1.371-0.34-2.279-0.797-3.702-0.964c-1.235-0.144-2.443,0.022-3.599,0.476
				c-1.036,0.407-1.952,1.089-3.013,1.432c-1.188,0.384-2.384,0.116-3.56-0.183c-1.204-0.306-2.378-0.57-3.63-0.523
				c-1.205,0.045-2.403,0.336-3.547,0.7c-2.42,0.77-4.729,1.815-7.189,2.474c-1.331,0.357-2.682,0.622-4.046,0.815
				c-1.72,0.243-3.218,0.301-4.952,0.233c-0.056,0.29-0.198,0.644-0.361,0.894c1.537,0.32,3.104,0.424,4.673,0.325
				c1.276-0.081,2.536-0.275,3.785-0.545c2.515-0.543,4.804-1.244,7.22-2.111c1.148-0.411,2.485-0.869,3.699-1.026
				c1.262-0.163,2.363-0.101,3.587,0.211c1.156,0.294,2.335,0.612,3.539,0.455c1.096-0.143,2.062-0.658,3.02-1.179
				c1.123-0.611,2.231-1.072,3.526-1.14c1.655-0.087,2.711,0.528,4.362,0.582C330.252,182.088,330.273,181.783,330.44,181.386z"/>
			<g>
				<g>
					<path style="fill:#263238;" d="M181.292,124.09c-4.66,2.691-7.543,8.461-7.543,16.673c0,16.423,11.531,36.395,25.753,44.606
						c7.112,4.107,13.55,4.495,18.211,1.804c2.83-1.634,5.559-3.212,8.389-4.846c4.66-2.691,7.543-8.462,7.543-16.673
						c-0.001-16.425-11.531-36.395-25.754-44.607c-7.112-4.107-13.55-4.493-18.21-1.803
						C186.851,120.878,184.122,122.456,181.292,124.09z"/>
					<path style="fill:#455A64;" d="M199.503,185.369c7.112,4.106,13.55,4.495,18.21,1.804c4.66-2.691,7.543-8.461,7.542-16.673
						c0-16.424-11.531-36.395-25.754-44.607c-7.112-4.106-13.55-4.494-18.21-1.803c-4.66,2.691-7.543,8.461-7.543,16.673
						C173.749,157.186,185.279,177.158,199.503,185.369z"/>
					<g>
						<path style="fill:#BA68C8;" d="M209.368,182.994c-2.903,0-6.153-1.037-9.54-3.085l0,0
							c-11.41-6.902-20.915-23.365-21.188-36.698c-0.134-6.533,1.937-11.369,5.829-13.617c3.894-2.247,9.117-1.623,14.706,1.759
							c11.411,6.902,20.916,23.365,21.189,36.698c0.134,6.533-1.937,11.369-5.83,13.617
							C213,182.554,211.257,182.994,209.368,182.994z M200.156,179.366c5.384,3.256,10.378,3.88,14.062,1.753
							c3.684-2.128,5.641-6.764,5.512-13.055c-0.268-13.142-9.636-29.366-20.882-36.169c-5.384-3.256-10.375-3.879-14.062-1.753
							c-3.683,2.127-5.64,6.764-5.511,13.055C179.543,156.338,188.911,172.564,200.156,179.366L200.156,179.366z"/>
					</g>
				</g>
				<g>
					<g>
						<g>
							<path style="fill:#BA68C8;" d="M214.792,165.938c0-10.564-7.416-23.409-16.565-28.691c-4.588-2.649-8.739-2.892-11.738-1.144
								c-0.912,0.531-3.255,1.87-4.171,2.394c-3.014,1.724-4.879,5.44-4.879,10.738c0,10.564,7.416,23.409,16.565,28.691
								c4.583,2.646,8.731,2.891,11.729,1.149c0.915-0.532,3.29-1.884,4.215-2.42C212.941,174.923,214.792,171.215,214.792,165.938z
								"/>
							<path style="opacity:0.3;" d="M214.792,165.938c0-10.564-7.416-23.409-16.565-28.691c-4.588-2.649-8.739-2.892-11.738-1.144
								c-0.912,0.531-3.255,1.87-4.171,2.394c-3.014,1.724-4.879,5.44-4.879,10.738c0,10.564,7.416,23.409,16.565,28.691
								c4.583,2.646,8.731,2.891,11.729,1.149c0.915-0.532,3.29-1.884,4.215-2.42C212.941,174.923,214.792,171.215,214.792,165.938z
								"/>
						</g>
						
							<ellipse transform="matrix(0.866 -0.5 0.5 0.866 -53.4077 118.2772)" style="fill:#BA68C8;" cx="194.004" cy="158.798" rx="13.525" ry="23.426"/>
						
							<ellipse transform="matrix(0.866 -0.5 0.5 0.866 -53.6977 118.0071)" style="fill:#263238;" cx="193.355" cy="159.205" rx="10.497" ry="18.181"/>
						<g>
							<path style="fill:#455A64;" d="M200.388,151.934l-7.603,7.594l-9.08-15.732c2.32-1.35,5.537-1.16,9.08,0.888
								C195.621,146.334,198.249,148.907,200.388,151.934z"/>
							<path style="fill:#37474F;" d="M205.644,166.959c0,4.096-1.441,6.978-3.77,8.31l-9.089-15.741l7.603-7.594
								C203.569,156.474,205.644,162.038,205.644,166.959z"/>
							<path style="fill:#455A64;" d="M201.874,175.269c-2.329,1.35-5.537,1.16-9.089-0.888c-2.845-1.64-5.464-4.223-7.594-7.259
								l7.594-7.594L201.874,175.269z"/>
							<path style="fill:#37474F;" d="M192.785,159.528l-7.594,7.594c-3.19-4.54-5.256-10.095-5.256-15.007
								c0-4.105,1.441-6.978,3.77-8.319L192.785,159.528z"/>
						</g>
					</g>
				</g>
				<path style="fill:#BA68C8;" d="M192.785,153.102c2.991,1.727,5.415,5.926,5.415,9.38s-2.424,4.853-5.415,3.126
					c-2.991-1.727-5.415-5.926-5.415-9.379C187.37,152.775,189.794,151.376,192.785,153.102z"/>
			</g>
		</g>
	</g>
</g>
<g id="Speech_Bubble">
	<g id="Speech_Bubble_00000140705074618795913500000004426963761961297299_">
		<g id="Speech_Bubble_00000124849937238046780350000005698004582910752437_">
			<g>
				<path style="fill:#BA68C8;" d="M132.931,128.42l0.029-23.288l19.586-2.064c0.427-0.045,0.809,0.049,1.125,0.234
					c0.948,0.558,9.954,5.77,10.267,5.95c0.958,0.552,1.31,1.943,0.419,2.88l-21.146,22.246L132.931,128.42z"/>
			</g>
			<g>
				<path id="XMLID_00000094614666337394911540000013908161110035790518_" style="fill:#BA68C8;" d="M71.491,180.962L71.489,108.9
					c0-1.046,0.735-2.319,1.641-2.842l58.764-33.859c0.906-0.523,2.372-0.516,3.273,0.016l9.138,5.397
					c0.901,0.532,1.632,1.812,1.632,2.859l0.002,72.061c0,1.047-0.735,2.319-1.641,2.843l-58.764,33.859
					c-0.906,0.523-2.372,0.516-3.273-0.016l-9.139-5.397C72.222,183.288,71.491,182.008,71.491,180.962z"/>
				<path id="XMLID_00000130629824962235969910000010120100668727717802_" style="opacity:0.15;" d="M85.266,189.364
					c-0.78,0.302-1.374-0.135-1.376-1.079l0.003-72.057c0.002-0.526,0.185-1.105,0.483-1.618l-12.44-7.268
					c-0.279,0.503-0.45,1.056-0.446,1.562l0.001,72.063c-0.002,1.043,0.727,2.32,1.632,2.857l9.136,5.395
					C83.078,189.699,84.362,189.754,85.266,189.364z"/>
				<path style="fill:#BA68C8;" d="M162.828,109.026l-16.89,1.78l-0.001-30.336c0-1.046-0.735-1.471-1.641-0.948l-58.764,33.859
					c-0.906,0.523-1.641,1.797-1.641,2.843l0.002,72.061c-0.001,1.047,0.734,1.471,1.641,0.948l58.763-33.859
					c0.906-0.523,1.642-1.796,1.642-2.843l-0.001-21.022l18.42-19.378C165.541,110.889,164.534,108.847,162.828,109.026z"/>
				<path style="opacity:0.35;fill:#FFFFFF;" d="M162.828,109.026l-16.89,1.78l-0.001-30.336c0-1.046-0.735-1.471-1.641-0.948
					l-58.764,33.859c-0.906,0.523-1.641,1.797-1.641,2.843l0.002,72.061c-0.001,1.047,0.734,1.471,1.641,0.948l58.763-33.859
					c0.906-0.523,1.642-1.796,1.642-2.843l-0.001-21.022l18.42-19.378C165.541,110.889,164.534,108.847,162.828,109.026z"/>
			</g>
		</g>
		<g id="Chip">
			<g id="XMLID_1198_">
				<g>
					<path style="fill:#BA68C8;" d="M109.049,156.76h-3.562l-0.008,11.26h0c0,0.001,0,0.002,0,0.003
						c0,0.984,0.797,1.781,1.781,1.781s1.781-0.797,1.781-1.781c0-0.001,0-0.002,0-0.003h0L109.049,156.76z"/>
					<path style="fill:#BA68C8;" d="M115.765,152.886h-3.562l-0.008,11.26l0,0c0,0.001,0,0.002,0,0.003
						c0,0.983,0.797,1.781,1.781,1.781c0.984,0,1.781-0.797,1.781-1.781c0-0.001,0-0.002,0-0.003h0L115.765,152.886z"/>
					<path style="fill:#BA68C8;" d="M122.482,149.012l-3.562,0l-0.008,11.26h0c0,0.001,0,0.002,0,0.003
						c0,0.984,0.797,1.781,1.781,1.781c0.984,0,1.781-0.798,1.781-1.781c0-0.001,0-0.002,0-0.003l0,0L122.482,149.012z"/>
					<path style="fill:#BA68C8;" d="M129.198,145.139h-3.562l-0.008,11.26l0,0c0,0.001,0,0.002,0,0.003
						c0,0.984,0.797,1.781,1.781,1.781c0.983,0,1.781-0.797,1.781-1.781c0-0.001,0-0.002,0-0.003h0L129.198,145.139z"/>
				</g>
			</g>
			<g id="XMLID_1196_" style="opacity:0.8;">
				<g>
					<g>
						<path style="fill:#FFFFFF;" d="M109.049,156.76h-3.562l-0.008,11.26h0c0,0.001,0,0.002,0,0.003
							c0,0.984,0.797,1.781,1.781,1.781s1.781-0.797,1.781-1.781c0-0.001,0-0.002,0-0.003h0L109.049,156.76z"/>
					</g>
					<g>
						<path style="fill:#FFFFFF;" d="M115.765,152.886h-3.562l-0.008,11.26l0,0c0,0.001,0,0.002,0,0.003
							c0,0.983,0.797,1.781,1.781,1.781c0.984,0,1.781-0.797,1.781-1.781c0-0.001,0-0.002,0-0.003h0L115.765,152.886z"/>
					</g>
					<g>
						<path style="fill:#FFFFFF;" d="M122.482,149.012l-3.562,0l-0.008,11.26h0c0,0.001,0,0.002,0,0.003
							c0,0.984,0.797,1.781,1.781,1.781c0.984,0,1.781-0.798,1.781-1.781c0-0.001,0-0.002,0-0.003l0,0L122.482,149.012z"/>
					</g>
					<g>
						<path style="fill:#FFFFFF;" d="M129.198,145.139h-3.562l-0.008,11.26l0,0c0,0.001,0,0.002,0,0.003
							c0,0.984,0.797,1.781,1.781,1.781c0.983,0,1.781-0.797,1.781-1.781c0-0.001,0-0.002,0-0.003h0L129.198,145.139z"/>
					</g>
				</g>
			</g>
			<g style="opacity:0.2;">
				<polygon style="fill:#BA68C8;" points="109.049,156.76 105.487,156.76 105.487,166.333 109.049,164.277 				"/>
				<polygon style="fill:#BA68C8;" points="125.637,154.7 129.198,152.643 129.198,145.139 125.637,145.139 				"/>
				<polygon style="fill:#BA68C8;" points="122.482,149.012 118.92,149.012 118.92,158.577 122.482,156.521 				"/>
				<polygon style="fill:#BA68C8;" points="115.765,152.886 112.204,152.886 112.204,162.455 115.765,160.399 				"/>
			</g>
			<g id="XMLID_1185_">
				<g>
					<path style="fill:#BA68C8;" d="M131.108,118.553l-1.781-3.084l9.748-5.637v0c0.001-0.001,0.002-0.001,0.003-0.002
						c0.852-0.492,1.941-0.2,2.433,0.652c0.492,0.852,0.2,1.941-0.652,2.433c-0.001,0.001-0.002,0.001-0.002,0.001l0,0
						L131.108,118.553z"/>
					<path style="fill:#BA68C8;" d="M131.111,126.306l-1.781-3.085l9.748-5.637l0,0c0.001-0.001,0.002-0.001,0.003-0.002
						c0.852-0.492,1.941-0.2,2.433,0.652c0.492,0.852,0.2,1.941-0.652,2.433c-0.001,0-0.002,0.001-0.003,0.001l0,0L131.111,126.306z
						"/>
					<path style="fill:#BA68C8;" d="M131.115,134.059l-1.781-3.084l9.748-5.637l0,0c0.001-0.001,0.002-0.001,0.003-0.002
						c0.852-0.492,1.941-0.2,2.433,0.652c0.492,0.852,0.2,1.941-0.652,2.433c-0.001,0-0.002,0.001-0.003,0.001l0,0L131.115,134.059z
						"/>
					<path style="fill:#BA68C8;" d="M131.118,141.813l-1.781-3.085l9.748-5.637l0,0c0.001-0.001,0.002-0.001,0.003-0.002
						c0.852-0.492,1.941-0.2,2.433,0.652c0.492,0.852,0.2,1.941-0.652,2.433c-0.001,0-0.002,0.001-0.003,0.001l0,0L131.118,141.813z
						"/>
				</g>
			</g>
			<g id="XMLID_1179_" style="opacity:0.8;">
				<g>
					<g>
						<path style="fill:#FFFFFF;" d="M131.108,118.553l-1.781-3.084l9.748-5.637v0c0.001-0.001,0.002-0.001,0.003-0.002
							c0.852-0.492,1.941-0.2,2.433,0.652c0.492,0.852,0.2,1.941-0.652,2.433c-0.001,0.001-0.002,0.001-0.002,0.001l0,0
							L131.108,118.553z"/>
					</g>
					<g>
						<path style="fill:#FFFFFF;" d="M131.111,126.306l-1.781-3.085l9.748-5.637l0,0c0.001-0.001,0.002-0.001,0.003-0.002
							c0.852-0.492,1.941-0.2,2.433,0.652c0.492,0.852,0.2,1.941-0.652,2.433c-0.001,0-0.002,0.001-0.003,0.001l0,0L131.111,126.306
							z"/>
					</g>
					<g>
						<path style="fill:#FFFFFF;" d="M131.115,134.059l-1.781-3.084l9.748-5.637l0,0c0.001-0.001,0.002-0.001,0.003-0.002
							c0.852-0.492,1.941-0.2,2.433,0.652c0.492,0.852,0.2,1.941-0.652,2.433c-0.001,0-0.002,0.001-0.003,0.001l0,0L131.115,134.059
							z"/>
					</g>
					<g>
						<path style="fill:#FFFFFF;" d="M131.118,141.813l-1.781-3.085l9.748-5.637l0,0c0.001-0.001,0.002-0.001,0.003-0.002
							c0.852-0.492,1.941-0.2,2.433,0.652c0.492,0.852,0.2,1.941-0.652,2.433c-0.001,0-0.002,0.001-0.003,0.001l0,0L131.118,141.813
							z"/>
					</g>
				</g>
			</g>
			<g style="opacity:0.2;">
				<polygon style="fill:#BA68C8;" points="131.108,118.553 129.327,115.468 137.617,110.682 137.617,114.794 				"/>
				<polygon style="fill:#BA68C8;" points="137.617,133.948 137.617,138.061 131.118,141.813 129.338,138.729 				"/>
				<polygon style="fill:#BA68C8;" points="131.115,134.059 129.334,130.975 137.617,126.192 137.617,130.305 				"/>
				<polygon style="fill:#BA68C8;" points="131.111,126.306 129.331,123.221 137.617,118.437 137.617,122.55 				"/>
			</g>
			<g id="XMLID_00000148643198544109314710000000011374616573641126_">
				<g id="XMLID_00000145056117297389557310000004866341704548085674_">
					<path style="fill:#37474F;" d="M134.083,108.418c-0.388-0.224-0.929-0.191-1.519,0.153l-29.298,16.911
						c-0.59,0.344-1.126,0.924-1.514,1.596l-4.023-2.32c0.393-0.672,0.929-1.262,1.519-1.601l28.03-16.184
						c1.186-0.683,3.109-0.683,4.295,0L134.083,108.418z"/>
					<path id="XMLID_1178_" style="fill:#455A64;" d="M101.12,129.203l0.01,33.81c0,1.37,0.962,1.925,2.149,1.24l29.285-16.908
						c1.186-0.685,2.148-2.35,2.148-3.72v-33.816c0-1.37-0.962-1.925-2.148-1.24l-29.297,16.914
						C102.081,126.168,101.119,127.834,101.12,129.203z"/>
					<path style="fill:#263238;" d="M101.698,164.368l-2.45-1.413c-1.186-0.683-2.147-2.35-2.147-3.715v-32.369
						c0-0.683,0.24-1.442,0.628-2.115l4.023,2.32c-0.394,0.672-0.634,1.437-0.634,2.125l0.011,33.811
						C101.13,163.664,101.348,164.128,101.698,164.368z"/>
				</g>
				<g id="XMLID_00000011018656048220220750000013837923705034452615_">
					<path style="fill:#F5F5F5;" d="M105.912,158.204c-0.18,0-0.35-0.044-0.502-0.132c-0.351-0.203-0.546-0.606-0.546-1.136
						l-0.01-26.316c0-0.977,0.662-2.124,1.508-2.611l22.811-13.176c0.46-0.266,0.906-0.298,1.257-0.095
						c0.351,0.203,0.546,0.606,0.546,1.136l-0.001,26.334c0,0.976-0.662,2.123-1.508,2.611l-22.8,13.159
						C106.407,158.128,106.15,158.204,105.912,158.204z M106.521,157.722h0.007H106.521z M129.929,115.197
						c-0.135,0-0.294,0.05-0.461,0.146l-22.811,13.176c-0.657,0.379-1.212,1.341-1.212,2.101l0.01,26.316
						c0,0.305,0.092,0.533,0.251,0.626c0.158,0.092,0.4,0.059,0.669-0.095l22.8-13.159c0.657-0.38,1.212-1.342,1.212-2.101
						l0.001-26.334c0-0.306-0.092-0.533-0.251-0.626C130.077,115.214,130.008,115.197,129.929,115.197z"/>
				</g>
				<g id="XMLID_00000150059965228622581170000016382424421665301132_">
					<path style="fill:#F5F5F5;" d="M110.106,150.373c-0.105,0-0.206-0.026-0.295-0.078c-0.201-0.116-0.316-0.344-0.316-0.626
						l-0.002-17.298c0-0.403,0.371-1.045,0.72-1.247l15.049-8.756c0.245-0.143,0.499-0.156,0.7-0.041
						c0.201,0.116,0.316,0.343,0.316,0.626l-0.069,17.408c-0.001,0.473-0.31,1.009-0.721,1.246l-14.978,8.65
						C110.376,150.333,110.237,150.373,110.106,150.373z M125.664,122.835c-0.001,0.002-0.042,0.005-0.107,0.043l-15.049,8.756
						c-0.164,0.095-0.426,0.55-0.426,0.737l0.003,17.298c0,0.076,0.017,0.111,0.023,0.118c0.003-0.002,0.042-0.004,0.108-0.042
						l14.978-8.65c0.227-0.131,0.425-0.475,0.425-0.736v-0.001l0.069-17.407C125.687,122.877,125.67,122.842,125.664,122.835z"/>
				</g>
			</g>
			<g>
				<g id="XMLID_1165_">
					<path style="fill:#BA68C8;" d="M108.932,109.748c0-0.984-0.797-1.781-1.781-1.781c-0.984,0-1.781,0.797-1.781,1.781
						l0.039,10.798c0,0.263,0.174,0.526,0.522,0.728c0.695,0.401,1.823,0.402,2.519,0c0.347-0.201,0.521-0.464,0.521-0.727l0,0
						L108.932,109.748z"/>
					<path style="fill:#BA68C8;" d="M115.649,105.875c0-0.983-0.797-1.781-1.781-1.781c-0.983,0-1.781,0.798-1.781,1.781
						c0,0,0,0,0,0l0,0l0.04,10.798c0,0.263,0.173,0.526,0.521,0.728c0.695,0.402,1.823,0.402,2.519,0
						c0.348-0.201,0.521-0.464,0.521-0.727l0,0L115.649,105.875L115.649,105.875L115.649,105.875z"/>
					<path style="fill:#BA68C8;" d="M122.365,102.001c0-0.984-0.797-1.781-1.781-1.781c-0.984,0-1.781,0.797-1.781,1.781
						c0,0.001,0,0.001,0,0.001l0.04,10.797l0,0c0,0.263,0.174,0.526,0.521,0.727c0.695,0.402,1.823,0.402,2.519,0
						c0.348-0.201,0.522-0.464,0.522-0.727l0,0L122.365,102.001L122.365,102.001C122.365,102.001,122.365,102.001,122.365,102.001z"
						/>
					<path style="fill:#BA68C8;" d="M127.301,96.346c-0.983,0-1.781,0.797-1.781,1.781c0,0,0,0.001,0,0.001l0.039,10.797
						c0,0.263,0.174,0.526,0.522,0.727c0.695,0.402,1.823,0.402,2.519,0c0.348-0.201,0.521-0.464,0.521-0.727l0,0l-0.039-10.799
						C129.082,97.144,128.284,96.346,127.301,96.346z"/>
				</g>
				<g id="XMLID_1161_">
					<path style="fill:#BA68C8;" d="M90.427,140.195c-0.852,0.492-1.941,0.2-2.433-0.652c-0.492-0.852-0.2-1.941,0.652-2.433
						l9.371-5.365c0.228-0.132,0.543-0.113,0.891,0.088c0.695,0.402,1.259,1.378,1.259,2.181c0,0.401-0.141,0.683-0.369,0.815l0,0
						L90.427,140.195z"/>
					<path style="fill:#BA68C8;" d="M90.43,147.948c-0.852,0.492-1.941,0.2-2.433-0.652c-0.492-0.852-0.2-1.941,0.652-2.433
						c0,0,0,0,0,0l0,0l9.371-5.365c0.228-0.132,0.543-0.113,0.891,0.088c0.695,0.402,1.259,1.378,1.259,2.181
						c0,0.402-0.141,0.684-0.369,0.815l0,0L90.43,147.948L90.43,147.948C90.43,147.948,90.43,147.948,90.43,147.948z"/>
					<path style="fill:#BA68C8;" d="M90.434,155.701c-0.852,0.492-1.941,0.2-2.433-0.652c-0.492-0.852-0.2-1.941,0.652-2.433
						c0.001,0,0.001-0.001,0.001-0.001l9.37-5.364l0,0c0.228-0.132,0.543-0.113,0.891,0.088c0.695,0.401,1.259,1.378,1.259,2.181
						c0,0.401-0.141,0.684-0.369,0.815l0,0L90.434,155.701L90.434,155.701L90.434,155.701z"/>
					<path style="fill:#BA68C8;" d="M88.005,162.803c-0.492-0.852-0.2-1.941,0.652-2.433c0,0,0.001,0,0.001-0.001l9.37-5.365
						c0.228-0.132,0.543-0.112,0.891,0.088c0.695,0.401,1.259,1.378,1.259,2.181c0,0.401-0.141,0.683-0.369,0.815l0,0l-9.372,5.365
						C89.586,163.947,88.496,163.655,88.005,162.803z"/>
				</g>
			</g>
			<g style="opacity:0.8;">
				<g>
					<g id="XMLID_00000172424197147568903400000008142403407142241451_">
						<g>
							<path style="fill:#FFFFFF;" d="M108.932,109.748c0-0.984-0.797-1.781-1.781-1.781c-0.984,0-1.781,0.797-1.781,1.781
								l0.039,10.798c0,0.263,0.174,0.526,0.522,0.728c0.695,0.401,1.823,0.402,2.519,0c0.347-0.201,0.521-0.464,0.521-0.727l0,0
								L108.932,109.748z"/>
						</g>
						<g>
							<path style="fill:#FFFFFF;" d="M115.649,105.875c0-0.983-0.797-1.781-1.781-1.781c-0.983,0-1.781,0.798-1.781,1.781
								c0,0,0,0,0,0l0,0l0.04,10.798c0,0.263,0.173,0.526,0.521,0.728c0.695,0.402,1.823,0.402,2.519,0
								c0.348-0.201,0.521-0.464,0.521-0.727l0,0L115.649,105.875L115.649,105.875L115.649,105.875z"/>
						</g>
						<g>
							<path style="fill:#FFFFFF;" d="M122.365,102.001c0-0.984-0.797-1.781-1.781-1.781c-0.984,0-1.781,0.797-1.781,1.781
								c0,0.001,0,0.001,0,0.001l0.04,10.797l0,0c0,0.263,0.174,0.526,0.521,0.727c0.695,0.402,1.823,0.402,2.519,0
								c0.348-0.201,0.522-0.464,0.522-0.727l0,0L122.365,102.001L122.365,102.001C122.365,102.001,122.365,102.001,122.365,102.001
								z"/>
						</g>
						<g>
							<path style="fill:#FFFFFF;" d="M127.301,96.346c-0.983,0-1.781,0.797-1.781,1.781c0,0,0,0.001,0,0.001l0.039,10.797
								c0,0.263,0.174,0.526,0.522,0.727c0.695,0.402,1.823,0.402,2.519,0c0.348-0.201,0.521-0.464,0.521-0.727l0,0l-0.039-10.799
								C129.082,97.144,128.284,96.346,127.301,96.346z"/>
						</g>
					</g>
					<g id="XMLID_00000039118786901284273930000014701552041154564001_">
						<g>
							<path style="fill:#FFFFFF;" d="M90.427,140.195c-0.852,0.492-1.941,0.2-2.433-0.652c-0.492-0.852-0.2-1.941,0.652-2.433
								l9.371-5.365c0.228-0.132,0.543-0.113,0.891,0.088c0.695,0.402,1.259,1.378,1.259,2.181c0,0.401-0.141,0.683-0.369,0.815l0,0
								L90.427,140.195z"/>
						</g>
						<g>
							<path style="fill:#FFFFFF;" d="M90.43,147.948c-0.852,0.492-1.941,0.2-2.433-0.652c-0.492-0.852-0.2-1.941,0.652-2.433
								c0,0,0,0,0,0l0,0l9.371-5.365c0.228-0.132,0.543-0.113,0.891,0.088c0.695,0.402,1.259,1.378,1.259,2.181
								c0,0.402-0.141,0.684-0.369,0.815l0,0L90.43,147.948L90.43,147.948C90.43,147.948,90.43,147.948,90.43,147.948z"/>
						</g>
						<g>
							<path style="fill:#FFFFFF;" d="M90.434,155.701c-0.852,0.492-1.941,0.2-2.433-0.652c-0.492-0.852-0.2-1.941,0.652-2.433
								c0.001,0,0.001-0.001,0.001-0.001l9.37-5.364l0,0c0.228-0.132,0.543-0.113,0.891,0.088c0.695,0.401,1.259,1.378,1.259,2.181
								c0,0.401-0.141,0.684-0.369,0.815l0,0L90.434,155.701L90.434,155.701L90.434,155.701z"/>
						</g>
						<g>
							<path style="fill:#FFFFFF;" d="M88.005,162.803c-0.492-0.852-0.2-1.941,0.652-2.433c0,0,0.001,0,0.001-0.001l9.37-5.365
								c0.228-0.132,0.543-0.112,0.891,0.088c0.695,0.401,1.259,1.378,1.259,2.181c0,0.401-0.141,0.683-0.369,0.815l0,0
								l-9.372,5.365C89.586,163.947,88.496,163.655,88.005,162.803z"/>
						</g>
					</g>
				</g>
			</g>
		</g>
	</g>
</g>
</svg>
